<?xml version="1.0" encoding="utf-8"?>
<!-- Generator: Adobe Illustrator 17.1.0, SVG Export Plug-In . SVG Version: 6.00 Build 0)  -->
<svg version="1.2" baseProfile="tiny" xmlns="http://www.w3.org/2000/svg" xmlns:xlink="http://www.w3.org/1999/xlink" x="0px"
	 y="0px" viewBox="0 0 900 900" xml:space="preserve">
<g id="Layer_2" display="none">
	<g display="inline">
		<g>
			<image width="95" height="26" xlink:href="833571CAB6F27F11.png"  transform="matrix(1 0 0 1 495 317)">
			</image>
			<image width="90" height="145" xlink:href="833571CAB6F27F13.png"  transform="matrix(1 0 0 1 314 554)">
			</image>
			<g>
				<path fill="#D758C8" d="M517.9,330.8c78-11,138,49.2,137.7,143.3c-0.4,102.4-71.9,206.2-159.8,231.8c-7,2.1-14,3.5-20.7,4.5
					c-78,11-138-49.2-137.7-143.3c0.4-102.4,71.9-206.2,159.8-231.9C504.2,333.3,511.1,331.8,517.9,330.8z"/>
			</g>
			<image width="204" height="250" xlink:href="833571CAB6F27F16.png"  transform="matrix(1 0 0 1 314 318)">
			</image>
		</g>
	</g>
</g>
<g id="Layer_1">
	<path fill="#84F1D5" d="M748.6,550.7c-2,0-215.6,0.1-215.6,0.1c6.5-22.4,12.9-44.7,19.4-67.1c12.6,0,175.1,0,175.1,0v-0.2
		c0.4,0,0.7,0,0.8,0c3.9,0,18.9-5,18.9-31.7s-15.1-31.9-19-31.9c-2.2,0-157.4,0.1-157.4,0.1c5.3-18.3,10.6-36.6,15.9-55
		c15.2,0,161.8,0,161.8,0v-0.1c0,0,0,0,0,0c3.9,0,18.9-5,18.9-31.7c0-26.7-15.1-31.9-19-31.9c-1.9,0-195.8,0.1-195.8,0.1v0.1
		c0,0,0,0,0,0l0,0.2c-0.3,0.3-0.6,0.7-0.8,1.4c-2.1,7.9-63.2,233.9-65.9,242.6c-0.2,0.6-0.6,0.8-0.6,0.8c-0.4,0-0.5-0.3-0.6-0.7
		c-0.1-0.3-54.6-199.3-66.4-242.2c-0.2-0.8-0.5-1.3-0.8-1.7v-0.7c0,0-191.8,0.1-195.7,0.1c-3.8,0-19.1,5-19.1,31.7
		c0,26.7,14.9,31.8,18.8,31.8c2.8,0,103.4-0.1,159.4,0c0.7,2.3,1.3,4.5,2,6.8c4.7,16.2,9.4,32.4,14.1,48.6c-56.9,0-150.1,0-152.7,0
		c-3.8,0-18.9,5.1-18.9,31.9c0,26.7,15,31.8,18.9,31.7c3,0,119.2,0,171.2,0c0.4,1.3,0.8,2.7,1.2,4c6.1,21,12.2,42,18.3,63l-213,0.6
		c0,0-19,4.7-19,31.4c0,26.7,15,31.8,18.9,31.7c3.9,0,526.6-0.1,526.6-0.1v-0.1c0.2,0,0.3,0,0.4,0c3.9,0,18.9-5,18.9-31.7
		C767.5,555.8,752.4,550.7,748.6,550.7z"/>
	<g display="none">
		
			<image display="inline" opacity="0.75" width="327" height="392" xlink:href="833571CAB6F27F17.png"  transform="matrix(1 0 0 1 334 327)">
		</image>
		<g display="inline">
			<g>
				<image width="47" height="84" xlink:href="833571CAB6F27F12.png"  transform="matrix(1 0 0 1 587 497)">
				</image>
				<image width="69" height="114" xlink:href="833571CAB6F27F1D.png"  transform="matrix(1 0 0 1 562 509)">
				</image>
				<image width="15" height="33" xlink:href="833571CAB6F27F1E.png"  transform="matrix(1 0 0 1 615 534)">
				</image>
				<image width="4" height="9" xlink:href="833571CAB6F27F1F.png"  transform="matrix(1 0 0 1 631 486)">
				</image>
				<image width="1" height="2" xlink:href="833571CAB6F27F14.png"  transform="matrix(1 0 0 1 631 475)">
				</image>
				<image width="15" height="39" xlink:href="F6B9724C710C5D8A.png"  transform="matrix(1 0 0 1 620 528)">
				</image>
				<image width="29" height="25" xlink:href="F6B9724C710C5D8D.png"  transform="matrix(1 0 0 1 560 580)">
				</image>
				<image width="46" height="72" xlink:href="F6B9724C710C5D8E.png"  transform="matrix(1 0 0 1 588 511)">
				</image>
				<image width="110" height="113" xlink:href="F6B9724C710C5D8C.png"  transform="matrix(1 0 0 1 506 563)">
				</image>
				<image width="139" height="123" xlink:href="F6B9724C710C5D8B.png"  transform="matrix(1 0 0 1 482 563)">
				</image>
				<image width="69" height="103" xlink:href="F6B9724C710C5D95.png"  transform="matrix(1 0 0 1 563 522)">
				</image>
				<image width="49" height="84" xlink:href="F6B9724C710C5D96.png"  transform="matrix(1 0 0 1 592 501)">
				</image>
				<image width="80" height="103" xlink:href="F6B9724C710C5D94.png"  transform="matrix(1 0 0 1 556 486)">
				</image>
				<image width="8" height="11" xlink:href="F6B9724C710C5D9A.png"  transform="matrix(1 0 0 1 631 486)">
				</image>
				<image width="70" height="113" xlink:href="F6B9724C710C5D9D.png"  transform="matrix(1 0 0 1 568 513)">
				</image>
				<image width="82" height="102" xlink:href="F6B9724C710C5DB1.png"  transform="matrix(1 0 0 1 561 490)">
				</image>
				<image width="4" height="9" xlink:href="F6B9724C710C5DB3.png"  transform="matrix(1 0 0 1 636 489)">
				</image>
				<image width="78" height="88" xlink:href="F6B9724C710C5DB0.png"  transform="matrix(1 0 0 1 556 503)">
				</image>
				<image width="22" height="35" xlink:href="F6B9724C710C5DBF.png"  transform="matrix(1 0 0 1 619 493)">
				</image>
				<image width="32" height="28" xlink:href="F6B9724C710C5DB2.png"  transform="matrix(1 0 0 1 561 580)">
				</image>
				<image width="8" height="10" xlink:href="F6B9724C710C5DB6.png"  transform="matrix(1 0 0 1 630 473)">
				</image>
				<image width="30" height="27" xlink:href="F6B9724C710C5DB7.png"  transform="matrix(1 0 0 1 565 582)">
				</image>
				<image width="5" height="8" xlink:href="F6B9724C710C5D8F.png"  transform="matrix(1 0 0 1 634 475)">
				</image>
				<image width="7" height="3" xlink:href="F6B9724C710C5D89.png"  transform="matrix(1 0 0 1 496 677)">
				</image>
				<image width="53" height="33" xlink:href="F6B9724C710C5D88.png"  transform="matrix(1 0 0 1 511 621)">
				</image>
				<image width="8" height="21" xlink:href="F6B9724C710C5DD4.png"  transform="matrix(1 0 0 1 618 429)">
				</image>
				<image width="2" height="3" xlink:href="F6B9724C710C5DEB.png"  transform="matrix(1 0 0 1 624 443)">
				</image>
				<image width="51" height="27" xlink:href="F6B9724C710C5DEC.png"  transform="matrix(1 0 0 1 511 604)">
				</image>
				<image width="6" height="4" xlink:href="F6B9724C710C5DEF.png"  transform="matrix(1 0 0 1 625 447)">
				</image>
				<image width="11" height="5" xlink:href="F6B9724C710C5DED.png"  transform="matrix(1 0 0 1 499 692)">
				</image>
				<g>
					<polygon fill="#8F8D8D" points="500.7,695.7 499.7,696.1 498,696.5 499,696.2 					"/>
				</g>
				<image width="8" height="20" xlink:href="F6B9724C710C5DEA.png"  transform="matrix(1 0 0 1 618 421)">
				</image>
				<image width="102" height="87" xlink:href="F6B9724C710C5DF4.png"  transform="matrix(1 0 0 1 530 494)">
				</image>
				<image width="43" height="21" xlink:href="F6B9724C710C5DF7.png"  transform="matrix(1 0 0 1 514 587)">
				</image>
				<image width="26" height="36" xlink:href="F6B9724C710C5DF5.png"  transform="matrix(1 0 0 1 606 437)">
				</image>
				<image width="24" height="38" xlink:href="F6B9724C710C5DFB.png"  transform="matrix(1 0 0 1 606 425)">
				</image>
				<image width="15" height="28" xlink:href="F6B9724C710C5DC7.png"  transform="matrix(1 0 0 1 614 411)">
				</image>
				<image width="3" height="4" xlink:href="F6B9724C710C5DD9.png"  transform="matrix(1 0 0 1 623 429)">
				</image>
				<image width="136" height="121" xlink:href="F6B9724C710C5DDB.png"  transform="matrix(1 0 0 1 487 566)">
				</image>
				<image width="52" height="64" xlink:href="F6B9724C710C5DDE.png"  transform="matrix(1 0 0 1 579 387)">
				</image>
				<image width="71" height="69" xlink:href="F6B9724C710C5DDF.png"  transform="matrix(1 0 0 1 565 392)">
				</image>
				<image width="50" height="50" xlink:href="F6B9724C710C5DDA.png"  transform="matrix(1 0 0 1 570 365)">
				</image>
				<image width="65" height="74" xlink:href="F6B9724C710C5DC5.png"  transform="matrix(1 0 0 1 568 373)">
				</image>
				<image width="7" height="20" xlink:href="F6B9724C710C5DC6.png"  transform="matrix(1 0 0 1 625 433)">
				</image>
				<image width="14" height="33" xlink:href="F6B9724C710C5DC4.png"  transform="matrix(1 0 0 1 619 414)">
				</image>
				<image width="8" height="5" xlink:href="F6B9724C710C5DC9.png"  transform="matrix(1 0 0 1 591 436)">
				</image>
				<image width="40" height="40" xlink:href="F6B9724C710C5E26.png"  transform="matrix(1 0 0 1 593 428)">
				</image>
				<image width="35" height="45" xlink:href="F6B9724C710C5E21.png"  transform="matrix(1 0 0 1 604 426)">
				</image>
				<image width="45" height="42" xlink:href="F6B9724C710C5E22.png"  transform="matrix(1 0 0 1 596 439)">
				</image>
				<image width="47" height="53" xlink:href="F6B9724C710C5E20.png"  transform="matrix(1 0 0 1 585 408)">
				</image>
				<image width="81" height="63" xlink:href="F6B9724C710C5E2E.png"  transform="matrix(1 0 0 1 560 418)">
				</image>
				<image width="8" height="5" xlink:href="F6B9724C710C5E23.png"  transform="matrix(1 0 0 1 559 397)">
				</image>
				<image width="28" height="12" xlink:href="F6B9724C710C5E27.png"  transform="matrix(1 0 0 1 560 390)">
				</image>
				<image width="75" height="71" xlink:href="F6B9724C710C5E25.png"  transform="matrix(1 0 0 1 564 400)">
				</image>
				<image width="15" height="8" xlink:href="F6B9724C710C5E5C.png"  transform="matrix(1 0 0 1 564 370)">
				</image>
				<image width="32" height="11" xlink:href="F6B9724C710C5E5D.png"  transform="matrix(1 0 0 1 479 442)">
				</image>
				<image width="91" height="15" xlink:href="F6B9724C710C5E05.png"  transform="matrix(1 0 0 1 471 418)">
				</image>
				<image width="86" height="11" xlink:href="F6B9724C710C5E07.png"  transform="matrix(1 0 0 1 481 396)">
				</image>
				<image width="93" height="11" xlink:href="F6B9724C710C5E04.png"  transform="matrix(1 0 0 1 477 375)">
				</image>
				<image width="137" height="61" xlink:href="F6B9724C710C5E03.png"  transform="matrix(1 0 0 1 485 354)">
				</image>
				<image width="99" height="62" xlink:href="F6B9724C710C5E7D.png"  transform="matrix(1 0 0 1 375 438)">
				</image>
				<image width="116" height="106" xlink:href="F6B9724C710C5E7F.png"  transform="matrix(1 0 0 1 352 421)">
				</image>
				<image width="119" height="126" xlink:href="F6B9724C710C5E7C.png"  transform="matrix(1 0 0 1 352 397)">
				</image>
				<image width="135" height="164" xlink:href="F6B9724C710C5E06.png"  transform="matrix(1 0 0 1 346 369)">
				</image>
				<image width="242" height="106" xlink:href="F6B9724C710C5E09.png"  transform="matrix(1 0 0 1 355 424)">
				</image>
				<image width="242" height="116" xlink:href="F6B9724C710C5E0A.png"  transform="matrix(1 0 0 1 357 407)">
				</image>
				<image width="245" height="122" xlink:href="F6B9724C710C5E18.png"  transform="matrix(1 0 0 1 352 427)">
				</image>
				<image width="35" height="29" xlink:href="F6B9724C710C5E17.png"  transform="matrix(1 0 0 1 600 447)">
				</image>
				<image width="246" height="121" xlink:href="F6B9724C710C5E28.png"  transform="matrix(1 0 0 1 359 410)">
				</image>
				<image width="132" height="98" xlink:href="F6B9724C710C5E2B.png"  transform="matrix(1 0 0 1 505 494)">
				</image>
				<image width="129" height="98" xlink:href="F6B9724C710C5E29.png"  transform="matrix(1 0 0 1 510 496)">
				</image>
				<image width="211" height="135" xlink:href="F6B9724C710C5E2F.png"  transform="matrix(1 0 0 1 355 385)">
				</image>
				<image width="208" height="139" xlink:href="F6B9724C710C5E2A.png"  transform="matrix(1 0 0 1 359 388)">
				</image>
				<image width="215" height="155" xlink:href="F6B9724C710C5E35.png"  transform="matrix(1 0 0 1 354 362)">
				</image>
				<image width="12" height="21" xlink:href="F6B9724C710C5E36.png"  transform="matrix(1 0 0 1 346 524)">
				</image>
				<image width="148" height="201" xlink:href="F6B9724C710C5E37.png"  transform="matrix(1 0 0 1 349 342)">
				</image>
				<image width="217" height="173" xlink:href="F6B9724C710C5ED3.png"  transform="matrix(1 0 0 1 353 364)">
				</image>
				<g>
					<path fill="#F1EEEE" d="M355.9,540.1c1.3-54.2,20.2-83.9,30.1-103.7c10.2-20.5,28.1-36.6,43.6-51.6
						c10.5-10.1,21.9-18.3,33.9-24.7c8.9-4.8,17.8-8,26.9-11.4c2.3-0.8,4.6-1.6,6.9-2.2l1.1-0.3c3.1-0.7,6.2-1.4,9.3-1.8
						c4.8-0.7,9.5-1,14.2-1.1c11.7-0.4,43.5,2.2,64.9,22.4c14.5,13.7,27.5,28.7,36.2,48.8c3.3,7.7,12.5,39,13.6,54
						c0.3,4.5,1.8,8.7,1.4,10.7c0.2,0.6-0.5-1.3-1.2-3.3c-1.3-2.4-19.8-22.9-34.6-28.6c-8.7-3.4-24.8-9.5-45.3-9.7
						c-7.6-0.1-15.7,0.7-24.3,1.9c-7.3,1-14.8,2.3-22.6,3.6c-2.9,0.5-5.9,1.2-8.8,2c-15.3,3.9-30.4,10.5-45.5,16.1
						c-9.5,3.5-48.6,23.9-59.5,33.6C385.4,504.3,370.3,521,355.9,540.1z M378.2,460.5c-2.6,5-7.4,15.7-11.6,28.6
						c-3.2,9.7-5.9,21.5-12.8,47.1c10.6-29.2,16.1-46.3,18.1-51.2c2-4.9,8.2-17,12.1-24.6c3.9-7.4,17.1-26.3,28.7-38.8
						c10.7-11.5,22.4-20.5,34.4-28.9c8.7-6.2,17.9-10.6,27.1-14.5c6.9-2.9,13.8-5.9,20.8-7.7c1.8-0.5,3.7-0.9,5.5-1.1
						c2.6-0.4,5.2-0.8,7.7-1.1c13.2-1.9,26.3-3.1,38.7-0.2c7.7,1.8,15.6,2.6,22.5,6.4c8.6,2.9,16.1,7.9,23.4,13.4
						c8.3,6.3,15.2,14.1,21.4,23.4c1.5,2.3,5.1,7.6,6.9,11.4c1.8,3.7,2.3,7.4,11.5,23.9c-6.2-22.1-10.3-29.6-11.5-32.2
						c-6.6-11.8-14.5-22-23.3-30.8c-8.4-8.3-18.1-14.7-28.5-19.3c-2.2-1-30.5-9-41.4-9.3c-8.1-0.3-16.2,1.3-24.3,2.2
						c-0.5,0-1,0.1-1.6,0.2c-2.3,0.3-4.5,0.8-6.8,1.4c-8.1,2.1-16,5.6-24,9.1c-12.1,5.3-23.6,12.9-34.7,21.7
						c-11.2,9-21.5,19.8-31.1,31.6C395.6,433.3,385.9,446.4,378.2,460.5 M635.9,460.7c-5-14.4-11.9-33-15.5-38.1
						c-7.5-10.8-16.3-19.6-26.2-27.2c-7.9-6-16.7-9.4-25.1-13.6c-17.3-5.4-34.7-8.3-53.4-5.7c-7.2,1-14.1,2.4-21.2,4.2
						c-10.8,2.8-21.5,6.7-32.2,12c-19.7,9.9-38,24-54.7,41.9c-8.4,9-16.1,19-23.3,29.5c-9.8,15.8-20.3,43.8-20.8,45.2
						c-1.3,3.4-2.6,10.3-3.8,17.1c6.4-13.4,18.5-42.2,26-52.8c7.5-10.6,14.8-19.3,22.9-27.7c13.9-14,29.2-25.4,45.1-33.7
						c10.6-5.6,21.3-10.6,32.3-13.6c2.2-0.6,4.5-1.2,6.7-1.8c8.6-2.2,17.1-4.2,25.6-5.4c6.8-1,13.5-1.4,20.2-1.1
						c9.5,0.5,18.9,1.3,27.7,4.3c6.2,0.4,11.5,2.9,16.7,5.5c7.9,3.9,15.6,8.5,22.5,14.6C615.6,423.5,625.9,442.8,635.9,460.7
						 M604.6,427.5c8.3,5.5,21.4,24.9,33.7,42.7c-19.4-42.5-38.8-55.7-45.1-59.2c-7.9-4.5-16.3-7.4-25-9.8c-0.6-0.2-1.2-0.7-1.9-1.1
						c-15.6-3.2-31.5-4.2-47.6-2.2c-1.2,0.1-2.4,0.3-3.6,0.5c-6.2,0.9-12.5,2-18.9,3.7c-4.8,1.2-9.7,2.7-14.6,4.6
						c-12.4,4.7-24.7,10.1-36.6,17.2c-20.1,12-38.8,27.3-55.1,47.8c-7.7,9.6-14.6,21.3-19.9,32.1c-3.4,6.9-6.1,13.3-10.6,26.8
						c12.4-21.4,27.6-46.3,32.9-51.9c21.8-23.1,46.2-38.7,71.9-49.7c10-4.3,20-7.5,30-10.1c6.8-1.7,13.6-3.2,20.4-4.4
						c1.4-0.3,3.1-0.5,5.1-0.8C537.9,411.1,576.8,409.1,604.6,427.5 M596.7,440.5c15.8,8.1,30.8,21.4,43.7,39.7
						c-20.1-39.3-36.4-47.8-50.2-54c-9.1-4.1-19.2-4.4-28.4-7.3c-8.3-0.2-16.3-1-24.5-0.5c-6.5,0.5-13,0.9-19.5,1.8
						c-2.7,0.4-5.4,0.8-8.2,1.4c-4.9,1-9.8,1.4-14.8,2.7c-0.8,0.2-1.6,0.4-2.4,0.7c-14.1,4.5-28.4,9.2-42.2,16.5
						c-22.6,12.1-44.7,26.4-63.7,48.5c-5.4,6.2-11,12.4-15.2,20.1c-4.5,6-7.8,12.8-18.4,38.3c17.8-34.7,37.1-54.9,44.8-61.5
						c9.2-7.8,31.9-21.3,43.7-27.6c7.1-3.8,20.2-9.8,27.5-13c11.7-5.2,19.9-7.6,30.1-10.2c2.9-0.7,6-1.5,9.4-2.4
						c4.1-1.1,10.7-2.3,18-3.4c9.1-1.3,19.5-2.2,28.2-1.9C562.8,428.9,580.2,432,596.7,440.5 M631.1,452.7c1.6-2.2,1.4-2.5-5.4-19.7
						C630.6,451.1,630.6,451.3,631.1,452.7"/>
				</g>
				<image width="69" height="80" xlink:href="F6B9724C710C5ED5.png"  transform="matrix(1 0 0 1 567 381)">
				</image>
				<image width="7" height="20" xlink:href="F6B9724C710C5ED7.png"  transform="matrix(1 0 0 1 625 433)">
				</image>
				<image width="74" height="15" xlink:href="F6B9724C710C5ED2.png"  transform="matrix(1 0 0 1 414 672)">
				</image>
				<image width="165" height="46" xlink:href="F6B9724C710C5ED1.png"  transform="matrix(1 0 0 1 404 621)">
				</image>
				<image width="129" height="39" xlink:href="F6B9724C710C5EDD.png"  transform="matrix(1 0 0 1 508 437)">
				</image>
				<image width="169" height="40" xlink:href="F6B9724C710C5EDF.png"  transform="matrix(1 0 0 1 397 604)">
				</image>
				<image width="186" height="44" xlink:href="F6B9724C710C5ED0.png"  transform="matrix(1 0 0 1 384 624)">
				</image>
				<image width="174" height="36" xlink:href="F6B9724C710C5ED6.png"  transform="matrix(1 0 0 1 388 587)">
				</image>
				<image width="111" height="49" xlink:href="F6B9724C710C5EEC.png"  transform="matrix(1 0 0 1 378 640)">
				</image>
				<image width="134" height="16" xlink:href="F6B9724C710C5EF2.png"  transform="matrix(1 0 0 1 397 596)">
				</image>
				<image width="10" height="18" xlink:href="F6B9724C710C5EF5.png"  transform="matrix(1 0 0 1 356 580)">
				</image>
				<image width="7" height="19" xlink:href="F6B9724C710C5EF6.png"  transform="matrix(1 0 0 1 364 595)">
				</image>
				<image width="130" height="13" xlink:href="F6B9724C710C5EF4.png"  transform="matrix(1 0 0 1 381 589)">
				</image>
				<image width="4" height="9" xlink:href="F6B9724C710C5EF3.png"  transform="matrix(1 0 0 1 355 591)">
				</image>
				<image width="15" height="34" xlink:href="F6B9724C710C5ECD.png"  transform="matrix(1 0 0 1 356 580)">
				</image>
				<image width="6" height="3" xlink:href="F6B9724C710C5ECE.png"  transform="matrix(1 0 0 1 364 597)">
				</image>
				<image width="6" height="3" xlink:href="F6B9724C710C5ECC.png"  transform="matrix(1 0 0 1 364 597)">
				</image>
				<image width="26" height="30" xlink:href="F6B9724C710C5ED4.png"  transform="matrix(1 0 0 1 368 597)">
				</image>
				<image width="192" height="35" xlink:href="F6B9724C710C5ED9.png"  transform="matrix(1 0 0 1 371 590)">
				</image>
				<image width="8" height="12" xlink:href="A8CD850C56C983D4.png"  transform="matrix(1 0 0 1 367 598)">
				</image>
				<image width="50" height="54" xlink:href="A8CD850C56C983D7.png"  transform="matrix(1 0 0 1 356 587)">
				</image>
				<image width="22" height="35" xlink:href="A8CD850C56C983D5.png"  transform="matrix(1 0 0 1 364 600)">
				</image>
				<image width="80" height="15" xlink:href="A8CD850C56C983DB.png"  transform="matrix(1 0 0 1 492 339)">
				</image>
				<g>
					<polygon fill="#7D7B7B" points="496.2,345 491.5,342.4 492.6,342.1 497.3,344.7 					"/>
				</g>
				<image width="60" height="75" xlink:href="A8CD850C56C983DC.png"  transform="matrix(1 0 0 1 354 590)">
				</image>
				<image width="36" height="35" xlink:href="A8CD850C56C983DF.png"  transform="matrix(1 0 0 1 357 583)">
				</image>
				<image width="137" height="110" xlink:href="A8CD850C56C983DD.png"  transform="matrix(1 0 0 1 497 341)">
				</image>
				<image width="11" height="56" xlink:href="A8CD850C56C983DA.png"  transform="matrix(1 0 0 1 349 567)">
				</image>
				<image width="3" height="9" xlink:href="A8CD850C56C983D6.png"  transform="matrix(1 0 0 1 362 593)">
				</image>
				<g>
					<polygon fill="#9E9C9C" points="497.3,346.5 496.2,345 497.3,344.7 498.4,346.2 					"/>
				</g>
				<image width="32" height="26" xlink:href="A8CD850C56C983C9.png"  transform="matrix(1 0 0 1 356 576)">
				</image>
				<image width="161" height="69" xlink:href="A8CD850C56C983BB.png"  transform="matrix(1 0 0 1 360 585)">
				</image>
				<image width="20" height="31" xlink:href="A8CD850C56C983B9.png"  transform="matrix(1 0 0 1 353 565)">
				</image>
				<image width="163" height="51" xlink:href="A8CD850C56C983A7.png"  transform="matrix(1 0 0 1 360 581)">
				</image>
				<g>
					<path fill="#F1EEEE" d="M377.1,617.2c-7.2-16.5-7.2-16.4-13.9-33.1c8.4,15.7,8.4,15.6,8.3,15.6
						C371.6,599.8,371.6,599.8,377.1,617.2z"/>
				</g>
				<image width="208" height="65" xlink:href="A8CD850C56C983A9.png"  transform="matrix(1 0 0 1 360 581)">
				</image>
				<image width="60" height="116" xlink:href="A8CD850C56C983AB.png"  transform="matrix(1 0 0 1 350 567)">
				</image>
				<image width="145" height="131" xlink:href="A8CD850C56C983AE.png"  transform="matrix(1 0 0 1 354 570)">
				</image>
				<image width="26" height="65" xlink:href="A8CD850C56C983AF.png"  transform="matrix(1 0 0 1 354 577)">
				</image>
				<image width="159" height="100" xlink:href="A8CD850C56C983AA.png"  transform="matrix(1 0 0 1 354 577)">
				</image>
				<image width="46" height="41" xlink:href="A8CD850C56C983A5.png"  transform="matrix(1 0 0 1 353 565)">
				</image>
				<image width="158" height="33" xlink:href="A8CD850C56C983A6.png"  transform="matrix(1 0 0 1 354 570)">
				</image>
				<g>
					<path fill="#F1EEEE" d="M522.6,687.4c-7.2,3.4-14.5,6.4-21.9,8.3l-1.7,0.4c-2.5,0.6-5,1.1-7.4,1.4c-9.6,1.2-18.6,2.4-27.5,2.1
						c-12-0.5-23.4-2.9-33.9-7.8c-15.5-7.3-33.3-14.5-43.5-29.9c-9.9-14.9-28.7-35.2-29.9-89.1c14.5,12,29.6,21.2,40.5,25.5
						c10.9,4.3,50.2,5.2,59.6,4c9.3-1.2,18.7-2,28.1-3.3c6.6-0.9,13.2-2.1,19.8-3.8c2.1-0.6,4.3-1.1,6.4-1.8
						c17.1-5.8,33-10.7,47.1-17.8c20.5-10.4,36.7-24.5,45.4-32.2c14.8-13.1,33.3-42.7,34.6-45.6c0.8-2.4,1.5-4.7,0.7-2.3l0,2.2
						c-0.3,2.3-0.7,4.7-0.9,7.1c-1.2,15.6-10.4,51.5-13.8,60.9c-8.8,24.5-21.9,45.9-36.5,66.9C566.3,663.4,534.4,681.9,522.6,687.4z
						 M488.4,686.6c3-0.4,5.9-0.9,8.9-1.7c2.4-0.6,4.7-1.3,7.2-2.3c8.1-3.1,16.3-5.6,24.3-9.9c10.9-5.8,39.3-27.8,41.5-29.9
						c10.5-9.9,20.2-20.9,28.6-33.5c8.9-13.2,16.9-27.2,23.4-42.3c1.2-3.2,5.3-12.8,11.8-38.8c-9.5,21.6-9.9,25.5-11.7,30.1
						c-1.8,4.6-5.4,11.8-6.9,14.8c-6.3,12.4-13.1,23.6-21.5,34.1c-7.3,9.2-14.9,17.9-23.4,25c-7,7.3-15,12.1-22.7,17.7
						c-15,10.9-30.8,16.3-46.7,21.8c-1.5,0.5-3,1-4.5,1.3c-2.7,0.7-5.5,1.2-8.2,1.6c-4.5,0.6-9.1,0.9-13.7,1.3
						c-9.3,0.8-18.4,0.8-27.1-1c-12-2.5-23.7-5.7-34.3-11.8c-11.6-6.7-24.7-19-28.6-24.5c-4-5.6-10.1-14.7-12.1-18.5
						c-2-3.9-7.4-18.3-18-42.5c6.9,22.1,9.6,32.6,12.8,40.7c4.2,10.9,9,19.2,11.6,22.9c7.6,10.3,17.4,18.7,27.3,25.9
						c9.6,7,19.9,12.7,31.1,16.2c11.1,3.4,22.6,5.3,34.7,4.5C477.5,687.6,482.9,687.3,488.4,686.6 M637.3,513.6
						c-10,22.3-20.4,46.7-30.7,60.9c-6.9,9.5-14.6,17.9-22.6,25.8c-5.3,5.2-10.6,10.4-16.6,13.8c-9,7.5-18.4,13-28,18.2
						c-12.9,7-25.9,11.3-39.1,14.7c-4.5,1.2-9.1,2.2-13.6,3.3c-2.7,0.6-5.4,1.1-8.1,1.5c-8.2,1.2-16.3,1.3-24.3,1
						c-15.9-0.5-31.2-4.2-45.1-11.3c-8.1-4.3-15.4-9.4-22.9-16.2c-7.4-6.8-19.5-29.6-25.8-39.7c1.1,5.6,2.4,11.7,4.3,15.9
						c0.3,0.6,10.6,22.9,20.4,33.5c7.1,7.2,14.8,13.4,23.2,18.2c16.8,9.6,34.9,14.7,54.9,14.7c5.9,0,11.9-0.3,17.9-1.2
						c5.8-0.8,11.5-2,17.4-3.5c6-1.6,12-3.4,18.1-5.6c18.8-6.7,36.2-18.2,53.1-31.8c8.9-8.9,17.8-16.7,25.6-26.5
						c9.9-12.5,18.8-25.6,26.3-40.2C625.3,552.2,632.3,530.2,637.3,513.6 M594.5,584.1c6.3-6.7,25.8-29.5,45.8-82.7
						c-12.9,24.8-26,50.7-34.4,60.5c-30.9,35.7-75.5,53.2-90.5,57.9c-5.4,1.7-10.8,3.3-16.2,4.7c-7.7,2-15.5,3.6-23.2,4.7
						c-3.7,0.5-7.4,0.9-11.1,1.2c-25.8,1.8-50.1-1.8-71.9-14c-5.2-2.9-20.4-20.3-32.5-35.1c4.3,10.6,6.9,15.7,10.4,20.9
						c5.3,8.2,12.2,16.4,19.9,22.3c16.4,12.4,35.1,18.4,55.2,20.4c12,1.2,24.3,0.4,36.7-1c0.9-0.1,1.8-0.2,2.6-0.3
						c4.8-0.7,9.7-1.7,14.5-2.9c6.7-1.7,13.4-3.9,19.9-6.4c16.2-6.1,32.1-14.9,47.5-25.7c0.9-0.9,1.5-1.8,2.1-2.3
						C578.1,599.6,586.5,592.5,594.5,584.1 M398.5,605.2c-7.7-2.7-26.9-13.3-45.1-40c11,20.8,14.4,26,18.9,29.9
						c4.1,5.5,9.7,9,15.1,12.5c19.1,12.6,41.2,16,63.9,16.8c8.2,0.3,16.6-0.5,25.1-1.7c5.7-0.8,11.5-1.8,17.2-2.8
						c1.1-0.2,2.2-0.4,3.3-0.7c4.7-1.2,9.4-3.1,14-4.4c9.4-2.7,18.6-6.6,27.8-10.5c8.2-3.5,16.3-8.3,24.3-12.5
						c9.4-7.6,19.5-12.9,28.6-21.5c13.8-13,30.2-29.6,50.9-80.2c-13.6,25.9-28.7,46.7-44.6,62.7c-16.6,16.7-34.1,28.5-42.2,32.8
						c-15.2,8.1-35.3,15-45.1,17.5c-0.4,0.1-0.9,0.2-1.3,0.3c-10.7,2.6-18.5,4.6-27.5,5.9c-3.7,0.5-7.7,0.9-12.1,1.1
						c-7.3,0.4-20.4,0.9-27.5,0.7C430.5,610.7,407.8,608.4,398.5,605.2"/>
				</g>
				<image width="128" height="193" xlink:href="A8CD850C56C98382.png"  transform="matrix(1 0 0 1 349 347)">
				</image>
				<image width="145" height="199" xlink:href="A8CD850C56C98381.png"  transform="matrix(1 0 0 1 353 344)">
				</image>
			</g>
		</g>
	</g>
	<path fill="#FFFFFF" stroke="#000000" stroke-miterlimit="10" d="M485.1,449.9"/>
	<path fill="#F5F2F2" d="M293.1,434"/>
</g>
</svg>
