<?xml version="1.0" encoding="utf-8"?>
<!-- Generator: Adobe Illustrator 19.0.1, SVG Export Plug-In . SVG Version: 6.00 Build 0)  -->
<svg version="1.1"
	 id="svg5103" xmlns:dc="http://purl.org/dc/elements/1.1/" xmlns:rdf="http://www.w3.org/1999/02/22-rdf-syntax-ns#" xmlns:svg="http://www.w3.org/2000/svg" xmlns:cc="http://creativecommons.org/ns#"
	 xmlns="http://www.w3.org/2000/svg" xmlns:xlink="http://www.w3.org/1999/xlink" x="0px" y="0px" viewBox="-374 272 42 70"
	 style="enable-background:new -374 272 42 70;" xml:space="preserve">
<style type="text/css">
	.st0{fill:#4DEECC;}
	.st1{fill:#414344;}
	.st2{fill:url(#SVGID_1_);}
	.st3{fill:url(#SVGID_2_);}
	.st4{fill:#9037FF;}
</style>
<g id="g3451">
	<g>
		<path class="st0" d="M-334.5,315.6v-15.3H-353h-18.5v15.3c0,5.7-2.5,5.7-2.5,22.1c0,0,4.3-8.2,10.5-8.2c6.2,0,10.5,12.5,10.5,12.5
			s4.3-12.5,10.5-12.5c6.2,0,10.5,8.2,10.5,8.2C-332,321.3-334.5,321.3-334.5,315.6z M-366.4,308.2h-1.9v-5.9h1.8
			c1.9,0,3.2,1.1,3.2,3S-364.6,308.2-366.4,308.2z M-359,308.2h-3.2v-4.8h3.1v0.3h-2.8v1.8h2.2v0.3h-2.2v2h2.9V308.2z M-356.4,308.3
			c-0.7,0-1.6-0.2-1.8-1.3l0.3-0.1c0.1,0.7,0.7,1.1,1.5,1.1c0.8,0,1.3-0.3,1.3-1c0-0.9-0.9-1-1.6-1.1c-0.6-0.1-1.4-0.3-1.4-1.2
			c0-0.8,0.6-1.2,1.6-1.2c0.9,0,1.5,0.4,1.7,1.1l-0.3,0.1c-0.1-0.6-0.5-0.9-1.4-0.9c-0.8,0-1.3,0.3-1.3,0.9c0,0.7,0.6,0.9,1.4,1
			c0.6,0.1,1.6,0.3,1.6,1.4C-354.8,307.9-355.4,308.3-356.4,308.3z M-353.4,308.2h-0.3v-4.8h0.3V308.2z M-347.5,308.2h-0.3
			c0-0.7,0-0.8,0-0.8h0c-0.2,0.3-0.8,0.9-2,0.9c-1.5,0-2.5-1.1-2.5-2.5c0-1.4,1.1-2.5,2.5-2.5c0.8,0,1.8,0.4,2.2,1.4l-0.3,0.1
			c-0.2-0.5-0.9-1.2-1.9-1.2c-1.2,0-2.2,0.9-2.2,2.2c0,1.3,0.9,2.2,2.2,2.2c1,0,1.8-0.6,2-1v-0.8h-1.6v-0.3h1.9V308.2z
			 M-342.4,308.2h-0.3l-3.1-4.3h0c0,0,0,0.5,0,1.1v3.2h-0.3v-4.8h0.3l3.1,4.2h0c0,0,0-0.5,0-1.1v-3.2h0.3V308.2z M-339.1,308.3
			c-1,0-2.1-0.3-2.2-1.7l0.3-0.1c0,1.1,0.9,1.5,1.9,1.5c1,0,1.6-0.4,1.6-1.3c0-1.2-1.1-1.3-1.9-1.4c-0.8-0.2-1.9-0.4-1.9-1.6
			c0-1,0.7-1.5,1.9-1.5c1.1,0,1.8,0.4,2.1,1.4l-0.3,0.1c-0.2-0.8-0.7-1.2-1.8-1.2s-1.6,0.5-1.6,1.2c0,0.9,0.8,1.2,1.7,1.3
			c0.9,0.2,2,0.4,2,1.7C-337.1,307.8-337.9,308.3-339.1,308.3z"/>
		<path class="st0" d="M-366.5,302.6h-1.5v5.3h1.6c1.5,0,2.8-0.9,2.8-2.6C-363.6,303.5-364.8,302.6-366.5,302.6z"/>
	</g>
	<g id="g3341" transform="matrix(0.62920406,0,0,-0.63007831,16.554993,34.245137)">
		<path id="path3343" class="st1" d="M-594.4-446c0-3.9,3.2-7.1,7.1-7.1c3.9,0,7.1,3.2,7.1,7.1c0,3.9-3.2,7.1-7.1,7.1
			C-591.2-438.9-594.4-442.1-594.4-446"/>
	</g>
	<path id="path3345" class="st1" d="M-348.5,314.9h-8.9v8.4h8.9V314.9z"/>
</g>
<g>
	
		<radialGradient id="SVGID_1_" cx="-388.0766" cy="338.0279" r="2.7812" gradientTransform="matrix(-1 0 0 1 -729.0342 0)" gradientUnits="userSpaceOnUse">
		<stop  offset="0" style="stop-color:#FFB22A"/>
		<stop  offset="1" style="stop-color:#D40005"/>
	</radialGradient>
	<path class="st2" d="M-338.7,336.3c0.5,2.2,0.5,2.2,0.5,2.2s0,1.2,0,2.3c-3-1.5-3.5-1-4.5-2.3s-1.3-3.8-0.7-3.2
		C-342.7,336-338.7,336.3-338.7,336.3z"/>
	<path class="st0" d="M-340.5,329c1.5,1.7,2.7,6.2,2.9,7.5c-3.7,0.6-5.7,0.7-7.8,0.5c0.4-4.1,1.4-7.1,2-7.9
		C-341.8,329-340.4,329-340.5,329z"/>
</g>
<g>
	<radialGradient id="SVGID_2_" cx="-365.0766" cy="338.0279" r="2.7812" gradientUnits="userSpaceOnUse">
		<stop  offset="0" style="stop-color:#FFB22A"/>
		<stop  offset="1" style="stop-color:#D40005"/>
	</radialGradient>
	<path class="st3" d="M-367.3,336.3c-0.5,2.2-0.5,2.2-0.5,2.2s0,1.2,0,2.3c3-1.5,3.5-1,4.5-2.3s1.3-3.8,0.7-3.2
		C-363.3,336-367.3,336.3-367.3,336.3z"/>
	<path class="st0" d="M-365.5,329c-1.5,1.7-2.7,6.2-2.9,7.5c3.7,0.6,5.7,0.7,7.8,0.5c-0.4-4.1-1.4-7.1-2-7.9
		C-364.2,329-365.7,329-365.5,329z"/>
</g>
<rect x="-371.6" y="300.4" class="st4" width="37" height="1.1"/>
</svg>
