<?xml version="1.0" encoding="utf-8"?>
<!-- Generator: Adobe Illustrator 19.0.1, SVG Export Plug-In . SVG Version: 6.00 Build 0)  -->
<svg version="1.1"
	 id="svg5103" xmlns:dc="http://purl.org/dc/elements/1.1/" xmlns:rdf="http://www.w3.org/1999/02/22-rdf-syntax-ns#" xmlns:svg="http://www.w3.org/2000/svg" xmlns:cc="http://creativecommons.org/ns#"
	 xmlns="http://www.w3.org/2000/svg" xmlns:xlink="http://www.w3.org/1999/xlink" x="0px" y="0px" viewBox="-391 302 9 9"
	 style="enable-background:new -391 302 9 9;" xml:space="preserve">
<style type="text/css">
	.st0{fill:#B74DEF;}
	.st1{fill:#84F1D5;}
	.st2{display:none;}
	.st3{display:inline;}
</style>
<path class="st0" d="M-386.5,302c-2.5,0-4.5,2-4.5,4.5s2,4.5,4.5,4.5s4.5-2,4.5-4.5S-384,302-386.5,302z"/>
<g>
	<g>
		<path class="st1" d="M-388.8,307.2c0,0-0.7,0-0.7,0c0-0.1,0-0.1,0.1-0.2c0,0,0.6,0,0.6,0v0c0,0,0,0,0,0c0,0,0.1,0,0.1-0.1
			c0-0.1,0-0.1-0.1-0.1c0,0-0.5,0-0.5,0c0-0.1,0-0.1,0.1-0.2c0,0,0.5,0,0.5,0v0l0,0c0,0,0.1,0,0.1-0.1c0-0.1,0-0.1-0.1-0.1
			c0,0-0.6,0-0.6,0v0l0,0v0c0,0,0,0,0,0c0,0-0.2,0.7-0.2,0.8c0,0,0,0,0,0c0,0,0,0,0,0c0,0-0.2-0.6-0.2-0.8c0,0,0,0,0,0v0
			c0,0-0.6,0-0.6,0c0,0-0.1,0-0.1,0.1c0,0.1,0,0.1,0.1,0.1c0,0,0.3,0,0.5,0c0,0,0,0,0,0c0,0.1,0,0.1,0,0.2c-0.2,0-0.5,0-0.5,0
			c0,0-0.1,0-0.1,0.1c0,0.1,0,0.1,0.1,0.1c0,0,0.4,0,0.5,0c0,0,0,0,0,0c0,0.1,0,0.1,0.1,0.2l-0.7,0c0,0-0.1,0-0.1,0.1
			c0,0.1,0,0.1,0.1,0.1c0,0,1.7,0,1.7,0v0c0,0,0,0,0,0c0,0,0.1,0,0.1-0.1C-388.7,307.2-388.8,307.2-388.8,307.2z"/>
		<path class="st1" d="M-382.5,307.2c0,0-0.7,0-0.7,0c0-0.1,0-0.1,0.1-0.2c0,0,0.6,0,0.6,0v0c0,0,0,0,0,0c0,0,0.1,0,0.1-0.1
			s0-0.1-0.1-0.1c0,0-0.5,0-0.5,0c0-0.1,0-0.1,0.1-0.2c0,0,0.5,0,0.5,0v0l0,0c0,0,0.1,0,0.1-0.1c0-0.1,0-0.1-0.1-0.1
			c0,0-0.6,0-0.6,0v0l0,0v0c0,0,0,0,0,0c0,0-0.2,0.7-0.2,0.8c0,0,0,0,0,0c0,0,0,0,0,0c0,0-0.2-0.6-0.2-0.8c0,0,0,0,0,0v0
			c0,0-0.6,0-0.6,0c0,0-0.1,0-0.1,0.1c0,0.1,0,0.1,0.1,0.1c0,0,0.3,0,0.5,0c0,0,0,0,0,0c0,0.1,0,0.1,0,0.2c-0.2,0-0.5,0-0.5,0
			c0,0-0.1,0-0.1,0.1c0,0.1,0,0.1,0.1,0.1c0,0,0.4,0,0.5,0c0,0,0,0,0,0c0,0.1,0,0.1,0.1,0.2l-0.7,0c0,0-0.1,0-0.1,0.1
			c0,0.1,0,0.1,0.1,0.1c0,0,1.7,0,1.7,0v0c0,0,0,0,0,0c0,0,0.1,0,0.1-0.1C-382.4,307.2-382.4,307.2-382.5,307.2z"/>
		<path class="st1" d="M-386.7,307.2c0,0-0.7,0-0.7,0c0-0.1,0-0.1,0.1-0.2c0,0,0.6,0,0.6,0v0c0,0,0,0,0,0c0,0,0.1,0,0.1-0.1
			c0-0.1,0-0.1-0.1-0.1c0,0-0.5,0-0.5,0c0-0.1,0-0.1,0.1-0.2c0,0,0.5,0,0.5,0v0l0,0c0,0,0.1,0,0.1-0.1c0-0.1,0-0.1-0.1-0.1
			c0,0-0.6,0-0.6,0v0l0,0v0c0,0,0,0,0,0c0,0-0.2,0.7-0.2,0.8c0,0,0,0,0,0c0,0,0,0,0,0c0,0-0.2-0.6-0.2-0.8c0,0,0,0,0,0v0
			c0,0-0.6,0-0.6,0c0,0-0.1,0-0.1,0.1c0,0.1,0,0.1,0.1,0.1c0,0,0.3,0,0.5,0c0,0,0,0,0,0c0,0.1,0,0.1,0,0.2c-0.2,0-0.5,0-0.5,0
			c0,0-0.1,0-0.1,0.1c0,0.1,0,0.1,0.1,0.1c0,0,0.4,0,0.5,0c0,0,0,0,0,0c0,0.1,0,0.1,0.1,0.2l-0.7,0c0,0-0.1,0-0.1,0.1
			c0,0.1,0,0.1,0.1,0.1c0,0,1.7,0,1.7,0v0c0,0,0,0,0,0c0,0,0.1,0,0.1-0.1C-386.6,307.2-386.6,307.2-386.7,307.2z"/>
		<path class="st1" d="M-384.6,307.2c0,0-0.7,0-0.7,0c0-0.1,0-0.1,0.1-0.2c0,0,0.6,0,0.6,0v0c0,0,0,0,0,0c0,0,0.1,0,0.1-0.1
			c0-0.1,0-0.1-0.1-0.1c0,0-0.5,0-0.5,0c0-0.1,0-0.1,0.1-0.2c0,0,0.5,0,0.5,0v0l0,0c0,0,0.1,0,0.1-0.1c0-0.1,0-0.1-0.1-0.1
			c0,0-0.6,0-0.6,0v0l0,0v0c0,0,0,0,0,0c0,0-0.2,0.7-0.2,0.8c0,0,0,0,0,0c0,0,0,0,0,0c0,0-0.2-0.6-0.2-0.8c0,0,0,0,0,0v0
			c0,0-0.6,0-0.6,0c0,0-0.1,0-0.1,0.1c0,0.1,0,0.1,0.1,0.1c0,0,0.3,0,0.5,0c0,0,0,0,0,0c0,0.1,0,0.1,0,0.2c-0.2,0-0.5,0-0.5,0
			c0,0-0.1,0-0.1,0.1c0,0.1,0,0.1,0.1,0.1c0,0,0.4,0,0.5,0c0,0,0,0,0,0c0,0.1,0,0.1,0.1,0.2l-0.7,0c0,0-0.1,0-0.1,0.1
			c0,0.1,0,0.1,0.1,0.1c0,0,1.7,0,1.7,0v0c0,0,0,0,0,0c0,0,0.1,0,0.1-0.1C-384.5,307.2-384.5,307.2-384.6,307.2z"/>
	</g>
	<g class="st2">
		<g class="st3">
			<path class="st1" d="M-389.3,305.7c0,0-0.3,0-0.3,0c0,0,0-0.1,0-0.1C-389.5,305.7-389.3,305.7-389.3,305.7L-389.3,305.7
				C-389.3,305.7-389.3,305.7-389.3,305.7c0-0.1,0-0.1,0-0.1c0,0,0,0,0,0c0,0-0.2,0-0.2,0c0,0,0,0,0-0.1c0,0,0.2,0,0.2,0v0l0,0
				c0,0,0,0,0,0c0,0,0,0,0,0c0,0-0.3,0-0.3,0v0l0,0v0c0,0,0,0,0,0c0,0-0.1,0.3-0.1,0.3c0,0,0,0,0,0c0,0,0,0,0,0c0,0-0.1-0.3-0.1-0.3
				c0,0,0,0,0,0v0c0,0-0.3,0-0.3,0c0,0,0,0,0,0s0,0,0,0c0,0,0.1,0,0.2,0c0,0,0,0,0,0c0,0,0,0,0,0.1c-0.1,0-0.2,0-0.2,0c0,0,0,0,0,0
				c0,0,0,0,0,0c0,0,0.2,0,0.2,0c0,0,0,0,0,0c0,0,0,0.1,0,0.1l-0.3,0c0,0,0,0,0,0c0,0,0,0,0,0C-389.9,305.8-389.3,305.8-389.3,305.7
				L-389.3,305.7C-389.3,305.8-389.3,305.8-389.3,305.7C-389.2,305.8-389.2,305.8-389.3,305.7C-389.2,305.7-389.2,305.7-389.3,305.7
				z"/>
			<path class="st1" d="M-386.7,305.7c0,0-0.3,0-0.3,0c0,0,0-0.1,0-0.1C-386.9,305.7-386.7,305.7-386.7,305.7L-386.7,305.7
				C-386.7,305.7-386.7,305.7-386.7,305.7c0-0.1,0-0.1,0-0.1s0,0,0,0c0,0-0.2,0-0.2,0c0,0,0,0,0-0.1c0,0,0.2,0,0.2,0v0l0,0
				c0,0,0,0,0,0c0,0,0,0,0,0c0,0-0.3,0-0.3,0v0l0,0v0c0,0,0,0,0,0c0,0-0.1,0.3-0.1,0.3c0,0,0,0,0,0c0,0,0,0,0,0c0,0-0.1-0.3-0.1-0.3
				c0,0,0,0,0,0v0c0,0-0.3,0-0.3,0c0,0,0,0,0,0c0,0,0,0,0,0c0,0,0.1,0,0.2,0c0,0,0,0,0,0c0,0,0,0,0,0.1c-0.1,0-0.2,0-0.2,0
				c0,0,0,0,0,0c0,0,0,0,0,0c0,0,0.2,0,0.2,0c0,0,0,0,0,0c0,0,0,0.1,0,0.1l-0.3,0c0,0,0,0,0,0c0,0,0,0,0,0
				C-387.3,305.8-386.7,305.8-386.7,305.7L-386.7,305.7C-386.7,305.8-386.7,305.8-386.7,305.7C-386.6,305.8-386.6,305.8-386.7,305.7
				C-386.6,305.8-386.6,305.7-386.7,305.7z"/>
			<path class="st1" d="M-388.4,305.7c0,0-0.3,0-0.3,0c0,0,0-0.1,0-0.1C-388.6,305.7-388.4,305.7-388.4,305.7L-388.4,305.7
				C-388.4,305.7-388.4,305.7-388.4,305.7c0-0.1,0-0.1,0-0.1s0,0,0,0c0,0-0.2,0-0.2,0c0,0,0,0,0-0.1c0,0,0.2,0,0.2,0v0l0,0
				c0,0,0,0,0,0c0,0,0,0,0,0c0,0-0.3,0-0.3,0v0l0,0v0c0,0,0,0,0,0c0,0-0.1,0.3-0.1,0.3c0,0,0,0,0,0c0,0,0,0,0,0c0,0-0.1-0.3-0.1-0.3
				c0,0,0,0,0,0v0c0,0-0.3,0-0.3,0c0,0,0,0,0,0c0,0,0,0,0,0c0,0,0.1,0,0.2,0c0,0,0,0,0,0c0,0,0,0,0,0.1c-0.1,0-0.2,0-0.2,0
				c0,0,0,0,0,0c0,0,0,0,0,0c0,0,0.2,0,0.2,0c0,0,0,0,0,0c0,0,0,0.1,0,0.1l-0.3,0c0,0,0,0,0,0c0,0,0,0,0,0
				C-389.1,305.8-388.4,305.8-388.4,305.7L-388.4,305.7C-388.4,305.8-388.4,305.8-388.4,305.7C-388.4,305.8-388.4,305.8-388.4,305.7
				C-388.4,305.8-388.4,305.7-388.4,305.7z"/>
			<path class="st1" d="M-387.5,305.7c0,0-0.3,0-0.3,0c0,0,0-0.1,0-0.1C-387.8,305.6-387.5,305.6-387.5,305.7L-387.5,305.7
				C-387.5,305.6-387.5,305.6-387.5,305.7c0-0.1,0-0.1,0-0.1c0,0,0,0,0,0c0,0-0.2,0-0.2,0c0,0,0,0,0-0.1c0,0,0.2,0,0.2,0v0l0,0
				c0,0,0,0,0,0c0,0,0,0,0,0c0,0-0.3,0-0.3,0v0l0,0v0c0,0,0,0,0,0c0,0-0.1,0.3-0.1,0.3c0,0,0,0,0,0c0,0,0,0,0,0c0,0-0.1-0.3-0.1-0.3
				c0,0,0,0,0,0v0c0,0-0.3,0-0.3,0c0,0,0,0,0,0s0,0,0,0c0,0,0.1,0,0.2,0c0,0,0,0,0,0c0,0,0,0,0,0.1c-0.1,0-0.2,0-0.2,0c0,0,0,0,0,0
				c0,0,0,0,0,0c0,0,0.2,0,0.2,0c0,0,0,0,0,0c0,0,0,0.1,0,0.1l-0.3,0c0,0,0,0,0,0s0,0,0,0C-388.2,305.8-387.5,305.8-387.5,305.7
				L-387.5,305.7C-387.5,305.8-387.5,305.8-387.5,305.7C-387.5,305.8-387.5,305.8-387.5,305.7C-387.5,305.7-387.5,305.7-387.5,305.7
				z"/>
		</g>
		<g class="st3">
			<path class="st1" d="M-385.7,305.7c0,0-0.3,0-0.3,0c0,0,0-0.1,0-0.1C-385.9,305.6-385.7,305.6-385.7,305.7L-385.7,305.7
				C-385.7,305.6-385.7,305.6-385.7,305.7c0-0.1,0-0.1,0-0.1c0,0,0,0,0,0c0,0-0.2,0-0.2,0c0,0,0,0,0-0.1c0,0,0.2,0,0.2,0v0l0,0
				c0,0,0,0,0,0s0,0,0,0c0,0-0.3,0-0.3,0v0l0,0v0c0,0,0,0,0,0c0,0-0.1,0.3-0.1,0.3c0,0,0,0,0,0c0,0,0,0,0,0c0,0-0.1-0.3-0.1-0.3
				c0,0,0,0,0,0v0c0,0-0.3,0-0.3,0c0,0,0,0,0,0c0,0,0,0,0,0c0,0,0.1,0,0.2,0c0,0,0,0,0,0c0,0,0,0,0,0.1c-0.1,0-0.2,0-0.2,0
				c0,0,0,0,0,0c0,0,0,0,0,0c0,0,0.2,0,0.2,0c0,0,0,0,0,0c0,0,0,0.1,0,0.1l-0.3,0c0,0,0,0,0,0s0,0,0,0
				C-386.3,305.8-385.7,305.8-385.7,305.7L-385.7,305.7C-385.7,305.8-385.7,305.8-385.7,305.7C-385.6,305.8-385.6,305.8-385.7,305.7
				C-385.6,305.7-385.6,305.7-385.7,305.7z"/>
			<path class="st1" d="M-383.1,305.7c0,0-0.3,0-0.3,0c0,0,0-0.1,0-0.1C-383.3,305.6-383.1,305.6-383.1,305.7L-383.1,305.7
				C-383.1,305.6-383.1,305.6-383.1,305.7c0-0.1,0-0.1,0-0.1c0,0,0,0,0,0c0,0-0.2,0-0.2,0c0,0,0,0,0-0.1c0,0,0.2,0,0.2,0v0l0,0
				c0,0,0,0,0,0c0,0,0,0,0,0c0,0-0.3,0-0.3,0v0l0,0v0c0,0,0,0,0,0c0,0-0.1,0.3-0.1,0.3c0,0,0,0,0,0c0,0,0,0,0,0c0,0-0.1-0.3-0.1-0.3
				c0,0,0,0,0,0v0c0,0-0.3,0-0.3,0c0,0,0,0,0,0s0,0,0,0c0,0,0.1,0,0.2,0c0,0,0,0,0,0c0,0,0,0,0,0.1c-0.1,0-0.2,0-0.2,0c0,0,0,0,0,0
				c0,0,0,0,0,0c0,0,0.2,0,0.2,0c0,0,0,0,0,0c0,0,0,0.1,0,0.1l-0.3,0c0,0,0,0,0,0s0,0,0,0C-383.7,305.8-383.1,305.8-383.1,305.7
				L-383.1,305.7C-383.1,305.8-383.1,305.8-383.1,305.7C-383,305.8-383,305.8-383.1,305.7C-383,305.7-383,305.7-383.1,305.7z"/>
			<path class="st1" d="M-384.8,305.7c0,0-0.3,0-0.3,0c0,0,0-0.1,0-0.1C-385,305.6-384.8,305.6-384.8,305.7L-384.8,305.7
				C-384.8,305.6-384.8,305.6-384.8,305.7c0-0.1,0-0.1,0-0.1c0,0,0,0,0,0c0,0-0.2,0-0.2,0c0,0,0,0,0-0.1c0,0,0.2,0,0.2,0v0l0,0
				c0,0,0,0,0,0c0,0,0,0,0,0c0,0-0.3,0-0.3,0v0l0,0v0c0,0,0,0,0,0c0,0-0.1,0.3-0.1,0.3c0,0,0,0,0,0c0,0,0,0,0,0c0,0-0.1-0.3-0.1-0.3
				c0,0,0,0,0,0v0c0,0-0.3,0-0.3,0c0,0,0,0,0,0s0,0,0,0c0,0,0.1,0,0.2,0c0,0,0,0,0,0c0,0,0,0,0,0.1c-0.1,0-0.2,0-0.2,0c0,0,0,0,0,0
				c0,0,0,0,0,0c0,0,0.2,0,0.2,0c0,0,0,0,0,0c0,0,0,0.1,0,0.1l-0.3,0c0,0,0,0,0,0c0,0,0,0,0,0C-385.5,305.8-384.8,305.8-384.8,305.7
				L-384.8,305.7C-384.8,305.8-384.8,305.8-384.8,305.7C-384.8,305.8-384.8,305.8-384.8,305.7C-384.8,305.7-384.8,305.7-384.8,305.7
				z"/>
			<path class="st1" d="M-383.9,305.7c0,0-0.3,0-0.3,0c0,0,0-0.1,0-0.1C-384.2,305.6-383.9,305.6-383.9,305.7L-383.9,305.7
				C-383.9,305.6-383.9,305.6-383.9,305.7c0-0.1,0-0.1,0-0.1c0,0,0,0,0,0c0,0-0.2,0-0.2,0c0,0,0,0,0-0.1c0,0,0.2,0,0.2,0v0l0,0
				c0,0,0,0,0,0s0,0,0,0c0,0-0.3,0-0.3,0v0l0,0v0c0,0,0,0,0,0c0,0-0.1,0.3-0.1,0.3c0,0,0,0,0,0c0,0,0,0,0,0c0,0-0.1-0.3-0.1-0.3
				c0,0,0,0,0,0v0c0,0-0.3,0-0.3,0c0,0,0,0,0,0c0,0,0,0,0,0c0,0,0.1,0,0.2,0c0,0,0,0,0,0c0,0,0,0,0,0.1c-0.1,0-0.2,0-0.2,0
				c0,0,0,0,0,0c0,0,0,0,0,0c0,0,0.2,0,0.2,0c0,0,0,0,0,0c0,0,0,0.1,0,0.1l-0.3,0c0,0,0,0,0,0c0,0,0,0,0,0
				C-384.6,305.8-383.9,305.8-383.9,305.7L-383.9,305.7C-383.9,305.8-383.9,305.8-383.9,305.7C-383.9,305.8-383.9,305.8-383.9,305.7
				C-383.9,305.7-383.9,305.7-383.9,305.7z"/>
		</g>
	</g>
	<g class="st2">
		<g class="st3">
			<path class="st1" d="M-389.3,308.4c0,0-0.3,0-0.3,0c0,0,0-0.1,0-0.1C-389.5,308.3-389.3,308.3-389.3,308.4L-389.3,308.4
				C-389.3,308.3-389.3,308.3-389.3,308.4c0-0.1,0-0.1,0-0.1c0,0,0,0,0,0c0,0-0.2,0-0.2,0c0,0,0,0,0-0.1c0,0,0.2,0,0.2,0v0l0,0
				c0,0,0,0,0,0s0,0,0,0c0,0-0.3,0-0.3,0v0l0,0v0c0,0,0,0,0,0c0,0-0.1,0.3-0.1,0.3c0,0,0,0,0,0c0,0,0,0,0,0c0,0-0.1-0.3-0.1-0.3
				c0,0,0,0,0,0v0c0,0-0.3,0-0.3,0c0,0,0,0,0,0c0,0,0,0,0,0c0,0,0.1,0,0.2,0c0,0,0,0,0,0c0,0,0,0,0,0.1c-0.1,0-0.2,0-0.2,0
				c0,0,0,0,0,0c0,0,0,0,0,0c0,0,0.2,0,0.2,0c0,0,0,0,0,0c0,0,0,0.1,0,0.1l-0.3,0c0,0,0,0,0,0s0,0,0,0
				C-389.9,308.4-389.3,308.4-389.3,308.4L-389.3,308.4C-389.3,308.4-389.3,308.4-389.3,308.4C-389.2,308.4-389.2,308.4-389.3,308.4
				C-389.2,308.4-389.2,308.4-389.3,308.4z"/>
			<path class="st1" d="M-386.7,308.4c0,0-0.3,0-0.3,0c0,0,0-0.1,0-0.1C-386.9,308.3-386.7,308.3-386.7,308.4L-386.7,308.4
				C-386.7,308.3-386.7,308.3-386.7,308.4c0-0.1,0-0.1,0-0.1c0,0,0,0,0,0c0,0-0.2,0-0.2,0c0,0,0,0,0-0.1c0,0,0.2,0,0.2,0v0l0,0
				c0,0,0,0,0,0c0,0,0,0,0,0c0,0-0.3,0-0.3,0v0l0,0v0c0,0,0,0,0,0c0,0-0.1,0.3-0.1,0.3c0,0,0,0,0,0c0,0,0,0,0,0c0,0-0.1-0.3-0.1-0.3
				c0,0,0,0,0,0v0c0,0-0.3,0-0.3,0c0,0,0,0,0,0s0,0,0,0c0,0,0.1,0,0.2,0c0,0,0,0,0,0c0,0,0,0,0,0.1c-0.1,0-0.2,0-0.2,0c0,0,0,0,0,0
				c0,0,0,0,0,0c0,0,0.2,0,0.2,0c0,0,0,0,0,0c0,0,0,0.1,0,0.1l-0.3,0c0,0,0,0,0,0c0,0,0,0,0,0C-387.3,308.5-386.7,308.5-386.7,308.4
				L-386.7,308.4C-386.7,308.5-386.7,308.5-386.7,308.4C-386.6,308.5-386.6,308.4-386.7,308.4C-386.6,308.4-386.6,308.4-386.7,308.4
				z"/>
			<path class="st1" d="M-388.4,308.4c0,0-0.3,0-0.3,0c0,0,0-0.1,0-0.1C-388.6,308.3-388.4,308.3-388.4,308.4L-388.4,308.4
				C-388.4,308.3-388.4,308.3-388.4,308.4c0-0.1,0-0.1,0-0.1c0,0,0,0,0,0c0,0-0.2,0-0.2,0c0,0,0,0,0-0.1c0,0,0.2,0,0.2,0v0l0,0
				c0,0,0,0,0,0c0,0,0,0,0,0c0,0-0.3,0-0.3,0v0l0,0v0c0,0,0,0,0,0c0,0-0.1,0.3-0.1,0.3c0,0,0,0,0,0c0,0,0,0,0,0c0,0-0.1-0.3-0.1-0.3
				c0,0,0,0,0,0v0c0,0-0.3,0-0.3,0c0,0,0,0,0,0s0,0,0,0c0,0,0.1,0,0.2,0c0,0,0,0,0,0c0,0,0,0,0,0.1c-0.1,0-0.2,0-0.2,0c0,0,0,0,0,0
				c0,0,0,0,0,0c0,0,0.2,0,0.2,0c0,0,0,0,0,0c0,0,0,0.1,0,0.1l-0.3,0c0,0,0,0,0,0c0,0,0,0,0,0C-389.1,308.5-388.4,308.5-388.4,308.4
				L-388.4,308.4C-388.4,308.5-388.4,308.5-388.4,308.4C-388.4,308.5-388.4,308.4-388.4,308.4C-388.4,308.4-388.4,308.4-388.4,308.4
				z"/>
			<path class="st1" d="M-387.5,308.4c0,0-0.3,0-0.3,0c0,0,0-0.1,0-0.1C-387.8,308.3-387.5,308.3-387.5,308.4L-387.5,308.4
				C-387.5,308.3-387.5,308.3-387.5,308.4c0-0.1,0-0.1,0-0.1c0,0,0,0,0,0c0,0-0.2,0-0.2,0c0,0,0,0,0-0.1c0,0,0.2,0,0.2,0v0l0,0
				c0,0,0,0,0,0s0,0,0,0c0,0-0.3,0-0.3,0v0l0,0v0c0,0,0,0,0,0c0,0-0.1,0.3-0.1,0.3c0,0,0,0,0,0c0,0,0,0,0,0c0,0-0.1-0.3-0.1-0.3
				c0,0,0,0,0,0v0c0,0-0.3,0-0.3,0c0,0,0,0,0,0c0,0,0,0,0,0c0,0,0.1,0,0.2,0c0,0,0,0,0,0c0,0,0,0,0,0.1c-0.1,0-0.2,0-0.2,0
				c0,0,0,0,0,0c0,0,0,0,0,0c0,0,0.2,0,0.2,0c0,0,0,0,0,0c0,0,0,0.1,0,0.1l-0.3,0c0,0,0,0,0,0s0,0,0,0
				C-388.2,308.4-387.5,308.4-387.5,308.4L-387.5,308.4C-387.5,308.4-387.5,308.4-387.5,308.4C-387.5,308.4-387.5,308.4-387.5,308.4
				C-387.5,308.4-387.5,308.4-387.5,308.4z"/>
		</g>
		<g class="st3">
			<path class="st1" d="M-385.7,308.4c0,0-0.3,0-0.3,0c0,0,0-0.1,0-0.1C-385.9,308.3-385.7,308.3-385.7,308.4L-385.7,308.4
				C-385.7,308.3-385.7,308.3-385.7,308.4c0-0.1,0-0.1,0-0.1c0,0,0,0,0,0c0,0-0.2,0-0.2,0c0,0,0,0,0-0.1c0,0,0.2,0,0.2,0v0l0,0
				c0,0,0,0,0,0c0,0,0,0,0,0c0,0-0.3,0-0.3,0v0l0,0v0c0,0,0,0,0,0c0,0-0.1,0.3-0.1,0.3c0,0,0,0,0,0c0,0,0,0,0,0c0,0-0.1-0.3-0.1-0.3
				c0,0,0,0,0,0v0c0,0-0.3,0-0.3,0c0,0,0,0,0,0c0,0,0,0,0,0c0,0,0.1,0,0.2,0c0,0,0,0,0,0c0,0,0,0,0,0.1c-0.1,0-0.2,0-0.2,0
				c0,0,0,0,0,0c0,0,0,0,0,0c0,0,0.2,0,0.2,0c0,0,0,0,0,0c0,0,0,0.1,0,0.1l-0.3,0c0,0,0,0,0,0c0,0,0,0,0,0
				C-386.3,308.4-385.7,308.4-385.7,308.4L-385.7,308.4C-385.7,308.4-385.7,308.4-385.7,308.4C-385.6,308.4-385.6,308.4-385.7,308.4
				C-385.6,308.4-385.6,308.4-385.7,308.4z"/>
			<path class="st1" d="M-383.1,308.4c0,0-0.3,0-0.3,0c0,0,0-0.1,0-0.1C-383.3,308.3-383.1,308.3-383.1,308.4L-383.1,308.4
				C-383.1,308.3-383.1,308.3-383.1,308.4c0-0.1,0-0.1,0-0.1c0,0,0,0,0,0c0,0-0.2,0-0.2,0c0,0,0,0,0-0.1c0,0,0.2,0,0.2,0v0l0,0
				c0,0,0,0,0,0s0,0,0,0c0,0-0.3,0-0.3,0v0l0,0v0c0,0,0,0,0,0c0,0-0.1,0.3-0.1,0.3c0,0,0,0,0,0c0,0,0,0,0,0c0,0-0.1-0.3-0.1-0.3
				c0,0,0,0,0,0v0c0,0-0.3,0-0.3,0c0,0,0,0,0,0c0,0,0,0,0,0c0,0,0.1,0,0.2,0c0,0,0,0,0,0c0,0,0,0,0,0.1c-0.1,0-0.2,0-0.2,0
				c0,0,0,0,0,0c0,0,0,0,0,0c0,0,0.2,0,0.2,0c0,0,0,0,0,0c0,0,0,0.1,0,0.1l-0.3,0c0,0,0,0,0,0s0,0,0,0
				C-383.7,308.4-383.1,308.4-383.1,308.4L-383.1,308.4C-383.1,308.4-383.1,308.4-383.1,308.4C-383,308.4-383,308.4-383.1,308.4
				C-383,308.4-383,308.4-383.1,308.4z"/>
			<path class="st1" d="M-384.8,308.4c0,0-0.3,0-0.3,0c0,0,0-0.1,0-0.1C-385,308.3-384.8,308.3-384.8,308.4L-384.8,308.4
				C-384.8,308.3-384.8,308.3-384.8,308.4c0-0.1,0-0.1,0-0.1c0,0,0,0,0,0c0,0-0.2,0-0.2,0c0,0,0,0,0-0.1c0,0,0.2,0,0.2,0v0l0,0
				c0,0,0,0,0,0s0,0,0,0c0,0-0.3,0-0.3,0v0l0,0v0c0,0,0,0,0,0c0,0-0.1,0.3-0.1,0.3c0,0,0,0,0,0c0,0,0,0,0,0c0,0-0.1-0.3-0.1-0.3
				c0,0,0,0,0,0v0c0,0-0.3,0-0.3,0c0,0,0,0,0,0c0,0,0,0,0,0c0,0,0.1,0,0.2,0c0,0,0,0,0,0c0,0,0,0,0,0.1c-0.1,0-0.2,0-0.2,0
				c0,0,0,0,0,0c0,0,0,0,0,0c0,0,0.2,0,0.2,0c0,0,0,0,0,0c0,0,0,0.1,0,0.1l-0.3,0c0,0,0,0,0,0s0,0,0,0
				C-385.5,308.4-384.8,308.4-384.8,308.4L-384.8,308.4C-384.8,308.4-384.8,308.4-384.8,308.4C-384.8,308.4-384.8,308.4-384.8,308.4
				C-384.8,308.4-384.8,308.4-384.8,308.4z"/>
			<path class="st1" d="M-383.9,308.4c0,0-0.3,0-0.3,0c0,0,0-0.1,0-0.1C-384.2,308.3-383.9,308.3-383.9,308.4L-383.9,308.4
				C-383.9,308.3-383.9,308.3-383.9,308.4c0-0.1,0-0.1,0-0.1s0,0,0,0c0,0-0.2,0-0.2,0c0,0,0,0,0-0.1c0,0,0.2,0,0.2,0v0l0,0
				c0,0,0,0,0,0c0,0,0,0,0,0c0,0-0.3,0-0.3,0v0l0,0v0c0,0,0,0,0,0c0,0-0.1,0.3-0.1,0.3c0,0,0,0,0,0c0,0,0,0,0,0c0,0-0.1-0.3-0.1-0.3
				c0,0,0,0,0,0v0c0,0-0.3,0-0.3,0c0,0,0,0,0,0c0,0,0,0,0,0c0,0,0.1,0,0.2,0c0,0,0,0,0,0c0,0,0,0,0,0.1c-0.1,0-0.2,0-0.2,0
				c0,0,0,0,0,0c0,0,0,0,0,0c0,0,0.2,0,0.2,0c0,0,0,0,0,0c0,0,0,0.1,0,0.1l-0.3,0c0,0,0,0,0,0c0,0,0,0,0,0
				C-384.6,308.4-383.9,308.4-383.9,308.4L-383.9,308.4C-383.9,308.4-383.9,308.4-383.9,308.4C-383.9,308.4-383.9,308.4-383.9,308.4
				C-383.9,308.4-383.9,308.4-383.9,308.4z"/>
		</g>
	</g>
</g>
</svg>
