<?xml version="1.0" encoding="utf-8"?>
<!-- Generator: Adobe Illustrator 17.1.0, SVG Export Plug-In . SVG Version: 6.00 Build 0)  -->
<!DOCTYPE svg PUBLIC "-//W3C//DTD SVG 1.1//EN" "http://www.w3.org/Graphics/SVG/1.1/DTD/svg11.dtd">
<svg version="1.1" xmlns="http://www.w3.org/2000/svg" xmlns:xlink="http://www.w3.org/1999/xlink" x="0px" y="0px"
	 viewBox="0 0 240 80" enable-background="new 0 0 240 80" xml:space="preserve">
<g id="レイヤー_1" display="none">
	<g id="guides" display="inline">
	</g>
	<g id="white" display="inline">
		<g display="none">
			<g display="inline">
				<path fill="#FFFFFF" d="M50.5,105.8c1.2-1.2,1.2-2.5,1.9-4.3c1.9-6.8,5-13.7,7.5-21.2c1.2-3.2,1.8-6.9,2.5-10.6
					c2.5-1.2,4.4,1.3,6.3,2.5c0.6,6.2,1.2,12.5,1.9,18.7c2.5-3.2,3.7-6.9,5.6-10c2.6-3.7,6.3-6.8,8.1-11.9c0,0.6,0.6,0.6,1.2,0.6
					c1.2-1.2,1.2,0.6,2.5,0.6c1.2,7.5-2.5,18.1-3.7,24.9c0,0.6,0,1.2,0,1.9l-0.6,0.6c-1.3,3.8-1.3,6.3-1.9,9.4
					c0,0.6,0.6,0.6,0.6,1.2c-0.6,0-0.6,0.6-0.6,1.3c-0.6,0-0.6,1.2-1.2,1.2c-1.2,0-1.2,0-2.5,0.6c-0.7,0-0.7-0.6-1.3-0.6
					c-1.2-5.6,1.3-14.3,2.5-20.5c-3.2,4.4-4.4,10.6-8.7,13.7c-5-1.2-5-8.7-6.8-14.3c-0.6,0.6-0.6,2.5-1.3,3.7c0,0.6-0.6,1.3-1.2,1.9
					c0,1.2,0,2.5,0,3.1c-0.6,2.5-1.9,5.6-2.5,8.1c-0.6,1.8-0.6,3.1-2.5,4.3C53.1,110.7,51.2,108.9,50.5,105.8z"/>
				<path fill="#FFFFFF" d="M108,106.9c-3,1.2-5.6,3.1-8,3.7c-3.6,1.2-6.7,2.5-9.2-0.6c-0.6-6.1,2.5-8,2.5-12.9
					c-1.2-1.2-3-1.2-3-3.6c-1.2-4.9,3-5.6,5.6-7.4c1.2-4.3,1.2-8.6,0.6-11c1.2-2.5,3-4.3,5.4-5c6.2,1.3,12.3-3,19.7-1.8
					c0,0.6,0.6,1.2,0.6,2.5c0,1.2-0.6,1.2-0.6,3c-4.9,3-11.1,4.3-16.5,6.7c-0.6,1.2-0.6,1.9-0.6,3c4.3,0,9.8-4.3,14.7-1.8
					c0,0.6-0.6,0.6-0.6,1.2c1.2,1.2,0.6,1.8,1.2,3.6c-0.6,1.2-2.4,2.5-3.6,1.2c-4.9,3.1-9.8,5-15.3,7.4c-0.6,1.8-1.2,3.7-1.2,5.6
					c2.4,0,6.1-3.7,9.8-3.7h0.6c1.8-0.6,4.3-1.8,6.1-2.4c2.5-0.6,4.9-0.6,6.8,0.6c-0.6,1.2,0,1.2,0,1.8c-1.3,0-0.6,1.2-1.9,1.9
					c0,0,1.3,0.6,1.3,0c0,0,0,1.2,1.2,1.2C119,102.6,112.9,104.4,108,106.9z"/>
				<path fill="#FFFFFF" d="M157.3,86.6c0.2,0.6,0.9,1,1.2,2.2c-0.6,0.1-1,0.8-1,0.8c-2.3,0.6-5.7,1.6-7.8,3.3
					c-0.2,3.8,5.2,12.5,6.5,14.6c-1.3-0.2-0.6,0.2-1.2,0.3c0.9,1.1,0.5,1.8,0.6,2.3c-1.2,0.2-1.2,0.2-1.9-0.1c0,0-0.5,0.2-0.4,0.7
					c-0.5,0.1-1.1,0.3-1.8,0.5c-3.3-0.9-6-10.9-7.1-15c0,0,0,0-0.1-0.5c-2.1,1.1-4.9,2.5-6.4,3.6c-2.7,1.3-1.7,0.2-2.2,2.9
					c-0.4,0.8-1,0.9-1.2,2.2c-2,1.9-2,4.3-4.7,5.6l0.2,0.6c-3.3,1.5-6.2-0.2-6.8-2.5c0.6-0.2,0.5-0.7,0.5-0.7c0.2-3.8,4.4-6,6.1-9.1
					c2.4-4.2,6.4-5.3,5.9-10.1c0.6-0.2,0.2,0.6,0.4,1.1c0.5-0.2-0.4-1.1,0.8-1.4c0.1,0.6-0.4,0.8-0.8,1.4c1.1-0.3,0.9-0.8,0.8-1.4
					c-0.2-0.6,0,0,0,0c0.9-1.5,0.9-3.3,1.8-4.9c0.6,0.5-0.4,0.8-0.1,1.9c0.4-0.7,0.3-1.3,0.8-1.5c0,0,0.5-0.8,1.1-0.9
					c-0.7,2.1-1.5,3.5-2.3,5c0.7,0.5,0.4-0.7,1.7-0.5c-0.5-1.8-0.1-2.4,1.1-2.7c1.1-0.9-0.3-1.2,0.7-2c0.2,0.6,0.2,0.6,0.2,0.6
					s0.5-0.2,0.4-0.8c-0.2-0.5-0.6,0.2-0.7-0.4c-0.6,0.1,0.1,0.5-0.5,0.7c-0.4-1.1,1.2-2.2,0.9-3.3c1.1-0.4,0.6-2.6,0.9-3.4
					c-0.1-0.5-0.5,0.2-0.5,0.2l-0.2-0.6c0.6-2.6,1.2-4.6,1.9-6.6c1.2-0.4,1.1-0.9,1.6-1.1c0.6-0.1,1.5,0.9,1.9,0.1
					c0.2,0.6,0.2,0.6,0.2,0.6c1.6-1,1.8,2,2.3,1.9c0.9,5.3-1.3,10.8-0.5,16.1c1.7-0.5,3.6-0.4,4.4-1.8c0.6-0.2,0.1,0.5,0.1,0.5
					c1.2-0.3,1.8-0.5,2.6,0c0.1,0.5-1.2,0.3-0.5,0.7c0.1,0.5,1.1-0.4,1.3,0.2c0.7,0.5-0.5,0.1-1.2,0.3
					C156.2,87,156.9,86.8,157.3,86.6z M137.3,87.8c-0.1-0.6,0.8-1.5,0.6-2c0,0,0,0-0.5,0.1C137.6,86.5,136.6,87.3,137.3,87.8z
					 M141,87.4c0.2-1.3,1.8-2.3,0.9-3.3C141.4,84.8,140.8,86.8,141,87.4z M143.6,86c-0.8,1.5-1.8,2.4-1.9,4.2
					c1.1-0.3,1.7-0.5,2.1-1.2C143.7,88.5,143.9,87.2,143.6,86z M143.1,81.9c0.2,0.6-1,0.9-0.8,1.5l0.2,0.5c-0.2-0.5,1-0.9,0.5-0.1
					C143.6,83.6,143.7,81.7,143.1,81.9z"/>
				<path fill="#FFFFFF" d="M161.5,80c0-3.7,0.6-6.2,1.9-7.4c3.1-2,8.8-2.6,13.7-3.8c5-1.3,10.6-1.3,15,0c0,2.5,1.2,2.5,1.2,3.8
					c-1.2,0.6-0.6,1.2-0.6,2.5c-0.6,0-1.2-1.2-1.2,0s1.2,0,1.2,1.2c-1.9,5-8.2-0.6-11.9,2.5c-2.5,9.4-6.2,14.9-8.7,23
					c0,1.3,0,3.2,0,3.8c-1.3,1.2-1.3,3.7-2.6,3.1c-0.6,0.6,0,0.6-0.6,1.9c-0.6-1.2-1.2-0.6-1.2-2.5c-0.6-0.6-0.6,1.2-1.2,0.6
					c0-0.6-0.6-1.9-0.6-2.5c-0.6-11.2,3.7-15,5-23.1C167.7,83.7,162.7,85.5,161.5,80z"/>
			</g>
			<g display="inline">
				<g>
					<path fill="#FFFFFF" d="M101.5,71.1v35.2h5.2v0.4H84.8v-0.4H90V72l-12.3,34.7h-0.5c-0.7,0-1.5-0.6-2.3-1.7
						c-0.8-1.2-1.7-2.6-2.7-4.5c-0.9-1.8-1.9-3.9-2.9-6.2c-1-2.3-2-4.6-3.1-6.9c-1-2.3-2.1-4.5-3.1-6.5c-1-2.1-2-3.8-3-5.2v28.1
						c0,0.7,0.2,1.3,0.7,1.8c0.5,0.5,1.1,0.7,1.8,0.7h3.5v0.4H53.9v-0.4h3.5c0.7,0,1.3-0.2,1.8-0.7c0.5-0.5,0.7-1.1,0.7-1.8V75.2
						c-0.3-0.4-0.6-0.7-0.9-1s-0.6-0.6-0.8-0.8c-0.9-0.6-1.7-1-2.4-1.4s-1.4-0.6-2-0.7c-0.7-0.1-1.3-0.2-1.8-0.3v-0.4h10
						c0.9,0,1.9,0.2,2.8,0.4c0.8,0.2,1.7,0.5,2.7,0.9c1,0.4,2,1,2.9,1.8c1,0.9,1.9,1.9,2.7,3.2c0.8,1.3,1.6,2.6,2.3,4.1
						c0.7,1.4,1.4,2.9,2,4.4c0.6,1.5,1.2,2.9,1.6,4.1c0.5,1.3,1,2.4,1.4,3.4c0.4,1,0.8,1.7,1.1,2L90,70.7h16.6v0.4L101.5,71.1
						L101.5,71.1z"/>
					<path fill="#FFFFFF" d="M133,82.2c1.4,0.9,2.7,2.3,3.7,4.2c1,1.9,1.5,4.1,1.5,6.8c0,2.7-0.5,5-1.5,6.9c-1,1.9-2.2,3.3-3.7,4.2
						c-1.1,0.7-2,1.3-2.8,1.6s-1.5,0.7-2.2,0.8s-1.3,0.3-2,0.3s-1.5,0.1-2.4,0.1h-0.5c-0.9,0-1.7,0-2.4-0.1c-0.7,0-1.4-0.1-2.1-0.3
						c-0.7-0.2-1.5-0.5-2.3-0.8c-0.8-0.4-1.8-0.9-2.9-1.6c-1.4-0.9-2.7-2.3-3.7-4.2c-1-1.9-1.5-4.2-1.5-6.9c0-2.7,0.5-5,1.5-6.8
						c1-1.9,2.2-3.3,3.7-4.2c1.1-0.7,2-1.3,2.8-1.6c0.8-0.4,1.5-0.7,2.2-0.8c0.7-0.2,1.3-0.3,2-0.3c0.7,0,1.5-0.1,2.4-0.1h0.8
						c0.9,0,1.7,0,2.4,0.1c0.7,0,1.3,0.1,2,0.3s1.4,0.5,2.2,0.8C131,81,131.9,81.5,133,82.2z M126.1,105.2c0.3-0.4,0.6-1.1,0.8-1.9
						c0.2-0.8,0.4-1.7,0.5-2.8c0.1-1,0.2-2.2,0.2-3.4c0-1.2,0.1-2.5,0.1-3.9s0-2.6-0.1-3.9c-0.1-1.2-0.1-2.4-0.3-3.4
						c-0.1-1-0.3-2-0.5-2.8c-0.2-0.8-0.6-1.4-0.9-1.8c-0.8-0.8-1.3-1.3-1.7-1.4c-0.4-0.1-0.7-0.2-0.9-0.2c-0.2,0-0.5,0.1-0.9,0.2
						c-0.4,0.1-1,0.6-1.7,1.4c-0.4,0.4-0.7,1-0.9,1.8c-0.2,0.8-0.4,1.7-0.6,2.8c-0.1,1-0.2,2.2-0.3,3.4c0,1.2-0.1,2.5-0.1,3.9
						s0,2.6,0.1,3.9c0,1.2,0.1,2.4,0.3,3.4c0.1,1.1,0.3,2,0.6,2.8c0.2,0.8,0.5,1.4,0.9,1.9c0.5,0.5,1,0.9,1.5,1.2
						c0.5,0.3,0.9,0.4,1.2,0.4h0.4C124.6,106.8,125.4,106.3,126.1,105.2z"/>
					<path fill="#FFFFFF" d="M173.7,106.8h-4.5c-1.7,0-3.1-0.2-4.2-0.6c-1.2-0.4-2.1-0.9-2.8-1.6c-0.7-0.7-1.2-1.5-1.5-2.4
						c-0.3-0.9-0.5-1.9-0.5-3V84.8c0-0.7-0.1-1.4-0.2-2.1c-0.2-0.7-0.4-1.3-0.8-1.8c-0.2-0.2-0.5-0.4-0.8-0.5
						c-0.3-0.1-0.6-0.1-1-0.1s-0.6,0.1-0.9,0.3c-0.3,0.2-0.5,0.4-0.8,0.7c-0.3,0.3-0.6,0.7-0.8,1.3c-0.2,0.6-0.4,1.1-0.5,1.8
						c-0.2,0.6-0.3,1.3-0.3,1.9c-0.1,0.6-0.1,1.1-0.1,1.5v18.6h3.9v0.4h-18.2v-0.4h3.9V80.5h-3.9v-0.4c1,0,2.1,0,3.5-0.1
						c1.4,0,2.7-0.1,4.1-0.2c1.4-0.1,2.7-0.2,3.9-0.3c1.2-0.1,2.2-0.3,2.9-0.5V83c0.3-0.6,0.6-1.1,0.9-1.4c0.3-0.4,0.7-0.8,1.2-1.1
						c0.8-0.7,1.7-1.2,2.6-1.5c0.9-0.3,1.9-0.5,2.9-0.5c1,0,2.1,0.1,3.3,0.3s2.2,0.6,3.1,1.1c0.9,0.6,1.6,1.4,2.1,2.4
						c0.2,0.4,0.3,0.8,0.4,1.2c0.1,0.4,0.2,0.8,0.2,1.2v15.1c0,2,0.2,3.6,0.7,4.8s1.3,1.8,2.4,1.8L173.7,106.8L173.7,106.8z"/>
					<path fill="#FFFFFF" d="M187.7,102.6c0.3,0.9,0.8,1.7,1.3,2.2c0.5,0.6,1.1,1,1.8,1.2c0.6,0.2,1.2,0.3,1.8,0.3v0.4h-5.8
						c-1.7,0-3.1-0.1-4.3-0.4s-2.1-0.7-2.8-1.2c-0.7-0.6-1.2-1.4-1.5-2.3s-0.5-2.2-0.5-3.7V98V80.5h-3.9v-0.4h1.6
						c1.4,0,2.8-0.4,4.2-1.1s2.6-1.6,3.6-2.7c1-1.1,1.9-2.2,2.5-3.4c0.6-1.2,1-2.2,1-3.1h0.5v10.3h4.5v0.4h-4.5V99
						C187.2,100.5,187.4,101.7,187.7,102.6z"/>
				</g>
				<rect x="114.2" y="73.1" fill="#FFFFFF" width="18.2" height="2.7"/>
			</g>
			<g display="inline">
				<g>
					<path fill="none" stroke="#FFFFFF" stroke-miterlimit="10" d="M93.2,98.8c0,0.8-0.5,6.3-6.4,6.3h-2.1c-5.9,0-6.4-5.5-6.4-6.3
						V78.9c0-0.8,0.5-6.3,6.4-6.3h2.1c5.9,0,6.4,5.5,6.4,6.3V98.8z M88.9,79c0-0.4-0.1-0.7-0.3-1c-0.3-0.5-0.8-1.1-1.8-1.1h-2.1
						c-1.1,0-1.5,0.5-1.9,1.1c-0.1,0.3-0.2,0.7-0.3,1v19.8c0,0.4,0.1,0.8,0.3,1.1c0.3,0.5,0.8,1,1.9,1h2.1c1,0,1.5-0.5,1.8-1
						c0.1-0.3,0.2-0.7,0.3-1.1V79z"/>
					<path fill="none" stroke="#FFFFFF" stroke-miterlimit="10" d="M96.3,73.1c0-0.1,0-0.1,0.1-0.1h9.7c2.8,0.1,4.2,1.6,4.9,3.1
						c0.4,0.9,0.6,1.8,0.7,2.9v6.8c0,0.5,0,0.9-0.2,1.4c-0.2,0.9-0.5,1.8-1.2,2.7c0,0,0,0.1,0,0.2c0.7,0.9,1,1.9,1.2,2.6
						c0.1,0.4,0.2,0.8,0.2,1.2v9.3c0,0.1,0,0.1,0.1,0.2l0.3,0.3c0,0,0.1,0.1,0.1,0.2v0.8c0,0.1,0,0.1-0.1,0.1h-4.5
						c-0.1,0-0.1,0-0.1-0.1V93.9c0-0.4-0.1-0.7-0.3-1c-0.3-0.5-0.8-1.1-1.9-1.1h-2.1h-2c-0.1,0-0.1,0-0.1,0.1v11.3
						c0,0,0,0.1,0.1,0.2l0.3,0.3c0.1,0,0.1,0.1,0.1,0.2v0.8c0,0.1,0,0.1-0.1,0.1h-5.1c-0.1,0-0.1,0-0.1-0.1v-0.8c0,0,0-0.1,0.1-0.2
						l0.3-0.3c0.1,0,0.1-0.1,0.1-0.2V74.6c0-0.1,0-0.2-0.1-0.2l-0.3-0.2c0,0-0.1-0.1-0.1-0.2C96.3,73.9,96.3,73.1,96.3,73.1z
						 M105.4,87.8c1,0,1.5-0.5,1.9-1c0.1-0.3,0.2-0.7,0.3-1.1v-7.3c0-0.2-0.1-0.4-0.2-0.6c-0.2-0.3-0.5-0.6-1.4-0.6h-4.6
						c-0.1,0-0.1,0-0.1,0.1v10.4c0,0.1,0,0.1,0.1,0.1h2H105.4z"/>
					<path fill="none" stroke="#FFFFFF" stroke-miterlimit="10" d="M115,78.8c0.1-1.1,0.7-6.1,6.4-6.1h2.1c6,0,6.4,5.5,6.4,6.3v4.9
						c0,0.1,0,0.1-0.1,0.1h-4.1h-0.4c-0.1,0-0.1,0-0.1-0.1V83c0-0.1,0-0.2,0.1-0.2l0.3-0.2c0,0,0.1-0.1,0.1-0.2V79
						c0-0.4-0.1-0.7-0.3-1c-0.3-0.5-0.8-1.1-1.9-1.1h-2.1c-1.1,0-1.5,0.5-1.9,1.1c-0.1,0.3-0.2,0.7-0.3,1v19.8
						c0,0.4,0.1,0.8,0.3,1.1c0.3,0.5,0.8,1,1.9,1h2.1c1,0,1.5-0.5,1.9-1c0.1-0.3,0.2-0.7,0.3-1.1v-6.4c0-0.1,0-0.2-0.1-0.2l-0.4-0.6
						c0-0.1-0.1-0.2-0.1-0.3v-1c0-0.1,0-0.2,0.1-0.1l0.4,0.2l4.1,2c0.1,0,0.1,0.1,0.1,0.2v6.4v0.3c-0.1,1.5-1,6-6.4,6h-2.1
						c-5.6,0-6.2-5-6.4-6.1V78.8z"/>
					<path fill="none" stroke="#FFFFFF" stroke-miterlimit="10" d="M143.9,73.1c0-0.1,0-0.1,0.1-0.1h5.1c0.1,0,0.1,0,0.1,0.1v0.8
						c0,0.1,0,0.2-0.1,0.2l-0.3,0.2c-0.1,0-0.1,0.1-0.1,0.2v28.6c0,0.1,0,0.2,0.1,0.2l0.3,0.2c0,0,0.1,0.1,0.1,0.2v0.8
						c0,0.1,0,0.1-0.1,0.1H144c-0.1,0-0.1,0-0.1-0.1v-0.8c0-0.1,0-0.2,0.1-0.2l0.3-0.2c0,0,0.1-0.1,0.1-0.2V89.8
						c0-0.1,0-0.1-0.1-0.1h-6.1c-0.1,0-0.1,0-0.1,0.1v13.4c0,0.1,0,0.2,0.1,0.2l0.3,0.2c0.1,0,0.1,0.1,0.1,0.2v0.8
						c0,0.1,0,0.1-0.1,0.1h-5.1c-0.1,0-0.1,0-0.1-0.1v-0.8c0-0.1,0-0.2,0.1-0.2l0.3-0.2c0.1,0,0.1-0.1,0.1-0.2V74.6
						c0-0.1,0-0.2-0.1-0.2l-0.3-0.2c0,0-0.1-0.1-0.1-0.2v-0.8c0-0.1,0-0.1,0.1-0.1h5.1c0.1,0,0.1,0,0.1,0.1v0.8c0,0.1,0,0.2-0.1,0.2
						l-0.3,0.2c0,0-0.1,0.1-0.1,0.2v11c0,0.1,0,0.1,0.1,0.1h6.1c0.1,0,0.1,0,0.1-0.1v-11c0-0.1,0-0.2-0.1-0.2l-0.3-0.2
						c-0.1,0-0.1-0.1-0.1-0.2V73.1z"/>
					<path fill="none" stroke="#FFFFFF" stroke-miterlimit="10" d="M169.1,104.7c0,0.1,0,0.1-0.1,0.1h-5.6c-0.1,0-0.1,0-0.1-0.1
						v-0.8c0-0.1,0-0.2,0.1-0.2l0.5-0.5c0,0,0.1-0.1,0.1-0.2l-0.6-2.9c0-0.1,0-0.1-0.1-0.1H157c-0.1,0-0.1,0-0.1,0.1l-0.6,2.9
						c0,0.1,0,0.2,0.1,0.2l0.5,0.5c0,0,0.1,0.1,0.1,0.2v0.8c0,0.1,0,0.1-0.1,0.1h-5.6c-0.1,0-0.1,0-0.1-0.1v-0.8c0,0,0-0.1,0.1-0.2
						l0.7-0.5c0,0,0.1-0.1,0.1-0.2l6-29.8c0-0.1,0-0.1,0.1-0.1h4c0.1,0,0.1,0,0.1,0.1l6,29.8c0,0,0,0.1,0.1,0.2l0.7,0.5
						c0,0.1,0.1,0.2,0.1,0.2L169.1,104.7L169.1,104.7z M157.6,96.3c0,0,0,0.1,0.1,0.1h4.8c0.1,0,0.1,0,0.1-0.1l-2.5-12.6
						c0,0,0,0-0.1,0L157.6,96.3z"/>
				</g>
				<rect x="61.5" y="64.2" fill="none" stroke="#FFFFFF" stroke-miterlimit="10" width="123.3" height="49.3"/>
			</g>
			<g display="inline">
				<path fill="#FFFFFF" d="M71.7,87.7c5.1,1.7,4.9,6.6,4.9,6.6c0,8.9-9.1,9.3-11.2,9.3H55c-0.3,0-0.5-0.2-0.5-0.4V72.1
					c0-0.2,0.2-0.4,0.5-0.4h10.4c0,0,10.8-0.2,10.8,9.1C76.1,84.6,74.1,86.7,71.7,87.7z M60.6,84.7h4.8c0,0,4.7,0,4.7-3.5
					c0-3.8-4.7-3.8-4.7-3.8h-4.8V84.7z M70.5,94.2c0-3.8-5.1-3.5-5.1-3.5h-4.8v7.1h4.8C67.3,97.8,70.5,97.2,70.5,94.2z"/>
				<path fill="#FFFFFF" d="M79.3,103.6c-0.4,0-0.5-0.2-0.4-0.5l12.4-32c0.1-0.3,0.7-0.3,0.8,0l12.4,32c0.1,0.3,0,0.5-0.4,0.5H79.3
					L79.3,103.6z"/>
				<path fill="#FFFFFF" d="M132.3,111.9c-0.1,0-0.4-0.1-0.4-0.2l-15.6-21.1H114v12.6c0,0.2-0.2,0.4-0.5,0.4h-5.2
					c-0.3,0-0.5-0.2-0.5-0.4V85.1c0-0.2,0.2-0.4,0.5-0.4h4.2c-1.5-2.4-3.1-5-4.7-7.4v-5.2c0-0.2,0.2-0.4,0.5-0.4h10.4
					c0,0,10.8,0,10.8,9.4c0,5.6-3.6,7.8-6.7,8.8l15.8,21.5c0.2,0.3,0,0.5-0.3,0.5H132.3L132.3,111.9z M119.4,84.7
					c1.7,0,4.1-0.8,4.1-3.5c0-3.5-3.7-3.5-4.7-3.5h-3.8L119.4,84.7z"/>
				<path fill="#FFFFFF" d="M134.8,83.2c0-6.5,5.4-11.9,12-11.9c6.6,0,12,5.4,12,11.9c0,6.6-5.4,11.9-12,11.9
					C140.2,95.1,134.8,89.8,134.8,83.2z M157.4,103.2c0,0.2-0.2,0.4-0.5,0.4h-20.5c-0.3,0-0.5-0.2-0.5-0.4v-5.1
					c0-0.2,0.2-0.4,0.5-0.4h20.5c0.3,0,0.5,0.2,0.5,0.4L157.4,103.2L157.4,103.2z M140.8,83.2c0,3.4,2.7,6.1,6,6.1
					c3.3,0,6-2.6,6-6.1c0-3.4-2.6-6.1-6-6.1C143.5,77.2,140.8,79.8,140.8,83.2z"/>
				<path fill="#FFFFFF" d="M191.6,103.2c0,0.2-0.2,0.4-0.5,0.4H186c-0.1,0-0.3,0-0.4-0.1l-14.7-21v20.8c0,0.2-0.2,0.4-0.5,0.4h-5.2
					c-0.2,0-0.4-0.2-0.4-0.4V72.1c0-0.2,0.2-0.4,0.4-0.4h5.3c0.1,0,0.3,0,0.4,0.1l14.7,21V72.1c0-0.2,0.2-0.4,0.5-0.4h5.1
					c0.3,0,0.5,0.2,0.5,0.4L191.6,103.2L191.6,103.2z"/>
			</g>
			<g display="inline">
				<path fill="#FFFFFF" d="M89.6,97.6c-1.7,2.7-5.2,5.8-7.9,4.4c-2-1,0.7-6.2,1.8-8.2c1-2.1,5-7.5,7.7-6.4s-1.2,9.1-10.2,8.4
					c-0.3,0.3,0,0.7,0,0.7s6.5,0.9,10.3-3.8c3.8-4.7,0.9-6.1,0.2-6.5c-0.7-0.4-8.2-0.5-12,6.8c-2.2,4.3-0.6,9,1.9,9.7
					c1.8,0.6,5.3,0.6,8.7-4.7c0,0,0.1-0.3-0.1-0.4C89.8,97.4,89.6,97.6,89.6,97.6z"/>
				<path fill="#FFFFFF" d="M100.2,90.8c-0.3,1.6-13.6,27.6-13.6,27.6c-0.1,0.2-0.3,0.3-0.5,0.2c-0.2-0.1-2.3-2.8-2.4-3.2
					c-0.1-0.4,0-0.7,0.1-0.8c0-0.1,12.7-25.7,12.9-26.2c0.4-1,0.3-2-0.2-2.9c0,0-0.1-0.4,0.3-0.4C97.2,85.1,100.7,87.8,100.2,90.8z"
					/>
				<path fill="#FFFFFF" d="M95.7,98.5c0,0,8.1-11.4,11.9-12.4c3.7-1,3.9,2,4,2.4c0.1,0.4,0.6,3.2-1.8,7.6c-2.4,4.4-7.6,9-10.8,7.8
					c-3-1.2,0.8-5,2.6-6.4c1.5-1.2,4.4-2.2,7-2.7c4.1-0.8,9.5-2.2,12.3-4c2.1-1.3,3.1-4,2-4.4c-0.9-0.3-3.8,2.2-5.4,5
					c-2.6,4.6-3.5,7.8-2.1,7.8c1.4,0.1,7.9-5,8.4-5.8l0.2,0.7c0,0-6.5,5.7-8.8,6.2c-2.2,0.5-3-2.2-3.1-4c-0.1-1.9,1.4-6,3.8-8.2
					c3-2.8,5.9-3,7-2.7c2.3,0.7,0.9,4.3-1.5,5.8c-2.1,1.3-6.1,2.9-12.8,4.2c-2.2,0.4-4.9,1.3-6.6,2.6c-1.6,1.3-3.8,4.2-2.7,4.6
					c1.2,0.4,12.1-14.3,8.6-15.1c-3.2-0.8-12.7,13.3-12.7,13.3L95.7,98.5z"/>
				<path fill="#FFFFFF" d="M92.3,78.8c0,0-1.4-1.1,0.4-1.7c0,0,12.6-4.2,29.7-3.8c17.1,0.5,20.2,4,31.4,3.6
					c11.1-0.4,16.4-2,18.8-2.9c0,0,1-0.3,0.5,0.1c0,0-7.8,4.1-19.3,4.6c-11.5,0.5-20.7-1.7-32.3-1.4c-11.6,0.3-19.5,2.8-23.8,4.5
					c0,0-1,0.5-1.6,0.1C95.3,81.6,92.3,78.8,92.3,78.8z"/>
				<path fill="#FFFFFF" d="M138.4,61.1c0,0,3.5,3.1,3.2,5.8c-0.5,3.8-19.2,33.8-17.9,34.8c1.2,1,12.1-9.7,12.1-9.7l0.2,0.8
					c0,0-9.9,10.8-12.9,9.8c-3-1-0.5-7.5,1-10.6c1.5-3.1,14-26.6,14.2-28c0.2-1.4-0.1-2.1-0.2-2.5C138,61.1,138.3,61,138.4,61.1z"/>
				<path fill="#FFFFFF" d="M155.3,61.4c0,0,3.5,3.1,3.2,5.8c-0.5,3.8-19.2,33.8-17.9,34.8c1.2,1,12.1-9.7,12.1-9.7l0.2,0.8
					c0,0-9.9,10.8-12.9,9.8c-3-1-0.5-7.5,1-10.6c1.5-3.1,14-26.6,14.3-28c0.2-1.4-0.1-2.1-0.2-2.5C154.9,61.5,155.2,61.3,155.3,61.4
					z"/>
				<path fill="#FFFFFF" d="M138.3,79.3c-0.1-0.1,0-0.5,0.4-0.3c0.5,0.3,3.5,3.3,3,5.6c-0.5,2.3-1.8,3.2-2.4,3
					c-0.6-0.2-0.9-1-1.4-1.4c-0.6-0.4-1.5-0.6-1.7-1.2c-0.2-0.6,0.4-1.7,1.4-2.9C138.7,80.9,138.3,79.3,138.3,79.3z"/>
				<path fill="#FFFFFF" d="M135.4,87.7c0,0,2.8,2.5,2.8,4.1c0,1.4-1.4,3.2-2.5,4.6c-0.9,1.1-2.2,3.6-1.6,3.9
					c0.9,0.5,7.4-6.7,7.4-6.7l0.2,0.4c0,0-6.5,8.4-9,7.7c-1.8-0.5-2-2.2-2-3.9c0-1.7,3.9-6.8,4.2-7.9c0.3-1.1,0.1-1.8,0.1-1.9
					C135,87.9,135,87.6,135.4,87.7z"/>
				<path fill="#FFFFFF" d="M156,80.6c0,0-0.4-1.2,0.7-0.6c1.1,0.6,3.2,3.6,3.2,5.4c0,1.8-0.8,3.5-1.7,3.5c-0.9,0-1.7-1.5-2.2-1.8
					c-0.5-0.3-2.1-0.8-2.2-1.6C153.7,83.6,156.5,82.4,156,80.6z"/>
				<path fill="#FFFFFF" d="M152.4,88.1c0,0,5.3,2.4,4.1,5.2c-1.1,2.8-5.6,8.9-5,9.3c0.6,0.4,5.3-3.5,7.7-6.7l0.3,0.4
					c0,0-6.4,8.2-9.4,7.1c-3-1-1.8-4.6-1-6.2c0.9-1.9,3.4-5.1,3.4-7c0-0.6-0.4-1.6-0.4-1.6S151.7,88.2,152.4,88.1z"/>
				<path fill="#FFFFFF" d="M170.4,91.6c0,0,0.4-3.4-2.2-3.5c-2.6-0.1-6.2,1.5-8.5,5c-2.2,3.5-3.1,8.6-0.2,9.9
					c2.9,1.2,7.5-3.4,8.7-5c1.2-1.6,2.2-4.4,1-5.2c-1.1-0.7-1.9,0-2.1,0.4c-0.2,0.4-0.5,1.5,0.5,1.9c1.1,0.4,2.2-0.3,4.5-1.8
					c2.2-1.5,2.9-2.4,3.5-2.1c0.5,0.3-5.2,9.9-5.2,10.6c0.1,1.2,1.6,4,2.1,3.8c0.5-0.2,5.4-9.4,5.9-10.5c0.4-1,0.4-4.6-1.3-5.3
					c-1.2-0.4-4.6,2.6-5.2,3c-0.6,0.4-2.8,2.2-3.7,1.8c-0.7-0.3-0.5-1-0.4-1.2c0.1-0.2,0.6-0.4,1-0.3c0.5,0.2,0.9,2.1-1,4.4
					c-1.9,2.3-5.1,4.9-6.5,4c-1.4-1,3.7-11,6.9-10.9c1.5,0,1.8,1,1.8,1S170.2,92,170.4,91.6z"/>
				<path fill="#FFFFFF" d="M176.1,98.1c0,0,7.5-9.5,9.4-8.1c0.4,0.3,2.2,2.5,1.3,4.4c-0.7,1.5-6.9,10.1-5.7,11.1
					c1.2,0.9,5.8-1,9.9-7.6c0,0,0.7-0.8,0.6,0.3c0,0-6.6,9.9-11.5,8.4c-2.7-0.9-2.6-5.3-0.6-8.6c1.8-3,4.7-6.8,4.2-7
					c-0.4-0.2-6.7,6.4-7.5,7.7L176.1,98.1z"/>
				<path fill="#FFFFFF" d="M82.2,80.3c6.6-0.9,7.9-4.5,7.9-6.9c0-2.9-2.6-4.6-5.7-5.4c-3.3-0.9-26.4-0.8-27.8-2.3
					c-1.2-1.4-0.6-2.5-0.6-2.5c0.2-0.4-0.3-0.2-0.3-0.2c-0.8,0.8-0.7,3.4,0.4,4.9c2.7,3.5,13.2,2.8,13.2,2.8
					c0.1,0.8-0.1,1.7-0.5,2.5C68.4,74,56,97.8,56,97.8c-0.3,1,0,1.4,0,1.4s2.1,3.3,2.3,3.6c0.3,0.3,0.4,0,0.4,0l11.1-22
					c1.7,1.8,2.1,4.6,2.3,6.3c0.2,1.7-0.3,12.6-0.3,12.6s-0.2,7.9,5.4,10c4.8,1.8,9.3-4.6,9.3-4.6c0.3-1.1-0.9-0.6-0.9-0.6
					c-2.1,2.6-5.3,5.7-7.7,4c-2.4-1.7-1-16.3-1.5-21.3c-0.5-5-5.6-6.9-5.6-6.9S75.5,81.3,82.2,80.3z M70.4,79.5c0,0,2-3.9,2.5-5.4
					s-0.3-3.5-0.3-3.5s7.4,0.2,10.1,0.5c2.7,0.3,6.2,0.9,5.8,4.1c-0.4,3.2-4.7,3.9-8.5,4.3C76,79.9,70.4,79.5,70.4,79.5z"/>
			</g>
			<g id="Layer_6_3_" display="inline">
				<path fill="#FFFFFF" d="M159.9,89.7c0,21.2-17.2,38.4-38.4,38.4s-38.4-17.2-38.4-38.4c0-21.2,17.2-38.4,38.4-38.4
					S159.9,68.5,159.9,89.7z M121.5,57.1c-18,0-32.6,14.6-32.6,32.6c0,18,14.6,32.6,32.6,32.6s32.6-14.6,32.6-32.6
					C154.1,71.7,139.5,57.1,121.5,57.1z"/>
				<g enable-background="new    ">
					<path fill="#FFFFFF" d="M99.4,83.6c0-4.7,2.5-7.3,7-7.3c4.5,0,7,2.7,7,7.3v15.2c0,4.7-2.5,7.3-7,7.3c-4.5,0-7-2.7-7-7.3V83.6z
						 M104,99.1c0,2.1,0.9,2.9,2.4,2.9c1.5,0,2.4-0.8,2.4-2.9V83.3c0-2.1-0.9-2.9-2.4-2.9s-2.4,0.8-2.4,2.9V99.1z"/>
					<path fill="#FFFFFF" d="M122.5,76.3c4.5,0,6.8,2.7,6.8,7.3v0.9h-4.3v-1.2c0-2.1-0.8-2.9-2.3-2.9c-1.5,0-2.3,0.8-2.3,2.9
						c0,6,9,7.1,9,15.5c0,4.7-2.3,7.3-6.8,7.3c-4.5,0-6.8-2.7-6.8-7.3V97h4.3v2.1c0,2.1,0.9,2.8,2.4,2.8c1.5,0,2.4-0.8,2.4-2.8
						c0-6-9-7.1-9-15.5C115.7,78.9,118,76.3,122.5,76.3z"/>
					<path fill="#FFFFFF" d="M130.6,76.6h14.2v4.2H140v25h-4.6v-25h-4.8V76.6z"/>
				</g>
			</g>
			<g display="inline">
				<g>
					<path fill="#FFFFFF" d="M76.6,81.4c1.9,0.8,3.4,1.9,4.5,3.4c1.1,1.5,1.7,3,1.7,4.5c0,1.4-0.2,2.7-0.7,3.9
						c-0.4,1.2-1.3,2.3-2.5,3.2c-1.2,0.9-2.9,1.7-5.1,2.2c-2.2,0.5-5,0.8-8.4,0.8c-3.5,0-6.4-0.3-8.6-0.8c-2.2-0.5-3.9-1.3-5.2-2.2
						c-1.2-0.9-2.1-2-2.5-3.2c-0.4-1.2-0.7-2.5-0.7-3.9c0-0.8,0.1-1.5,0.4-2.3c0.3-0.8,0.7-1.5,1.3-2.3c0.5-0.7,1.2-1.4,2-1.9
						c0.8-0.6,1.7-1,2.7-1.4c-1.4-0.5-2.6-1.5-3.4-2.7c-0.8-1.3-1.2-2.6-1.2-3.9c0-1.2,0.3-2.4,0.8-3.5c0.5-1.1,1.4-2.1,2.5-2.9
						c1.2-0.8,2.7-1.5,4.7-1.9c1.9-0.5,4.3-0.7,7.2-0.7s5.3,0.2,7.2,0.7c1.9,0.5,3.5,1.1,4.7,1.9c1.2,0.8,2,1.8,2.5,2.9
						c0.5,1.1,0.8,2.3,0.8,3.5c0,1.3-0.4,2.6-1.2,3.9C79.2,79.9,78.1,80.8,76.6,81.4z M66.5,66.9h-1.1v12.7h1.1V66.9z M66.5,82.2
						h-1.1v16h1.1V82.2z"/>
					<path fill="#FFFFFF" d="M119.6,80.6c-1,0.9-2.8,1.6-5.3,1.9c2.1,0.5,3.7,1.4,5,2.5c1.2,1.1,1.8,2.9,1.8,5.2
						c0,1.5-0.3,2.9-0.8,4c-0.5,1.2-1.4,2.1-2.7,2.9c-1.3,0.8-3,1.3-5.1,1.7c-2.1,0.4-4.9,0.6-8.2,0.6s-6-0.3-8.2-0.8
						c-2.2-0.5-3.9-1.2-5.1-2c-1.3-0.8-2.1-1.8-2.6-2.9c-0.5-1.1-0.7-2.3-0.7-3.5c0-1,0.2-2,0.6-2.8c0.4-0.8,1-1.6,1.6-2.2
						c0.7-0.6,1.4-1.1,2.2-1.4c0.8-0.3,1.6-0.5,2.4-0.5s1.6,0.1,2.4,0.4c0.8,0.3,1.5,0.7,2.2,1.3c0.7,0.6,1.2,1.3,1.6,2.1
						c0.4,0.8,0.6,1.8,0.6,2.9c0,1.2-0.2,2.2-0.6,3c-0.4,0.9-0.9,1.6-1.5,2.2c-0.6,0.6-1.3,1.1-2.2,1.3s-1.7,0.4-2.6,0.4
						c0.1,0,0.4,0.1,0.7,0.1c0.3,0,0.6,0.1,1,0.1c0.4,0,1,0,1.6,0c0.8,0,1.6-0.2,2.5-0.6c0.8-0.4,1.6-0.9,2.3-1.5
						c0.7-0.6,1.2-1.4,1.6-2.3c0.4-0.9,0.6-1.8,0.6-2.9c0-1.2-0.2-2.3-0.7-3.2c-0.4-0.9-1-1.6-1.7-2.1c-0.7-0.6-1.5-1-2.4-1.3
						c-0.9-0.3-1.9-0.5-2.9-0.7v-1.1h7.9c3.6,0,6.4-0.2,8.4-0.5c2-0.3,3.4-0.7,4.4-1.2c0.9-0.5,1.5-1,1.7-1.5c0.2-0.5,0.3-1,0.3-1.5
						c0,0.3-0.1,0.7-0.4,1.2c-0.3,0.4-0.9,0.9-1.9,1.2c-1,0.4-2.5,0.7-4.4,1c-1.9,0.3-4.5,0.4-7.7,0.4h-8.1c-2.1,0-3.7,0.1-4.9,0.4
						s-2.1,0.5-2.8,0.9c-0.7,0.3-1.1,0.7-1.3,1c-0.2,0.3-0.4,0.6-0.4,0.9V73c0-0.9,0.2-1.8,0.5-2.7s0.8-1.7,1.4-2.3
						c0.6-0.7,1.3-1.2,2.1-1.6c0.8-0.4,1.8-0.6,2.8-0.6c2.1,0,4.1,0.3,5.9,0.9s3.7,1.3,5.4,2c1.7,0.7,3.4,1.4,5.1,1.9
						c1.7,0.6,3.4,0.9,5.1,0.9c1.2,0,2.2-0.5,2.9-1.5c0.7-1,1.1-2.4,1.1-4.3h1.1v10.8C121.1,78.3,120.6,79.6,119.6,80.6z"/>
					<path fill="#FFFFFF" d="M143.7,80.7c-3.7,0-6.6-0.1-8.8-0.4c-2.2-0.2-3.8-0.5-5-0.9c-1.2-0.4-1.9-0.8-2.2-1.2
						c-0.3-0.4-0.5-0.8-0.5-1.1v4.4h14.9c2.4,0,4.7,0.1,6.8,0.2s3.9,0.5,5.5,1.1c1.6,0.6,2.8,1.4,3.7,2.6c0.9,1.1,1.3,2.7,1.3,4.7
						c0,1.5-0.3,2.9-0.8,4c-0.5,1.2-1.4,2.1-2.7,2.9c-1.3,0.8-3,1.3-5.1,1.7c-2.1,0.4-4.9,0.6-8.2,0.6s-6-0.3-8.2-0.8
						c-2.2-0.5-3.9-1.2-5.1-2c-1.3-0.8-2.1-1.8-2.6-2.9c-0.5-1.1-0.7-2.3-0.7-3.5c0-1,0.2-2,0.6-2.8c0.4-0.8,1-1.6,1.6-2.2
						c0.7-0.6,1.4-1.1,2.2-1.4c0.8-0.3,1.6-0.5,2.4-0.5s1.6,0.1,2.4,0.4c0.8,0.3,1.5,0.7,2.2,1.3c0.7,0.6,1.2,1.3,1.6,2.1
						c0.4,0.8,0.6,1.8,0.6,2.9c0,1.2-0.2,2.2-0.6,3c-0.4,0.9-0.9,1.6-1.5,2.2c-0.6,0.6-1.3,1.1-2.2,1.3c-0.8,0.3-1.7,0.4-2.6,0.4
						c0.1,0,0.4,0.1,0.7,0.1c0.3,0,0.6,0.1,1,0.1c0.4,0,1,0,1.6,0c0.8,0,1.6-0.2,2.5-0.6c0.8-0.4,1.6-0.9,2.3-1.5
						c0.7-0.6,1.2-1.4,1.6-2.3c0.4-0.9,0.6-1.8,0.6-2.9c0-1.1-0.3-2.2-0.9-3.1c-0.6-0.9-1.3-1.7-2.3-2.4c-0.9-0.6-2-1.1-3.3-1.5
						c-1.3-0.3-2.6-0.5-3.9-0.5h-6.8V65.8h1.1c0,1.9,0.4,3.3,1.2,4.3c0.8,1,1.8,1.5,3,1.5c1.7,0,3.4-0.3,5-0.9
						c1.7-0.6,3.4-1.2,5.1-1.9c1.7-0.7,3.5-1.4,5.3-2s3.8-0.9,5.9-0.9c1,0,2,0.2,2.8,0.6c0.8,0.4,1.6,0.9,2.2,1.6
						c0.6,0.7,1.1,1.5,1.4,2.3c0.3,0.9,0.5,1.8,0.5,2.7v11c-0.1-0.2-0.4-0.5-0.8-0.9c-0.4-0.4-1.2-0.7-2.3-1.1
						c-1.1-0.4-2.7-0.7-4.7-0.9C149.7,80.8,147.1,80.7,143.7,80.7z"/>
					<path fill="#FFFFFF" d="M181.2,65.8c3.2,0,5.9,0.4,8,1.3c2.2,0.9,3.9,2.1,5.2,3.6c1.3,1.5,2.3,3.3,2.8,5.3
						c0.6,2,0.9,4.2,0.9,6.5c0,2.4-0.2,4.6-0.7,6.6c-0.4,2.1-1.3,3.8-2.5,5.4c-1.2,1.5-3,2.7-5.2,3.6c-2.2,0.9-5.1,1.3-8.6,1.3
						c-3.5,0-6.3-0.4-8.5-1.3c-2.2-0.9-3.9-2.1-5.1-3.6c-1.2-1.5-2.1-3.3-2.5-5.4s-0.7-4.3-0.7-6.6c0-2.3,0.3-4.5,0.9-6.5
						c0.6-2,1.5-3.8,2.8-5.3c1.3-1.5,3-2.7,5.1-3.6C175.4,66.2,178,65.8,181.2,65.8z M181.8,66.9h-1.1v31.4h1.1V66.9z"/>
				</g>
				<g>
					<path fill="#FFFFFF" d="M80.5,107.8c0-0.5,0.1-1,0.2-1.4s0.4-0.8,0.7-1.1c0.3-0.3,0.6-0.5,1-0.7c0.4-0.2,0.8-0.2,1.2-0.2
						c0.4,0,0.8,0.1,1.1,0.3c0.3,0.2,0.6,0.4,0.8,0.6l-0.8,0.9c-0.2-0.2-0.3-0.3-0.5-0.4c-0.2-0.1-0.4-0.1-0.6-0.1s-0.4,0-0.6,0.1
						c-0.2,0.1-0.4,0.2-0.5,0.4c-0.1,0.2-0.3,0.4-0.3,0.7c-0.1,0.3-0.1,0.6-0.1,0.9c0,0.7,0.1,1.2,0.4,1.6s0.7,0.6,1.2,0.6
						c0.3,0,0.5-0.1,0.7-0.2c0.2-0.1,0.4-0.2,0.5-0.4l0.8,0.9c-0.3,0.3-0.6,0.6-0.9,0.7c-0.3,0.2-0.7,0.2-1.1,0.2
						c-0.4,0-0.8-0.1-1.2-0.2c-0.4-0.1-0.7-0.4-1-0.6c-0.3-0.3-0.5-0.6-0.7-1C80.5,108.8,80.5,108.3,80.5,107.8z"/>
					<path fill="#FFFFFF" d="M91.6,104.5h1.5v5.3h2.6v1.2h-4.1V104.5z"/>
					<path fill="#FFFFFF" d="M104.1,111.1c-0.4,0-0.8-0.1-1.2-0.2s-0.7-0.4-0.9-0.7c-0.3-0.3-0.5-0.6-0.6-1.1
						c-0.1-0.4-0.2-0.9-0.2-1.4c0-0.5,0.1-1,0.2-1.4c0.1-0.4,0.3-0.8,0.6-1.1c0.3-0.3,0.6-0.5,0.9-0.6s0.8-0.2,1.2-0.2
						s0.8,0.1,1.2,0.2c0.4,0.1,0.7,0.4,0.9,0.7c0.3,0.3,0.5,0.6,0.6,1.1c0.1,0.4,0.2,0.9,0.2,1.4c0,0.5-0.1,1-0.2,1.4
						s-0.3,0.8-0.6,1.1s-0.6,0.5-0.9,0.7S104.5,111.1,104.1,111.1z M104.1,109.8c0.4,0,0.8-0.2,1.1-0.6c0.3-0.4,0.4-0.9,0.4-1.6
						c0-0.7-0.1-1.2-0.4-1.5c-0.3-0.4-0.6-0.6-1.1-0.6s-0.8,0.2-1.1,0.6c-0.3,0.4-0.4,0.9-0.4,1.5c0,0.7,0.1,1.2,0.4,1.6
						S103.6,109.8,104.1,109.8z"/>
					<path fill="#FFFFFF" d="M114.3,105.7h-1.8v-1.2h5.1v1.2h-1.8v5.3h-1.5L114.3,105.7L114.3,105.7z"/>
					<path fill="#FFFFFF" d="M123.6,104.5h1.5v2.5h2.2v-2.5h1.5v6.5h-1.5v-2.7h-2.2v2.7h-1.5C123.6,111,123.6,104.5,123.6,104.5z"/>
					<path fill="#FFFFFF" d="M135.4,104.5h1.5v6.5h-1.5V104.5z"/>
					<path fill="#FFFFFF" d="M143.4,104.5h1.5l1.7,3.2l0.6,1.4h0c0-0.3-0.1-0.7-0.1-1.2s-0.1-0.8-0.1-1.2v-2.3h1.4v6.5H147l-1.7-3.2
						l-0.6-1.4h0c0,0.4,0.1,0.7,0.1,1.2c0,0.4,0.1,0.8,0.1,1.2v2.3h-1.4V104.5L143.4,104.5z"/>
					<path fill="#FFFFFF" d="M154.7,107.8c0-0.5,0.1-1,0.3-1.4s0.4-0.8,0.7-1.1c0.3-0.3,0.6-0.5,1-0.7c0.4-0.2,0.8-0.2,1.2-0.2
						c0.5,0,0.9,0.1,1.2,0.3s0.6,0.4,0.8,0.6l-0.8,0.9c-0.2-0.2-0.3-0.3-0.5-0.4c-0.2-0.1-0.4-0.1-0.7-0.1c-0.3,0-0.5,0-0.7,0.1
						c-0.2,0.1-0.4,0.2-0.5,0.4c-0.2,0.2-0.3,0.4-0.4,0.7c-0.1,0.3-0.1,0.6-0.1,0.9c0,0.7,0.2,1.2,0.5,1.6s0.8,0.6,1.4,0.6
						c0.1,0,0.3,0,0.4-0.1c0.1,0,0.2-0.1,0.3-0.1v-1.1h-1.1v-1.2h2.4v3c-0.2,0.2-0.5,0.4-0.9,0.6c-0.4,0.2-0.8,0.2-1.3,0.2
						c-0.4,0-0.9-0.1-1.2-0.2c-0.4-0.1-0.7-0.4-1-0.6c-0.3-0.3-0.5-0.6-0.7-1C154.8,108.8,154.7,108.3,154.7,107.8z"/>
				</g>
			</g>
			<g display="inline">
				<g>
					<path fill="#FFFFFF" d="M44.2,103.2c2,0,4-0.9,5.3-2.4l1.1-1.2c0,0,0.9,1.1,1.9,1.9c1.4,1.1,2.9,1.7,4.6,1.7
						c3.9,0,7.1-3.2,7.1-7.1c0-3.9-3.2-7.1-7.1-7.1c-2.1,0-4,0.9-5.4,2.5l-1.1,1.1l-1.2-1.3c-0.1-0.1-0.1-0.2-0.2-0.2l-0.5-0.4
						c-1.3-1.1-2.9-1.7-4.6-1.7c-3.9,0-7.1,3.2-7.1,7.1C37.2,100,40.3,103.2,44.2,103.2z M44.2,93.6c0.7,0,1.3,0.2,1.7,0.7l1.8,1.9
						L46,98c-0.5,0.5-1.1,0.7-1.8,0.7c-1.4,0-2.5-1.1-2.5-2.5C41.7,94.7,42.8,93.6,44.2,93.6z M55.4,94.3c0.5-0.4,1.1-0.7,1.7-0.7
						c1.4,0,2.5,1.1,2.5,2.5c0,1.4-1.1,2.5-2.5,2.5c-0.7,0-1.3-0.3-1.8-0.7l-1.7-1.8L55.4,94.3z"/>
				</g>
				<g>
					<path fill="#FFFFFF" d="M73.4,73.6h7.1v23h13.3v6.6H73.4V73.6z"/>
					<path fill="#FFFFFF" d="M103.8,73.6h7.1v29.6h-7.1V73.6z"/>
					<path fill="#FFFFFF" d="M144.7,96c0-7,0.1-10.5,0.1-10.5h-0.1c0,0-1.5,2.7-2.9,5.2l-2.9,5.2h-4l-2.9-5.1
						c-1.5-2.6-2.9-5.3-2.9-5.3H129c0,0,0.1,3.5,0.1,10.5v7.2H122V73.6h7.5l7.4,13.2h0.1l7.5-13.2h7.2v29.6h-7.1L144.7,96L144.7,96z
						"/>
					<path fill="#FFFFFF" d="M162.9,73.6h7.1v29.6h-7.1V73.6z"/>
					<path fill="#FFFFFF" d="M196.2,80.2v23h-7.1v-23h-9.1v-6.6h25.2v6.6H196.2z"/>
				</g>
				<g>
					<path fill="#FFFFFF" d="M40.3,79.2L40.3,79.2c0,0,0,1.5,0,3v4h-2.8V74.5h2.9l5,6.9h0.1c0,0,0-1.5,0-2.8v-4.1h2.8v11.8h-2.9
						L40.3,79.2z"/>
					<path fill="#FFFFFF" d="M58.3,74.2c3.6,0,6.2,2.5,6.2,6.1s-2.6,6.1-6.2,6.1s-6.2-2.5-6.2-6.1C52.1,76.8,54.7,74.2,58.3,74.2z
						 M58.3,83.8c1.9,0,3.4-1.3,3.4-3.4c0-2.1-1.4-3.5-3.4-3.5s-3.4,1.3-3.4,3.5C54.9,82.5,56.3,83.8,58.3,83.8z"/>
				</g>
			</g>
			<g display="inline">
				<path fill="#FFFFFF" d="M63.2,110.5l-16.3,0V65.8l22.7,10.6l22.5-10.7l0.2,44.7l-16.2,0l-1.3,0l-4.7-4.6c0-3.5,0-20,0-23.4h-0.6
					v23.4l-4.7,4.8L63.2,110.5z"/>
				<path fill="#FFFFFF" d="M148.4,66c0,13.2,0,26.3,0,39.4l-5.2,5h-34.4l-5.2-5c0-13.1,0-26.2,0-39.4c4.9,0,12.4,0,17.3,0l4.7,4.7
					c0,3.6,0,31.3,0,34.7h0.6V70.7L131,66C136,66,143.4,66,148.4,66z"/>
				<g>
					<path fill="#FFFFFF" d="M158.3,111c0-4.9,0-12.2,0-17.1l4.7-4.7c3.6,0,26.5,0,30,0v-0.6h-30l-4.7-4.7c0-5,0-12.4,0-17.4
						c0,0,0,14.7,0-0.1h34.6l5.3,5.2V106l-5.3,5L158.3,111"/>
				</g>
			</g>
			<g display="inline">
				<path fill="#FFFFFF" d="M79.6,83.1c0,1.4-2.6,3.6-4.9,6.4c-1.8,2.1-3.1,3.9-3.6,5c-0.5,1-0.5,1.7-0.1,2c0.4,0.3,1.2,0.2,2.3-0.4
					c1.2-0.6,3.1-1.8,4.8-3.2c2.3-1.8,3.6-2.9,5-4.2c0.7-0.7,1.4-1.1,1.6-0.9c0.3,0.3-0.4,1-1.3,1.8c-1.3,1.2-3.4,3.1-6.1,5.1
					c-2.2,1.7-6,4.3-9.5,4.3c-2.2,0-3.4-1.2-3.3-2.8c0.1-2.3,2.8-5.3,5.1-7.6c2.6-2.4,6.6-5.3,6.9-6.1c0.4-1.2-1.6-0.9-4.3-0.9
					c-1.1,0-1.9,0-2.5-0.2c-0.9,1-2.3,2.5-4.1,4c-1.8,1.7-3.1,2.9-4.3,3.9c-1,0.9-1.4,1.1-1.6,0.9c-0.2-0.2,0.1-0.7,1.2-1.7
					c1.3-1.2,2.2-2,4.2-3.8c1.5-1.4,2.9-2.8,3.7-3.7c-1-0.6-1.1-2.1,0-3.4c0.9-1.1,2.3-1.8,4-1.8c0.9,0,1.8,0.4,1.9,1.1
					c-0.7,0.5-1.2,0.9-1.8,1.5c-1.4,1.5-1.1,2.2,0.3,2.3c3,0.1,6.1,0.2,6.1,2.1C79.6,83,79.6,83.1,79.6,83.1z"/>
				<path fill="#FFFFFF" d="M88.3,98.3c2.3,0,6.6-2.9,9.9-6.5c0.1-1.1,0.5-2.7,1.9-4.5c1.2-1.6,2.7-2.5,3.4-2.8
					c0.3-0.7,0.3-1.9,0.3-2.5c0-1.2-0.4-1.5-0.1-1.7c0.4-0.2,1.1,0.2,1.5,0.6c0.9,0.9,1.5,2.1,1.3,3.7c-0.3,2.6-2.8,5.6-6.1,8.6
					c0.4,0.2,1.6,0.1,2,0c1-0.2,2.1-0.7,3.6-1.8c1.4-1,2.2-1.7,3.4-2.8c1-0.9,1.5-1.4,1.8-1.1c0.3,0.3-0.3,1-1.4,1.9
					c-1,0.9-2,1.8-3.4,2.8c-1.7,1.2-3,1.7-4,1.9c-1,0.2-2.2,0.2-2.9-0.2c-2.8,2.1-7.8,5.2-12.1,5.2c-3.3,0-5.3-1.6-5.2-4.7
					c0.1-2.1,1.4-4.7,3.4-6.8l-0.1-0.1c-0.7,0.6-1.2,1.1-1.9,1.7c-0.7,0.6-1.2,0.9-1.4,0.6c-0.2-0.3,0.3-0.9,0.7-1.3
					c0.7-0.7,2.2-1.9,3.3-2.7c1.4-1,2.9-1.9,5.1-3.1c3.1-1.6,6.4-2.8,8.8-2.9c0.7,0,1.6,0,1.6,0.4"/>
				<path fill="#FFFFFF" d="M127.2,93.9c3-1.8,5.2-3.7,7-5.3c0.5-0.4,1.1-1,1.4-0.6c0.2,0.2-0.2,0.9-1.2,1.7c-1.1,1-3.1,2.7-5.4,4.3
					c-2.3,1.6-4.7,2.8-6.7,3.6c-1.9,0.9-5.8,1.9-9,1.9c-5.6,0-6.8-3.4-6.4-6.4c0.4-3.1,2.9-5.6,5.4-5.5c1.5,0.1,2.2,1.2,2,2.3
					c-0.2,1.1-1,1.9-2.3,2.7c-1,0.5-2.3,1.7-2.4,3.2c-0.1,1.7,1.2,2.7,3.1,2.7c2.1,0,4.8-1.7,7.1-5.8c1.9-3.1,3.8-9.5,5-10.9v-0.1
					c-1.1,1.1-3.3,2.8-5.1,4c-1.5,1.1-3.2,2.1-4.1,2.6c-0.4,0.2-0.9,0.4-1.1,0.1c-0.1-0.3,0-0.5,0.5-0.9c1.1-0.6,2.8-1.7,4.5-3
					c1.9-1.4,3.8-3,6.3-5.1c0.2-0.4,1-1.3,1.7-1.8c1.2-0.9,2.3-1.2,3.1-1.2c2.5,0,0.9,1.4-0.5,2.2c-1,0.6-2,1.1-2.6,1.6
					c-0.9,0.9-0.7,1.7-0.7,2.9c0.1,3,0.3,5.8-1,8.7c-0.6,1.5-2.1,3.5-3.4,4.4C123.7,95.8,125.5,94.9,127.2,93.9z"/>
				<path fill="#FFFFFF" d="M138.4,99.4c-3.9,0-5.9-1.6-5.6-4.5c0.2-2.1,1.4-4.4,3.1-6.4l-0.1-0.1c-0.3,0.3-1.2,1.1-1.8,1.6
					c-0.6,0.5-1.2,0.9-1.4,0.6c-0.2-0.3,0.2-0.7,0.6-1.2c1.4-1.3,2.3-2,3.9-3.2c1.2-0.9,3.3-2.2,5.1-3.2c3.6-1.9,7-3.3,9.8-2.9
					c2.4,0.4,3.3,2,2.9,4c-0.4,2-2.2,3.6-3.6,3.6c-1.8,0-1.8-1.5-0.9-3.1c1.2-2,1.6-3.3,0.3-3.5c-1.2-0.2-3.6,1.4-6.6,4.5
					c-2.9,2.9-5.6,6.9-6,9.5c-0.2,1.6,0.7,2.4,2.4,2.4c1.4,0,5.1-0.6,9.8-3.8c2-1.4,4.7-3.6,6.4-5.1c0.6-0.5,1-0.6,1.2-0.4
					c0.2,0.3-0.2,0.7-0.9,1.4c-1.4,1.3-4.4,3.8-6.3,5.1c-3.7,2.6-8.7,4.6-12.4,4.6L138.4,99.4L138.4,99.4z"/>
				<path fill="#FFFFFF" d="M157.4,89.5c-0.7,0.6-1.2,0.9-1.4,0.6c-0.2-0.3,0.3-0.9,0.7-1.3c0.7-0.7,2.2-1.9,3.3-2.7
					c1.4-1,2.9-1.9,5.1-3.1c3.1-1.6,6.4-2.8,8.8-2.9c0.7,0,1.6,0,1.6,0.4c0,0.2-14.7,17.7-13.5,17.7c2.3,0,6.6-2.9,9.9-6.5
					c0.1-1.1,0.5-2.7,1.9-4.5c1.2-1.6,2.7-2.5,3.4-2.8c0.3-0.7,0.3-1.9,0.3-2.5c0-1.2-0.4-1.5-0.1-1.7c0.4-0.2,1.1,0.2,1.5,0.6
					c0.9,0.9,1.5,2.1,1.3,3.7c-0.3,2.6-2.8,5.6-6.1,8.6c0.4,0.2,1.6,0.1,2,0c1-0.2,2.1-0.7,3.6-1.8c1.4-1,2.2-1.7,3.4-2.8
					c1-0.9,1.5-1.4,1.8-1.1c0.3,0.3-0.3,1-1.4,1.9c-1,0.9-2,1.8-3.4,2.8c-1.7,1.2-3,1.7-4,1.9c-1,0.2-2.2,0.2-2.9-0.2
					c-2.8,2.1-7.8,5.2-12.1,5.2c-3.3,0-5.3-1.6-5.2-4.7c0.1-2.1,1.4-4.7,3.4-6.8l-0.1-0.1C158.6,88.4,158.1,88.9,157.4,89.5z"/>
			</g>
		</g>
		<g display="none">
			<g display="inline">
				<path fill="#FFFFFF" d="M50.5,105.8c1.2-1.2,1.2-2.5,1.9-4.3c1.9-6.8,5-13.7,7.5-21.2c1.2-3.2,1.8-6.9,2.5-10.6
					c2.5-1.2,4.4,1.3,6.3,2.5c0.6,6.2,1.2,12.5,1.9,18.7c2.5-3.2,3.7-6.9,5.6-10c2.6-3.7,6.3-6.8,8.1-11.9c0,0.6,0.6,0.6,1.2,0.6
					c1.2-1.2,1.2,0.6,2.5,0.6c1.2,7.5-2.5,18.1-3.7,24.9c0,0.6,0,1.2,0,1.9l-0.6,0.6c-1.3,3.8-1.3,6.3-1.9,9.4
					c0,0.6,0.6,0.6,0.6,1.2c-0.6,0-0.6,0.6-0.6,1.3c-0.6,0-0.6,1.2-1.2,1.2c-1.2,0-1.2,0-2.5,0.6c-0.7,0-0.7-0.6-1.3-0.6
					c-1.2-5.6,1.3-14.3,2.5-20.5c-3.2,4.4-4.4,10.6-8.7,13.7c-5-1.2-5-8.7-6.8-14.3c-0.6,0.6-0.6,2.5-1.3,3.7c0,0.6-0.6,1.3-1.2,1.9
					c0,1.2,0,2.5,0,3.1c-0.6,2.5-1.9,5.6-2.5,8.1c-0.6,1.8-0.6,3.1-2.5,4.3C53.1,110.7,51.2,108.9,50.5,105.8z"/>
				<path fill="#FFFFFF" d="M108,106.9c-3,1.2-5.6,3.1-8,3.7c-3.6,1.2-6.7,2.5-9.2-0.6c-0.6-6.1,2.5-8,2.5-12.9
					c-1.2-1.2-3-1.2-3-3.6c-1.2-4.9,3-5.6,5.6-7.4c1.2-4.3,1.2-8.6,0.6-11c1.2-2.5,3-4.3,5.4-5c6.2,1.3,12.3-3,19.7-1.8
					c0,0.6,0.6,1.2,0.6,2.5c0,1.2-0.6,1.2-0.6,3c-4.9,3-11.1,4.3-16.5,6.7c-0.6,1.2-0.6,1.9-0.6,3c4.3,0,9.8-4.3,14.7-1.8
					c0,0.6-0.6,0.6-0.6,1.2c1.2,1.2,0.6,1.8,1.2,3.6c-0.6,1.2-2.4,2.5-3.6,1.2c-4.9,3.1-9.8,5-15.3,7.4c-0.6,1.8-1.2,3.7-1.2,5.6
					c2.4,0,6.1-3.7,9.8-3.7h0.6c1.8-0.6,4.3-1.8,6.1-2.4c2.5-0.6,4.9-0.6,6.8,0.6c-0.6,1.2,0,1.2,0,1.8c-1.3,0-0.6,1.2-1.9,1.9
					c0,0,1.3,0.6,1.3,0c0,0,0,1.2,1.2,1.2C119,102.6,112.9,104.4,108,106.9z"/>
				<path fill="#FFFFFF" d="M157.3,86.6c0.2,0.6,0.9,1,1.2,2.2c-0.6,0.1-1,0.8-1,0.8c-2.3,0.6-5.7,1.6-7.8,3.3
					c-0.2,3.8,5.2,12.5,6.5,14.6c-1.3-0.2-0.6,0.2-1.2,0.3c0.9,1.1,0.5,1.8,0.6,2.3c-1.2,0.2-1.2,0.2-1.9-0.1c0,0-0.5,0.2-0.4,0.7
					c-0.5,0.1-1.1,0.3-1.8,0.5c-3.3-0.9-6-10.9-7.1-15c0,0,0,0-0.1-0.5c-2.1,1.1-4.9,2.5-6.4,3.6c-2.7,1.3-1.7,0.2-2.2,2.9
					c-0.4,0.8-1,0.9-1.2,2.2c-2,1.9-2,4.3-4.7,5.6l0.2,0.6c-3.3,1.5-6.2-0.2-6.8-2.5c0.6-0.2,0.5-0.7,0.5-0.7c0.2-3.8,4.4-6,6.1-9.1
					c2.4-4.2,6.4-5.3,5.9-10.1c0.6-0.2,0.2,0.6,0.4,1.1c0.5-0.2-0.4-1.1,0.8-1.4c0.1,0.6-0.4,0.8-0.8,1.4c1.1-0.3,0.9-0.8,0.8-1.4
					c-0.2-0.6,0,0,0,0c0.9-1.5,0.9-3.3,1.8-4.9c0.6,0.5-0.4,0.8-0.1,1.9c0.4-0.7,0.3-1.3,0.8-1.5c0,0,0.5-0.8,1.1-0.9
					c-0.7,2.1-1.5,3.5-2.3,5c0.7,0.5,0.4-0.7,1.7-0.5c-0.5-1.8-0.1-2.4,1.1-2.7c1.1-0.9-0.3-1.2,0.7-2c0.2,0.6,0.2,0.6,0.2,0.6
					s0.5-0.2,0.4-0.8c-0.2-0.5-0.6,0.2-0.7-0.4c-0.6,0.1,0.1,0.5-0.5,0.7c-0.4-1.1,1.2-2.2,0.9-3.3c1.1-0.4,0.6-2.6,0.9-3.4
					c-0.1-0.5-0.5,0.2-0.5,0.2l-0.2-0.6c0.6-2.6,1.2-4.6,1.9-6.6c1.2-0.4,1.1-0.9,1.6-1.1c0.6-0.1,1.5,0.9,1.9,0.1
					c0.2,0.6,0.2,0.6,0.2,0.6c1.6-1,1.8,2,2.3,1.9c0.9,5.3-1.3,10.8-0.5,16.1c1.7-0.5,3.6-0.4,4.4-1.8c0.6-0.2,0.1,0.5,0.1,0.5
					c1.2-0.3,1.8-0.5,2.6,0c0.1,0.5-1.2,0.3-0.5,0.7c0.1,0.5,1.1-0.4,1.3,0.2c0.7,0.5-0.5,0.1-1.2,0.3
					C156.2,87,156.9,86.8,157.3,86.6z M137.3,87.8c-0.1-0.6,0.8-1.5,0.6-2c0,0,0,0-0.5,0.1C137.6,86.5,136.6,87.3,137.3,87.8z
					 M141,87.4c0.2-1.3,1.8-2.3,0.9-3.3C141.4,84.8,140.8,86.8,141,87.4z M143.6,86c-0.8,1.5-1.8,2.4-1.9,4.2
					c1.1-0.3,1.7-0.5,2.1-1.2C143.7,88.5,143.9,87.2,143.6,86z M143.1,81.9c0.2,0.6-1,0.9-0.8,1.5l0.2,0.5c-0.2-0.5,1-0.9,0.5-0.1
					C143.6,83.6,143.7,81.7,143.1,81.9z"/>
				<path fill="#FFFFFF" d="M161.5,80c0-3.7,0.6-6.2,1.9-7.4c3.1-2,8.8-2.6,13.7-3.8c5-1.3,10.6-1.3,15,0c0,2.5,1.2,2.5,1.2,3.8
					c-1.2,0.6-0.6,1.2-0.6,2.5c-0.6,0-1.2-1.2-1.2,0s1.2,0,1.2,1.2c-1.9,5-8.2-0.6-11.9,2.5c-2.5,9.4-6.2,14.9-8.7,23
					c0,1.3,0,3.2,0,3.8c-1.3,1.2-1.3,3.7-2.6,3.1c-0.6,0.6,0,0.6-0.6,1.9c-0.6-1.2-1.2-0.6-1.2-2.5c-0.6-0.6-0.6,1.2-1.2,0.6
					c0-0.6-0.6-1.9-0.6-2.5c-0.6-11.2,3.7-15,5-23.1C167.7,83.7,162.7,85.5,161.5,80z"/>
			</g>
			<g display="inline">
				<g>
					<path fill="#FFFFFF" d="M101.5,71.1v35.2h5.2v0.4H84.8v-0.4H90V72l-12.3,34.7h-0.5c-0.7,0-1.5-0.6-2.3-1.7
						c-0.8-1.2-1.7-2.6-2.7-4.5c-0.9-1.8-1.9-3.9-2.9-6.2c-1-2.3-2-4.6-3.1-6.9c-1-2.3-2.1-4.5-3.1-6.5c-1-2.1-2-3.8-3-5.2v28.1
						c0,0.7,0.2,1.3,0.7,1.8c0.5,0.5,1.1,0.7,1.8,0.7h3.5v0.4H53.9v-0.4h3.5c0.7,0,1.3-0.2,1.8-0.7c0.5-0.5,0.7-1.1,0.7-1.8V75.2
						c-0.3-0.4-0.6-0.7-0.9-1s-0.6-0.6-0.8-0.8c-0.9-0.6-1.7-1-2.4-1.4s-1.4-0.6-2-0.7c-0.7-0.1-1.3-0.2-1.8-0.3v-0.4h10
						c0.9,0,1.9,0.2,2.8,0.4c0.8,0.2,1.7,0.5,2.7,0.9c1,0.4,2,1,2.9,1.8c1,0.9,1.9,1.9,2.7,3.2c0.8,1.3,1.6,2.6,2.3,4.1
						c0.7,1.4,1.4,2.9,2,4.4c0.6,1.5,1.2,2.9,1.6,4.1c0.5,1.3,1,2.4,1.4,3.4c0.4,1,0.8,1.7,1.1,2L90,70.7h16.6v0.4L101.5,71.1
						L101.5,71.1z"/>
					<path fill="#FFFFFF" d="M133,82.2c1.4,0.9,2.7,2.3,3.7,4.2c1,1.9,1.5,4.1,1.5,6.8c0,2.7-0.5,5-1.5,6.9c-1,1.9-2.2,3.3-3.7,4.2
						c-1.1,0.7-2,1.3-2.8,1.6s-1.5,0.7-2.2,0.8s-1.3,0.3-2,0.3s-1.5,0.1-2.4,0.1h-0.5c-0.9,0-1.7,0-2.4-0.1c-0.7,0-1.4-0.1-2.1-0.3
						c-0.7-0.2-1.5-0.5-2.3-0.8c-0.8-0.4-1.8-0.9-2.9-1.6c-1.4-0.9-2.7-2.3-3.7-4.2c-1-1.9-1.5-4.2-1.5-6.9c0-2.7,0.5-5,1.5-6.8
						c1-1.9,2.2-3.3,3.7-4.2c1.1-0.7,2-1.3,2.8-1.6c0.8-0.4,1.5-0.7,2.2-0.8c0.7-0.2,1.3-0.3,2-0.3c0.7,0,1.5-0.1,2.4-0.1h0.8
						c0.9,0,1.7,0,2.4,0.1c0.7,0,1.3,0.1,2,0.3s1.4,0.5,2.2,0.8C131,81,131.9,81.5,133,82.2z M126.1,105.2c0.3-0.4,0.6-1.1,0.8-1.9
						c0.2-0.8,0.4-1.7,0.5-2.8c0.1-1,0.2-2.2,0.2-3.4c0-1.2,0.1-2.5,0.1-3.9s0-2.6-0.1-3.9c-0.1-1.2-0.1-2.4-0.3-3.4
						c-0.1-1-0.3-2-0.5-2.8c-0.2-0.8-0.6-1.4-0.9-1.8c-0.8-0.8-1.3-1.3-1.7-1.4c-0.4-0.1-0.7-0.2-0.9-0.2c-0.2,0-0.5,0.1-0.9,0.2
						c-0.4,0.1-1,0.6-1.7,1.4c-0.4,0.4-0.7,1-0.9,1.8c-0.2,0.8-0.4,1.7-0.6,2.8c-0.1,1-0.2,2.2-0.3,3.4c0,1.2-0.1,2.5-0.1,3.9
						s0,2.6,0.1,3.9c0,1.2,0.1,2.4,0.3,3.4c0.1,1.1,0.3,2,0.6,2.8c0.2,0.8,0.5,1.4,0.9,1.9c0.5,0.5,1,0.9,1.5,1.2
						c0.5,0.3,0.9,0.4,1.2,0.4h0.4C124.6,106.8,125.4,106.3,126.1,105.2z"/>
					<path fill="#FFFFFF" d="M173.7,106.8h-4.5c-1.7,0-3.1-0.2-4.2-0.6c-1.2-0.4-2.1-0.9-2.8-1.6c-0.7-0.7-1.2-1.5-1.5-2.4
						c-0.3-0.9-0.5-1.9-0.5-3V84.8c0-0.7-0.1-1.4-0.2-2.1c-0.2-0.7-0.4-1.3-0.8-1.8c-0.2-0.2-0.5-0.4-0.8-0.5
						c-0.3-0.1-0.6-0.1-1-0.1s-0.6,0.1-0.9,0.3c-0.3,0.2-0.5,0.4-0.8,0.7c-0.3,0.3-0.6,0.7-0.8,1.3c-0.2,0.6-0.4,1.1-0.5,1.8
						c-0.2,0.6-0.3,1.3-0.3,1.9c-0.1,0.6-0.1,1.1-0.1,1.5v18.6h3.9v0.4h-18.2v-0.4h3.9V80.5h-3.9v-0.4c1,0,2.1,0,3.5-0.1
						c1.4,0,2.7-0.1,4.1-0.2c1.4-0.1,2.7-0.2,3.9-0.3c1.2-0.1,2.2-0.3,2.9-0.5V83c0.3-0.6,0.6-1.1,0.9-1.4c0.3-0.4,0.7-0.8,1.2-1.1
						c0.8-0.7,1.7-1.2,2.6-1.5c0.9-0.3,1.9-0.5,2.9-0.5c1,0,2.1,0.1,3.3,0.3s2.2,0.6,3.1,1.1c0.9,0.6,1.6,1.4,2.1,2.4
						c0.2,0.4,0.3,0.8,0.4,1.2c0.1,0.4,0.2,0.8,0.2,1.2v15.1c0,2,0.2,3.6,0.7,4.8s1.3,1.8,2.4,1.8L173.7,106.8L173.7,106.8z"/>
					<path fill="#FFFFFF" d="M187.7,102.6c0.3,0.9,0.8,1.7,1.3,2.2c0.5,0.6,1.1,1,1.8,1.2c0.6,0.2,1.2,0.3,1.8,0.3v0.4h-5.8
						c-1.7,0-3.1-0.1-4.3-0.4s-2.1-0.7-2.8-1.2c-0.7-0.6-1.2-1.4-1.5-2.3s-0.5-2.2-0.5-3.7V98V80.5h-3.9v-0.4h1.6
						c1.4,0,2.8-0.4,4.2-1.1s2.6-1.6,3.6-2.7c1-1.1,1.9-2.2,2.5-3.4c0.6-1.2,1-2.2,1-3.1h0.5v10.3h4.5v0.4h-4.5V99
						C187.2,100.5,187.4,101.7,187.7,102.6z"/>
				</g>
				<rect x="114.2" y="73.1" fill="#FFFFFF" width="18.2" height="2.7"/>
			</g>
			<g display="inline">
				<g>
					<path fill="#FFFFFF" d="M93.2,98.8c0,0.8-0.5,6.3-6.4,6.3h-2.1c-5.9,0-6.4-5.5-6.4-6.3V78.9c0-0.8,0.5-6.3,6.4-6.3h2.1
						c5.9,0,6.4,5.5,6.4,6.3V98.8z M88.9,79c0-0.4-0.1-0.7-0.3-1c-0.3-0.5-0.8-1.1-1.8-1.1h-2.1c-1.1,0-1.5,0.5-1.9,1.1
						c-0.1,0.3-0.2,0.7-0.3,1v19.8c0,0.4,0.1,0.8,0.3,1.1c0.3,0.5,0.8,1,1.9,1h2.1c1,0,1.5-0.5,1.8-1c0.1-0.3,0.2-0.7,0.3-1.1V79z"
						/>
					<path fill="#FFFFFF" d="M96.3,73.1c0-0.1,0-0.1,0.1-0.1h9.7c2.8,0.1,4.2,1.6,4.9,3.1c0.4,0.9,0.6,1.8,0.7,2.9v6.8
						c0,0.5,0,0.9-0.2,1.4c-0.2,0.9-0.5,1.8-1.2,2.7c0,0,0,0.1,0,0.2c0.7,0.9,1,1.9,1.2,2.6c0.1,0.4,0.2,0.8,0.2,1.2v9.3
						c0,0.1,0,0.1,0.1,0.2l0.3,0.3c0,0,0.1,0.1,0.1,0.2v0.8c0,0.1,0,0.1-0.1,0.1h-4.5c-0.1,0-0.1,0-0.1-0.1V93.9
						c0-0.4-0.1-0.7-0.3-1c-0.3-0.5-0.8-1.1-1.9-1.1h-2.1h-2c-0.1,0-0.1,0-0.1,0.1v11.3c0,0,0,0.1,0.1,0.2l0.3,0.3
						c0.1,0,0.1,0.1,0.1,0.2v0.8c0,0.1,0,0.1-0.1,0.1h-5.1c-0.1,0-0.1,0-0.1-0.1v-0.8c0,0,0-0.1,0.1-0.2l0.3-0.3
						c0.1,0,0.1-0.1,0.1-0.2V74.6c0-0.1,0-0.2-0.1-0.2l-0.3-0.2c0,0-0.1-0.1-0.1-0.2C96.3,73.9,96.3,73.1,96.3,73.1z M105.4,87.8
						c1,0,1.5-0.5,1.9-1c0.1-0.3,0.2-0.7,0.3-1.1v-7.3c0-0.2-0.1-0.4-0.2-0.6c-0.2-0.3-0.5-0.6-1.4-0.6h-4.6c-0.1,0-0.1,0-0.1,0.1
						v10.4c0,0.1,0,0.1,0.1,0.1h2H105.4z"/>
					<path fill="#FFFFFF" d="M115,78.8c0.1-1.1,0.7-6.1,6.4-6.1h2.1c6,0,6.4,5.5,6.4,6.3v4.9c0,0.1,0,0.1-0.1,0.1h-4.1h-0.4
						c-0.1,0-0.1,0-0.1-0.1V83c0-0.1,0-0.2,0.1-0.2l0.3-0.2c0,0,0.1-0.1,0.1-0.2V79c0-0.4-0.1-0.7-0.3-1c-0.3-0.5-0.8-1.1-1.9-1.1
						h-2.1c-1.1,0-1.5,0.5-1.9,1.1c-0.1,0.3-0.2,0.7-0.3,1v19.8c0,0.4,0.1,0.8,0.3,1.1c0.3,0.5,0.8,1,1.9,1h2.1c1,0,1.5-0.5,1.9-1
						c0.1-0.3,0.2-0.7,0.3-1.1v-6.4c0-0.1,0-0.2-0.1-0.2l-0.4-0.6c0-0.1-0.1-0.2-0.1-0.3v-1c0-0.1,0-0.2,0.1-0.1l0.4,0.2l4.1,2
						c0.1,0,0.1,0.1,0.1,0.2v6.4v0.3c-0.1,1.5-1,6-6.4,6h-2.1c-5.6,0-6.2-5-6.4-6.1V78.8z"/>
					<path fill="#FFFFFF" d="M143.9,73.1c0-0.1,0-0.1,0.1-0.1h5.1c0.1,0,0.1,0,0.1,0.1v0.8c0,0.1,0,0.2-0.1,0.2l-0.3,0.2
						c-0.1,0-0.1,0.1-0.1,0.2v28.6c0,0.1,0,0.2,0.1,0.2l0.3,0.2c0,0,0.1,0.1,0.1,0.2v0.8c0,0.1,0,0.1-0.1,0.1H144
						c-0.1,0-0.1,0-0.1-0.1v-0.8c0-0.1,0-0.2,0.1-0.2l0.3-0.2c0,0,0.1-0.1,0.1-0.2V89.8c0-0.1,0-0.1-0.1-0.1h-6.1
						c-0.1,0-0.1,0-0.1,0.1v13.4c0,0.1,0,0.2,0.1,0.2l0.3,0.2c0.1,0,0.1,0.1,0.1,0.2v0.8c0,0.1,0,0.1-0.1,0.1h-5.1
						c-0.1,0-0.1,0-0.1-0.1v-0.8c0-0.1,0-0.2,0.1-0.2l0.3-0.2c0.1,0,0.1-0.1,0.1-0.2V74.6c0-0.1,0-0.2-0.1-0.2l-0.3-0.2
						c0,0-0.1-0.1-0.1-0.2v-0.8c0-0.1,0-0.1,0.1-0.1h5.1c0.1,0,0.1,0,0.1,0.1v0.8c0,0.1,0,0.2-0.1,0.2l-0.3,0.2c0,0-0.1,0.1-0.1,0.2
						v11c0,0.1,0,0.1,0.1,0.1h6.1c0.1,0,0.1,0,0.1-0.1v-11c0-0.1,0-0.2-0.1-0.2l-0.3-0.2c-0.1,0-0.1-0.1-0.1-0.2V73.1z"/>
					<path fill="#FFFFFF" d="M169.1,104.7c0,0.1,0,0.1-0.1,0.1h-5.6c-0.1,0-0.1,0-0.1-0.1v-0.8c0-0.1,0-0.2,0.1-0.2l0.5-0.5
						c0,0,0.1-0.1,0.1-0.2l-0.6-2.9c0-0.1,0-0.1-0.1-0.1H157c-0.1,0-0.1,0-0.1,0.1l-0.6,2.9c0,0.1,0,0.2,0.1,0.2l0.5,0.5
						c0,0,0.1,0.1,0.1,0.2v0.8c0,0.1,0,0.1-0.1,0.1h-5.6c-0.1,0-0.1,0-0.1-0.1v-0.8c0,0,0-0.1,0.1-0.2l0.7-0.5c0,0,0.1-0.1,0.1-0.2
						l6-29.8c0-0.1,0-0.1,0.1-0.1h4c0.1,0,0.1,0,0.1,0.1l6,29.8c0,0,0,0.1,0.1,0.2l0.7,0.5c0,0.1,0.1,0.2,0.1,0.2L169.1,104.7
						L169.1,104.7z M157.6,96.3c0,0,0,0.1,0.1,0.1h4.8c0.1,0,0.1,0,0.1-0.1l-2.5-12.6c0,0,0,0-0.1,0L157.6,96.3z"/>
				</g>
				<rect x="61.5" y="64.2" fill="#FFFFFF" width="123.3" height="49.3"/>
			</g>
			<g display="inline">
				<path fill="#FFFFFF" d="M71.7,87.7c5.1,1.7,4.9,6.6,4.9,6.6c0,8.9-9.1,9.3-11.2,9.3H55c-0.3,0-0.5-0.2-0.5-0.4V72.1
					c0-0.2,0.2-0.4,0.5-0.4h10.4c0,0,10.8-0.2,10.8,9.1C76.1,84.6,74.1,86.7,71.7,87.7z M60.6,84.7h4.8c0,0,4.7,0,4.7-3.5
					c0-3.8-4.7-3.8-4.7-3.8h-4.8V84.7z M70.5,94.2c0-3.8-5.1-3.5-5.1-3.5h-4.8v7.1h4.8C67.3,97.8,70.5,97.2,70.5,94.2z"/>
				<path fill="#FFFFFF" d="M79.3,103.6c-0.4,0-0.5-0.2-0.4-0.5l12.4-32c0.1-0.3,0.7-0.3,0.8,0l12.4,32c0.1,0.3,0,0.5-0.4,0.5H79.3
					L79.3,103.6z"/>
				<path fill="#FFFFFF" d="M132.3,111.9c-0.1,0-0.4-0.1-0.4-0.2l-15.6-21.1H114v12.6c0,0.2-0.2,0.4-0.5,0.4h-5.2
					c-0.3,0-0.5-0.2-0.5-0.4V85.1c0-0.2,0.2-0.4,0.5-0.4h4.2c-1.5-2.4-3.1-5-4.7-7.4v-5.2c0-0.2,0.2-0.4,0.5-0.4h10.4
					c0,0,10.8,0,10.8,9.4c0,5.6-3.6,7.8-6.7,8.8l15.8,21.5c0.2,0.3,0,0.5-0.3,0.5H132.3L132.3,111.9z M119.4,84.7
					c1.7,0,4.1-0.8,4.1-3.5c0-3.5-3.7-3.5-4.7-3.5h-3.8L119.4,84.7z"/>
				<path fill="#FFFFFF" d="M134.8,83.2c0-6.5,5.4-11.9,12-11.9c6.6,0,12,5.4,12,11.9c0,6.6-5.4,11.9-12,11.9
					C140.2,95.1,134.8,89.8,134.8,83.2z M157.4,103.2c0,0.2-0.2,0.4-0.5,0.4h-20.5c-0.3,0-0.5-0.2-0.5-0.4v-5.1
					c0-0.2,0.2-0.4,0.5-0.4h20.5c0.3,0,0.5,0.2,0.5,0.4L157.4,103.2L157.4,103.2z M140.8,83.2c0,3.4,2.7,6.1,6,6.1
					c3.3,0,6-2.6,6-6.1c0-3.4-2.6-6.1-6-6.1C143.5,77.2,140.8,79.8,140.8,83.2z"/>
				<path fill="#FFFFFF" d="M191.6,103.2c0,0.2-0.2,0.4-0.5,0.4H186c-0.1,0-0.3,0-0.4-0.1l-14.7-21v20.8c0,0.2-0.2,0.4-0.5,0.4h-5.2
					c-0.2,0-0.4-0.2-0.4-0.4V72.1c0-0.2,0.2-0.4,0.4-0.4h5.3c0.1,0,0.3,0,0.4,0.1l14.7,21V72.1c0-0.2,0.2-0.4,0.5-0.4h5.1
					c0.3,0,0.5,0.2,0.5,0.4L191.6,103.2L191.6,103.2z"/>
			</g>
			<g display="inline">
				<path fill="#FFFFFF" d="M89.6,97.6c-1.7,2.7-5.2,5.8-7.9,4.4c-2-1,0.7-6.2,1.8-8.2c1-2.1,5-7.5,7.7-6.4s-1.2,9.1-10.2,8.4
					c-0.3,0.3,0,0.7,0,0.7s6.5,0.9,10.3-3.8c3.8-4.7,0.9-6.1,0.2-6.5c-0.7-0.4-8.2-0.5-12,6.8c-2.2,4.3-0.6,9,1.9,9.7
					c1.8,0.6,5.3,0.6,8.7-4.7c0,0,0.1-0.3-0.1-0.4C89.8,97.4,89.6,97.6,89.6,97.6z"/>
				<path fill="#FFFFFF" d="M100.2,90.8c-0.3,1.6-13.6,27.6-13.6,27.6c-0.1,0.2-0.3,0.3-0.5,0.2c-0.2-0.1-2.3-2.8-2.4-3.2
					c-0.1-0.4,0-0.7,0.1-0.8c0-0.1,12.7-25.7,12.9-26.2c0.4-1,0.3-2-0.2-2.9c0,0-0.1-0.4,0.3-0.4C97.2,85.1,100.7,87.8,100.2,90.8z"
					/>
				<path fill="#FFFFFF" d="M95.7,98.5c0,0,8.1-11.4,11.9-12.4c3.7-1,3.9,2,4,2.4c0.1,0.4,0.6,3.2-1.8,7.6c-2.4,4.4-7.6,9-10.8,7.8
					c-3-1.2,0.8-5,2.6-6.4c1.5-1.2,4.4-2.2,7-2.7c4.1-0.8,9.5-2.2,12.3-4c2.1-1.3,3.1-4,2-4.4c-0.9-0.3-3.8,2.2-5.4,5
					c-2.6,4.6-3.5,7.8-2.1,7.8c1.4,0.1,7.9-5,8.4-5.8l0.2,0.7c0,0-6.5,5.7-8.8,6.2c-2.2,0.5-3-2.2-3.1-4c-0.1-1.9,1.4-6,3.8-8.2
					c3-2.8,5.9-3,7-2.7c2.3,0.7,0.9,4.3-1.5,5.8c-2.1,1.3-6.1,2.9-12.8,4.2c-2.2,0.4-4.9,1.3-6.6,2.6c-1.6,1.3-3.8,4.2-2.7,4.6
					c1.2,0.4,12.1-14.3,8.6-15.1c-3.2-0.8-12.7,13.3-12.7,13.3L95.7,98.5z"/>
				<path fill="#FFFFFF" d="M92.3,78.8c0,0-1.4-1.1,0.4-1.7c0,0,12.6-4.2,29.7-3.8c17.1,0.5,20.2,4,31.4,3.6
					c11.1-0.4,16.4-2,18.8-2.9c0,0,1-0.3,0.5,0.1c0,0-7.8,4.1-19.3,4.6c-11.5,0.5-20.7-1.7-32.3-1.4c-11.6,0.3-19.5,2.8-23.8,4.5
					c0,0-1,0.5-1.6,0.1C95.3,81.6,92.3,78.8,92.3,78.8z"/>
				<path fill="#FFFFFF" d="M138.4,61.1c0,0,3.5,3.1,3.2,5.8c-0.5,3.8-19.2,33.8-17.9,34.8c1.2,1,12.1-9.7,12.1-9.7l0.2,0.8
					c0,0-9.9,10.8-12.9,9.8c-3-1-0.5-7.5,1-10.6c1.5-3.1,14-26.6,14.2-28c0.2-1.4-0.1-2.1-0.2-2.5C138,61.1,138.3,61,138.4,61.1z"/>
				<path fill="#FFFFFF" d="M155.3,61.4c0,0,3.5,3.1,3.2,5.8c-0.5,3.8-19.2,33.8-17.9,34.8c1.2,1,12.1-9.7,12.1-9.7l0.2,0.8
					c0,0-9.9,10.8-12.9,9.8c-3-1-0.5-7.5,1-10.6c1.5-3.1,14-26.6,14.3-28c0.2-1.4-0.1-2.1-0.2-2.5C154.9,61.5,155.2,61.3,155.3,61.4
					z"/>
				<path fill="#FFFFFF" d="M138.3,79.3c-0.1-0.1,0-0.5,0.4-0.3c0.5,0.3,3.5,3.3,3,5.6c-0.5,2.3-1.8,3.2-2.4,3
					c-0.6-0.2-0.9-1-1.4-1.4c-0.6-0.4-1.5-0.6-1.7-1.2c-0.2-0.6,0.4-1.7,1.4-2.9C138.7,80.9,138.3,79.3,138.3,79.3z"/>
				<path fill="#FFFFFF" d="M135.4,87.7c0,0,2.8,2.5,2.8,4.1c0,1.4-1.4,3.2-2.5,4.6c-0.9,1.1-2.2,3.6-1.6,3.9
					c0.9,0.5,7.4-6.7,7.4-6.7l0.2,0.4c0,0-6.5,8.4-9,7.7c-1.8-0.5-2-2.2-2-3.9c0-1.7,3.9-6.8,4.2-7.9c0.3-1.1,0.1-1.8,0.1-1.9
					C135,87.9,135,87.6,135.4,87.7z"/>
				<path fill="#FFFFFF" d="M156,80.6c0,0-0.4-1.2,0.7-0.6c1.1,0.6,3.2,3.6,3.2,5.4c0,1.8-0.8,3.5-1.7,3.5c-0.9,0-1.7-1.5-2.2-1.8
					c-0.5-0.3-2.1-0.8-2.2-1.6C153.7,83.6,156.5,82.4,156,80.6z"/>
				<path fill="#FFFFFF" d="M152.4,88.1c0,0,5.3,2.4,4.1,5.2c-1.1,2.8-5.6,8.9-5,9.3c0.6,0.4,5.3-3.5,7.7-6.7l0.3,0.4
					c0,0-6.4,8.2-9.4,7.1c-3-1-1.8-4.6-1-6.2c0.9-1.9,3.4-5.1,3.4-7c0-0.6-0.4-1.6-0.4-1.6S151.7,88.2,152.4,88.1z"/>
				<path fill="#FFFFFF" d="M170.4,91.6c0,0,0.4-3.4-2.2-3.5c-2.6-0.1-6.2,1.5-8.5,5c-2.2,3.5-3.1,8.6-0.2,9.9
					c2.9,1.2,7.5-3.4,8.7-5c1.2-1.6,2.2-4.4,1-5.2c-1.1-0.7-1.9,0-2.1,0.4c-0.2,0.4-0.5,1.5,0.5,1.9c1.1,0.4,2.2-0.3,4.5-1.8
					c2.2-1.5,2.9-2.4,3.5-2.1c0.5,0.3-5.2,9.9-5.2,10.6c0.1,1.2,1.6,4,2.1,3.8c0.5-0.2,5.4-9.4,5.9-10.5c0.4-1,0.4-4.6-1.3-5.3
					c-1.2-0.4-4.6,2.6-5.2,3c-0.6,0.4-2.8,2.2-3.7,1.8c-0.7-0.3-0.5-1-0.4-1.2c0.1-0.2,0.6-0.4,1-0.3c0.5,0.2,0.9,2.1-1,4.4
					c-1.9,2.3-5.1,4.9-6.5,4c-1.4-1,3.7-11,6.9-10.9c1.5,0,1.8,1,1.8,1S170.2,92,170.4,91.6z"/>
				<path fill="#FFFFFF" d="M176.1,98.1c0,0,7.5-9.5,9.4-8.1c0.4,0.3,2.2,2.5,1.3,4.4c-0.7,1.5-6.9,10.1-5.7,11.1
					c1.2,0.9,5.8-1,9.9-7.6c0,0,0.7-0.8,0.6,0.3c0,0-6.6,9.9-11.5,8.4c-2.7-0.9-2.6-5.3-0.6-8.6c1.8-3,4.7-6.8,4.2-7
					c-0.4-0.2-6.7,6.4-7.5,7.7L176.1,98.1z"/>
				<path fill="#FFFFFF" d="M82.2,80.3c6.6-0.9,7.9-4.5,7.9-6.9c0-2.9-2.6-4.6-5.7-5.4c-3.3-0.9-26.4-0.8-27.8-2.3
					c-1.2-1.4-0.6-2.5-0.6-2.5c0.2-0.4-0.3-0.2-0.3-0.2c-0.8,0.8-0.7,3.4,0.4,4.9c2.7,3.5,13.2,2.8,13.2,2.8
					c0.1,0.8-0.1,1.7-0.5,2.5C68.4,74,56,97.8,56,97.8c-0.3,1,0,1.4,0,1.4s2.1,3.3,2.3,3.6c0.3,0.3,0.4,0,0.4,0l11.1-22
					c1.7,1.8,2.1,4.6,2.3,6.3c0.2,1.7-0.3,12.6-0.3,12.6s-0.2,7.9,5.4,10c4.8,1.8,9.3-4.6,9.3-4.6c0.3-1.1-0.9-0.6-0.9-0.6
					c-2.1,2.6-5.3,5.7-7.7,4c-2.4-1.7-1-16.3-1.5-21.3c-0.5-5-5.6-6.9-5.6-6.9S75.5,81.3,82.2,80.3z M70.4,79.5c0,0,2-3.9,2.5-5.4
					s-0.3-3.5-0.3-3.5s7.4,0.2,10.1,0.5c2.7,0.3,6.2,0.9,5.8,4.1c-0.4,3.2-4.7,3.9-8.5,4.3C76,79.9,70.4,79.5,70.4,79.5z"/>
			</g>
			<g id="Layer_6_4_">
				<path display="inline" fill="#FFFFFF" d="M159.9,89.7c0,21.2-17.2,38.4-38.4,38.4s-38.4-17.2-38.4-38.4
					c0-21.2,17.2-38.4,38.4-38.4S159.9,68.5,159.9,89.7z M121.5,57.1c-18,0-32.6,14.6-32.6,32.6c0,18,14.6,32.6,32.6,32.6
					s32.6-14.6,32.6-32.6C154.1,71.7,139.5,57.1,121.5,57.1z"/>
				<g display="inline" enable-background="new    ">
					<path fill="#FFFFFF" d="M99.4,83.6c0-4.7,2.5-7.3,7-7.3c4.5,0,7,2.7,7,7.3v15.2c0,4.7-2.5,7.3-7,7.3c-4.5,0-7-2.7-7-7.3V83.6z
						 M104,99.1c0,2.1,0.9,2.9,2.4,2.9c1.5,0,2.4-0.8,2.4-2.9V83.3c0-2.1-0.9-2.9-2.4-2.9s-2.4,0.8-2.4,2.9V99.1z"/>
					<path fill="#FFFFFF" d="M122.5,76.3c4.5,0,6.8,2.7,6.8,7.3v0.9h-4.3v-1.2c0-2.1-0.8-2.9-2.3-2.9c-1.5,0-2.3,0.8-2.3,2.9
						c0,6,9,7.1,9,15.5c0,4.7-2.3,7.3-6.8,7.3c-4.5,0-6.8-2.7-6.8-7.3V97h4.3v2.1c0,2.1,0.9,2.8,2.4,2.8c1.5,0,2.4-0.8,2.4-2.8
						c0-6-9-7.1-9-15.5C115.7,78.9,118,76.3,122.5,76.3z"/>
					<path fill="#FFFFFF" d="M130.6,76.6h14.2v4.2H140v25h-4.6v-25h-4.8V76.6z"/>
				</g>
			</g>
			<g display="inline">
				<g>
					<path fill="#FFFFFF" d="M76.6,81.4c1.9,0.8,3.4,1.9,4.5,3.4c1.1,1.5,1.7,3,1.7,4.5c0,1.4-0.2,2.7-0.7,3.9
						c-0.4,1.2-1.3,2.3-2.5,3.2c-1.2,0.9-2.9,1.7-5.1,2.2c-2.2,0.5-5,0.8-8.4,0.8c-3.5,0-6.4-0.3-8.6-0.8c-2.2-0.5-3.9-1.3-5.2-2.2
						c-1.2-0.9-2.1-2-2.5-3.2c-0.4-1.2-0.7-2.5-0.7-3.9c0-0.8,0.1-1.5,0.4-2.3c0.3-0.8,0.7-1.5,1.3-2.3c0.5-0.7,1.2-1.4,2-1.9
						c0.8-0.6,1.7-1,2.7-1.4c-1.4-0.5-2.6-1.5-3.4-2.7c-0.8-1.3-1.2-2.6-1.2-3.9c0-1.2,0.3-2.4,0.8-3.5c0.5-1.1,1.4-2.1,2.5-2.9
						c1.2-0.8,2.7-1.5,4.7-1.9c1.9-0.5,4.3-0.7,7.2-0.7s5.3,0.2,7.2,0.7c1.9,0.5,3.5,1.1,4.7,1.9c1.2,0.8,2,1.8,2.5,2.9
						c0.5,1.1,0.8,2.3,0.8,3.5c0,1.3-0.4,2.6-1.2,3.9C79.2,79.9,78.1,80.8,76.6,81.4z M66.5,66.9h-1.1v12.7h1.1V66.9z M66.5,82.2
						h-1.1v16h1.1V82.2z"/>
					<path fill="#FFFFFF" d="M119.6,80.6c-1,0.9-2.8,1.6-5.3,1.9c2.1,0.5,3.7,1.4,5,2.5c1.2,1.1,1.8,2.9,1.8,5.2
						c0,1.5-0.3,2.9-0.8,4c-0.5,1.2-1.4,2.1-2.7,2.9c-1.3,0.8-3,1.3-5.1,1.7c-2.1,0.4-4.9,0.6-8.2,0.6s-6-0.3-8.2-0.8
						c-2.2-0.5-3.9-1.2-5.1-2c-1.3-0.8-2.1-1.8-2.6-2.9c-0.5-1.1-0.7-2.3-0.7-3.5c0-1,0.2-2,0.6-2.8c0.4-0.8,1-1.6,1.6-2.2
						c0.7-0.6,1.4-1.1,2.2-1.4c0.8-0.3,1.6-0.5,2.4-0.5s1.6,0.1,2.4,0.4c0.8,0.3,1.5,0.7,2.2,1.3c0.7,0.6,1.2,1.3,1.6,2.1
						c0.4,0.8,0.6,1.8,0.6,2.9c0,1.2-0.2,2.2-0.6,3c-0.4,0.9-0.9,1.6-1.5,2.2c-0.6,0.6-1.3,1.1-2.2,1.3s-1.7,0.4-2.6,0.4
						c0.1,0,0.4,0.1,0.7,0.1c0.3,0,0.6,0.1,1,0.1c0.4,0,1,0,1.6,0c0.8,0,1.6-0.2,2.5-0.6c0.8-0.4,1.6-0.9,2.3-1.5
						c0.7-0.6,1.2-1.4,1.6-2.3c0.4-0.9,0.6-1.8,0.6-2.9c0-1.2-0.2-2.3-0.7-3.2c-0.4-0.9-1-1.6-1.7-2.1c-0.7-0.6-1.5-1-2.4-1.3
						c-0.9-0.3-1.9-0.5-2.9-0.7v-1.1h7.9c3.6,0,6.4-0.2,8.4-0.5c2-0.3,3.4-0.7,4.4-1.2c0.9-0.5,1.5-1,1.7-1.5c0.2-0.5,0.3-1,0.3-1.5
						c0,0.3-0.1,0.7-0.4,1.2c-0.3,0.4-0.9,0.9-1.9,1.2c-1,0.4-2.5,0.7-4.4,1c-1.9,0.3-4.5,0.4-7.7,0.4h-8.1c-2.1,0-3.7,0.1-4.9,0.4
						s-2.1,0.5-2.8,0.9c-0.7,0.3-1.1,0.7-1.3,1c-0.2,0.3-0.4,0.6-0.4,0.9V73c0-0.9,0.2-1.8,0.5-2.7s0.8-1.7,1.4-2.3
						c0.6-0.7,1.3-1.2,2.1-1.6c0.8-0.4,1.8-0.6,2.8-0.6c2.1,0,4.1,0.3,5.9,0.9s3.7,1.3,5.4,2c1.7,0.7,3.4,1.4,5.1,1.9
						c1.7,0.6,3.4,0.9,5.1,0.9c1.2,0,2.2-0.5,2.9-1.5c0.7-1,1.1-2.4,1.1-4.3h1.1v10.8C121.1,78.3,120.6,79.6,119.6,80.6z"/>
					<path fill="#FFFFFF" d="M143.7,80.7c-3.7,0-6.6-0.1-8.8-0.4c-2.2-0.2-3.8-0.5-5-0.9c-1.2-0.4-1.9-0.8-2.2-1.2
						c-0.3-0.4-0.5-0.8-0.5-1.1v4.4h14.9c2.4,0,4.7,0.1,6.8,0.2s3.9,0.5,5.5,1.1c1.6,0.6,2.8,1.4,3.7,2.6c0.9,1.1,1.3,2.7,1.3,4.7
						c0,1.5-0.3,2.9-0.8,4c-0.5,1.2-1.4,2.1-2.7,2.9c-1.3,0.8-3,1.3-5.1,1.7c-2.1,0.4-4.9,0.6-8.2,0.6s-6-0.3-8.2-0.8
						c-2.2-0.5-3.9-1.2-5.1-2c-1.3-0.8-2.1-1.8-2.6-2.9c-0.5-1.1-0.7-2.3-0.7-3.5c0-1,0.2-2,0.6-2.8c0.4-0.8,1-1.6,1.6-2.2
						c0.7-0.6,1.4-1.1,2.2-1.4c0.8-0.3,1.6-0.5,2.4-0.5s1.6,0.1,2.4,0.4c0.8,0.3,1.5,0.7,2.2,1.3c0.7,0.6,1.2,1.3,1.6,2.1
						c0.4,0.8,0.6,1.8,0.6,2.9c0,1.2-0.2,2.2-0.6,3c-0.4,0.9-0.9,1.6-1.5,2.2c-0.6,0.6-1.3,1.1-2.2,1.3c-0.8,0.3-1.7,0.4-2.6,0.4
						c0.1,0,0.4,0.1,0.7,0.1c0.3,0,0.6,0.1,1,0.1c0.4,0,1,0,1.6,0c0.8,0,1.6-0.2,2.5-0.6c0.8-0.4,1.6-0.9,2.3-1.5
						c0.7-0.6,1.2-1.4,1.6-2.3c0.4-0.9,0.6-1.8,0.6-2.9c0-1.1-0.3-2.2-0.9-3.1c-0.6-0.9-1.3-1.7-2.3-2.4c-0.9-0.6-2-1.1-3.3-1.5
						c-1.3-0.3-2.6-0.5-3.9-0.5h-6.8V65.8h1.1c0,1.9,0.4,3.3,1.2,4.3c0.8,1,1.8,1.5,3,1.5c1.7,0,3.4-0.3,5-0.9
						c1.7-0.6,3.4-1.2,5.1-1.9c1.7-0.7,3.5-1.4,5.3-2s3.8-0.9,5.9-0.9c1,0,2,0.2,2.8,0.6c0.8,0.4,1.6,0.9,2.2,1.6
						c0.6,0.7,1.1,1.5,1.4,2.3c0.3,0.9,0.5,1.8,0.5,2.7v11c-0.1-0.2-0.4-0.5-0.8-0.9c-0.4-0.4-1.2-0.7-2.3-1.1
						c-1.1-0.4-2.7-0.7-4.7-0.9C149.7,80.8,147.1,80.7,143.7,80.7z"/>
					<path fill="#FFFFFF" d="M181.2,65.8c3.2,0,5.9,0.4,8,1.3c2.2,0.9,3.9,2.1,5.2,3.6c1.3,1.5,2.3,3.3,2.8,5.3
						c0.6,2,0.9,4.2,0.9,6.5c0,2.4-0.2,4.6-0.7,6.6c-0.4,2.1-1.3,3.8-2.5,5.4c-1.2,1.5-3,2.7-5.2,3.6c-2.2,0.9-5.1,1.3-8.6,1.3
						c-3.5,0-6.3-0.4-8.5-1.3c-2.2-0.9-3.9-2.1-5.1-3.6c-1.2-1.5-2.1-3.3-2.5-5.4s-0.7-4.3-0.7-6.6c0-2.3,0.3-4.5,0.9-6.5
						c0.6-2,1.5-3.8,2.8-5.3c1.3-1.5,3-2.7,5.1-3.6C175.4,66.2,178,65.8,181.2,65.8z M181.8,66.9h-1.1v31.4h1.1V66.9z"/>
				</g>
				<g>
					<path fill="#FFFFFF" d="M80.5,107.8c0-0.5,0.1-1,0.2-1.4s0.4-0.8,0.7-1.1c0.3-0.3,0.6-0.5,1-0.7c0.4-0.2,0.8-0.2,1.2-0.2
						c0.4,0,0.8,0.1,1.1,0.3c0.3,0.2,0.6,0.4,0.8,0.6l-0.8,0.9c-0.2-0.2-0.3-0.3-0.5-0.4c-0.2-0.1-0.4-0.1-0.6-0.1s-0.4,0-0.6,0.1
						c-0.2,0.1-0.4,0.2-0.5,0.4c-0.1,0.2-0.3,0.4-0.3,0.7c-0.1,0.3-0.1,0.6-0.1,0.9c0,0.7,0.1,1.2,0.4,1.6s0.7,0.6,1.2,0.6
						c0.3,0,0.5-0.1,0.7-0.2c0.2-0.1,0.4-0.2,0.5-0.4l0.8,0.9c-0.3,0.3-0.6,0.6-0.9,0.7c-0.3,0.2-0.7,0.2-1.1,0.2
						c-0.4,0-0.8-0.1-1.2-0.2c-0.4-0.1-0.7-0.4-1-0.6c-0.3-0.3-0.5-0.6-0.7-1C80.5,108.8,80.5,108.3,80.5,107.8z"/>
					<path fill="#FFFFFF" d="M91.6,104.5h1.5v5.3h2.6v1.2h-4.1V104.5z"/>
					<path fill="#FFFFFF" d="M104.1,111.1c-0.4,0-0.8-0.1-1.2-0.2s-0.7-0.4-0.9-0.7c-0.3-0.3-0.5-0.6-0.6-1.1
						c-0.1-0.4-0.2-0.9-0.2-1.4c0-0.5,0.1-1,0.2-1.4c0.1-0.4,0.3-0.8,0.6-1.1c0.3-0.3,0.6-0.5,0.9-0.6s0.8-0.2,1.2-0.2
						s0.8,0.1,1.2,0.2c0.4,0.1,0.7,0.4,0.9,0.7c0.3,0.3,0.5,0.6,0.6,1.1c0.1,0.4,0.2,0.9,0.2,1.4c0,0.5-0.1,1-0.2,1.4
						s-0.3,0.8-0.6,1.1s-0.6,0.5-0.9,0.7S104.5,111.1,104.1,111.1z M104.1,109.8c0.4,0,0.8-0.2,1.1-0.6c0.3-0.4,0.4-0.9,0.4-1.6
						c0-0.7-0.1-1.2-0.4-1.5c-0.3-0.4-0.6-0.6-1.1-0.6s-0.8,0.2-1.1,0.6c-0.3,0.4-0.4,0.9-0.4,1.5c0,0.7,0.1,1.2,0.4,1.6
						S103.6,109.8,104.1,109.8z"/>
					<path fill="#FFFFFF" d="M114.3,105.7h-1.8v-1.2h5.1v1.2h-1.8v5.3h-1.5L114.3,105.7L114.3,105.7z"/>
					<path fill="#FFFFFF" d="M123.6,104.5h1.5v2.5h2.2v-2.5h1.5v6.5h-1.5v-2.7h-2.2v2.7h-1.5C123.6,111,123.6,104.5,123.6,104.5z"/>
					<path fill="#FFFFFF" d="M135.4,104.5h1.5v6.5h-1.5V104.5z"/>
					<path fill="#FFFFFF" d="M143.4,104.5h1.5l1.7,3.2l0.6,1.4h0c0-0.3-0.1-0.7-0.1-1.2s-0.1-0.8-0.1-1.2v-2.3h1.4v6.5H147l-1.7-3.2
						l-0.6-1.4h0c0,0.4,0.1,0.7,0.1,1.2c0,0.4,0.1,0.8,0.1,1.2v2.3h-1.4V104.5L143.4,104.5z"/>
					<path fill="#FFFFFF" d="M154.7,107.8c0-0.5,0.1-1,0.3-1.4s0.4-0.8,0.7-1.1c0.3-0.3,0.6-0.5,1-0.7c0.4-0.2,0.8-0.2,1.2-0.2
						c0.5,0,0.9,0.1,1.2,0.3s0.6,0.4,0.8,0.6l-0.8,0.9c-0.2-0.2-0.3-0.3-0.5-0.4c-0.2-0.1-0.4-0.1-0.7-0.1c-0.3,0-0.5,0-0.7,0.1
						c-0.2,0.1-0.4,0.2-0.5,0.4c-0.2,0.2-0.3,0.4-0.4,0.7c-0.1,0.3-0.1,0.6-0.1,0.9c0,0.7,0.2,1.2,0.5,1.6s0.8,0.6,1.4,0.6
						c0.1,0,0.3,0,0.4-0.1c0.1,0,0.2-0.1,0.3-0.1v-1.1h-1.1v-1.2h2.4v3c-0.2,0.2-0.5,0.4-0.9,0.6c-0.4,0.2-0.8,0.2-1.3,0.2
						c-0.4,0-0.9-0.1-1.2-0.2c-0.4-0.1-0.7-0.4-1-0.6c-0.3-0.3-0.5-0.6-0.7-1C154.8,108.8,154.7,108.3,154.7,107.8z"/>
				</g>
			</g>
			<g display="inline">
				<g>
					<path fill="#FFFFFF" d="M44.2,103.2c2,0,4-0.9,5.3-2.4l1.1-1.2c0,0,0.9,1.1,1.9,1.9c1.4,1.1,2.9,1.7,4.6,1.7
						c3.9,0,7.1-3.2,7.1-7.1c0-3.9-3.2-7.1-7.1-7.1c-2.1,0-4,0.9-5.4,2.5l-1.1,1.1l-1.2-1.3c-0.1-0.1-0.1-0.2-0.2-0.2l-0.5-0.4
						c-1.3-1.1-2.9-1.7-4.6-1.7c-3.9,0-7.1,3.2-7.1,7.1C37.2,100,40.3,103.2,44.2,103.2z M44.2,93.6c0.7,0,1.3,0.2,1.7,0.7l1.8,1.9
						L46,98c-0.5,0.5-1.1,0.7-1.8,0.7c-1.4,0-2.5-1.1-2.5-2.5C41.7,94.7,42.8,93.6,44.2,93.6z M55.4,94.3c0.5-0.4,1.1-0.7,1.7-0.7
						c1.4,0,2.5,1.1,2.5,2.5c0,1.4-1.1,2.5-2.5,2.5c-0.7,0-1.3-0.3-1.8-0.7l-1.7-1.8L55.4,94.3z"/>
				</g>
				<g>
					<path fill="#FFFFFF" d="M73.4,73.6h7.1v23h13.3v6.6H73.4V73.6z"/>
					<path fill="#FFFFFF" d="M103.8,73.6h7.1v29.6h-7.1V73.6z"/>
					<path fill="#FFFFFF" d="M144.7,96c0-7,0.1-10.5,0.1-10.5h-0.1c0,0-1.5,2.7-2.9,5.2l-2.9,5.2h-4l-2.9-5.1
						c-1.5-2.6-2.9-5.3-2.9-5.3H129c0,0,0.1,3.5,0.1,10.5v7.2H122V73.6h7.5l7.4,13.2h0.1l7.5-13.2h7.2v29.6h-7.1L144.7,96L144.7,96z
						"/>
					<path fill="#FFFFFF" d="M162.9,73.6h7.1v29.6h-7.1V73.6z"/>
					<path fill="#FFFFFF" d="M196.2,80.2v23h-7.1v-23h-9.1v-6.6h25.2v6.6H196.2z"/>
				</g>
				<g>
					<path fill="#FFFFFF" d="M40.3,79.2L40.3,79.2c0,0,0,1.5,0,3v4h-2.8V74.5h2.9l5,6.9h0.1c0,0,0-1.5,0-2.8v-4.1h2.8v11.8h-2.9
						L40.3,79.2z"/>
					<path fill="#FFFFFF" d="M58.3,74.2c3.6,0,6.2,2.5,6.2,6.1s-2.6,6.1-6.2,6.1s-6.2-2.5-6.2-6.1C52.1,76.8,54.7,74.2,58.3,74.2z
						 M58.3,83.8c1.9,0,3.4-1.3,3.4-3.4c0-2.1-1.4-3.5-3.4-3.5s-3.4,1.3-3.4,3.5C54.9,82.5,56.3,83.8,58.3,83.8z"/>
				</g>
			</g>
			<g display="inline">
				<path fill="#FFFFFF" d="M63.2,110.5l-16.3,0V65.8l22.7,10.6l22.5-10.7l0.2,44.7l-16.2,0l-1.3,0l-4.7-4.6c0-3.5,0-20,0-23.4h-0.6
					v23.4l-4.7,4.8L63.2,110.5z"/>
				<path fill="#FFFFFF" d="M148.4,66c0,13.2,0,26.3,0,39.4l-5.2,5h-34.4l-5.2-5c0-13.1,0-26.2,0-39.4c4.9,0,12.4,0,17.3,0l4.7,4.7
					c0,3.6,0,31.3,0,34.7h0.6V70.7L131,66C136,66,143.4,66,148.4,66z"/>
				<g>
					<path fill="#FFFFFF" d="M158.3,111c0-4.9,0-12.2,0-17.1l4.7-4.7c3.6,0,26.5,0,30,0v-0.6h-30l-4.7-4.7c0-5,0-12.4,0-17.4
						c0,0,0,14.7,0-0.1h34.6l5.3,5.2V106l-5.3,5L158.3,111"/>
				</g>
			</g>
			<g display="inline">
				<path fill="#FFFFFF" d="M79.6,83.1c0,1.4-2.6,3.6-4.9,6.4c-1.8,2.1-3.1,3.9-3.6,5c-0.5,1-0.5,1.7-0.1,2c0.4,0.3,1.2,0.2,2.3-0.4
					c1.2-0.6,3.1-1.8,4.8-3.2c2.3-1.8,3.6-2.9,5-4.2c0.7-0.7,1.4-1.1,1.6-0.9c0.3,0.3-0.4,1-1.3,1.8c-1.3,1.2-3.4,3.1-6.1,5.1
					c-2.2,1.7-6,4.3-9.5,4.3c-2.2,0-3.4-1.2-3.3-2.8c0.1-2.3,2.8-5.3,5.1-7.6c2.6-2.4,6.6-5.3,6.9-6.1c0.4-1.2-1.6-0.9-4.3-0.9
					c-1.1,0-1.9,0-2.5-0.2c-0.9,1-2.3,2.5-4.1,4c-1.8,1.7-3.1,2.9-4.3,3.9c-1,0.9-1.4,1.1-1.6,0.9c-0.2-0.2,0.1-0.7,1.2-1.7
					c1.3-1.2,2.2-2,4.2-3.8c1.5-1.4,2.9-2.8,3.7-3.7c-1-0.6-1.1-2.1,0-3.4c0.9-1.1,2.3-1.8,4-1.8c0.9,0,1.8,0.4,1.9,1.1
					c-0.7,0.5-1.2,0.9-1.8,1.5c-1.4,1.5-1.1,2.2,0.3,2.3c3,0.1,6.1,0.2,6.1,2.1C79.6,83,79.6,83.1,79.6,83.1z"/>
				<path fill="#FFFFFF" d="M88.3,98.3c2.3,0,6.6-2.9,9.9-6.5c0.1-1.1,0.5-2.7,1.9-4.5c1.2-1.6,2.7-2.5,3.4-2.8
					c0.3-0.7,0.3-1.9,0.3-2.5c0-1.2-0.4-1.5-0.1-1.7c0.4-0.2,1.1,0.2,1.5,0.6c0.9,0.9,1.5,2.1,1.3,3.7c-0.3,2.6-2.8,5.6-6.1,8.6
					c0.4,0.2,1.6,0.1,2,0c1-0.2,2.1-0.7,3.6-1.8c1.4-1,2.2-1.7,3.4-2.8c1-0.9,1.5-1.4,1.8-1.1c0.3,0.3-0.3,1-1.4,1.9
					c-1,0.9-2,1.8-3.4,2.8c-1.7,1.2-3,1.7-4,1.9c-1,0.2-2.2,0.2-2.9-0.2c-2.8,2.1-7.8,5.2-12.1,5.2c-3.3,0-5.3-1.6-5.2-4.7
					c0.1-2.1,1.4-4.7,3.4-6.8l-0.1-0.1c-0.7,0.6-1.2,1.1-1.9,1.7c-0.7,0.6-1.2,0.9-1.4,0.6c-0.2-0.3,0.3-0.9,0.7-1.3
					c0.7-0.7,2.2-1.9,3.3-2.7c1.4-1,2.9-1.9,5.1-3.1c3.1-1.6,6.4-2.8,8.8-2.9c0.7,0,1.6,0,1.6,0.4"/>
				<path fill="#FFFFFF" d="M127.2,93.9c3-1.8,5.2-3.7,7-5.3c0.5-0.4,1.1-1,1.4-0.6c0.2,0.2-0.2,0.9-1.2,1.7c-1.1,1-3.1,2.7-5.4,4.3
					c-2.3,1.6-4.7,2.8-6.7,3.6c-1.9,0.9-5.8,1.9-9,1.9c-5.6,0-6.8-3.4-6.4-6.4c0.4-3.1,2.9-5.6,5.4-5.5c1.5,0.1,2.2,1.2,2,2.3
					c-0.2,1.1-1,1.9-2.3,2.7c-1,0.5-2.3,1.7-2.4,3.2c-0.1,1.7,1.2,2.7,3.1,2.7c2.1,0,4.8-1.7,7.1-5.8c1.9-3.1,3.8-9.5,5-10.9v-0.1
					c-1.1,1.1-3.3,2.8-5.1,4c-1.5,1.1-3.2,2.1-4.1,2.6c-0.4,0.2-0.9,0.4-1.1,0.1c-0.1-0.3,0-0.5,0.5-0.9c1.1-0.6,2.8-1.7,4.5-3
					c1.9-1.4,3.8-3,6.3-5.1c0.2-0.4,1-1.3,1.7-1.8c1.2-0.9,2.3-1.2,3.1-1.2c2.5,0,0.9,1.4-0.5,2.2c-1,0.6-2,1.1-2.6,1.6
					c-0.9,0.9-0.7,1.7-0.7,2.9c0.1,3,0.3,5.8-1,8.7c-0.6,1.5-2.1,3.5-3.4,4.4C123.7,95.8,125.5,94.9,127.2,93.9z"/>
				<path fill="#FFFFFF" d="M138.4,99.4c-3.9,0-5.9-1.6-5.6-4.5c0.2-2.1,1.4-4.4,3.1-6.4l-0.1-0.1c-0.3,0.3-1.2,1.1-1.8,1.6
					c-0.6,0.5-1.2,0.9-1.4,0.6c-0.2-0.3,0.2-0.7,0.6-1.2c1.4-1.3,2.3-2,3.9-3.2c1.2-0.9,3.3-2.2,5.1-3.2c3.6-1.9,7-3.3,9.8-2.9
					c2.4,0.4,3.3,2,2.9,4c-0.4,2-2.2,3.6-3.6,3.6c-1.8,0-1.8-1.5-0.9-3.1c1.2-2,1.6-3.3,0.3-3.5c-1.2-0.2-3.6,1.4-6.6,4.5
					c-2.9,2.9-5.6,6.9-6,9.5c-0.2,1.6,0.7,2.4,2.4,2.4c1.4,0,5.1-0.6,9.8-3.8c2-1.4,4.7-3.6,6.4-5.1c0.6-0.5,1-0.6,1.2-0.4
					c0.2,0.3-0.2,0.7-0.9,1.4c-1.4,1.3-4.4,3.8-6.3,5.1c-3.7,2.6-8.7,4.6-12.4,4.6L138.4,99.4L138.4,99.4z"/>
				<path fill="#FFFFFF" d="M157.4,89.5c-0.7,0.6-1.2,0.9-1.4,0.6c-0.2-0.3,0.3-0.9,0.7-1.3c0.7-0.7,2.2-1.9,3.3-2.7
					c1.4-1,2.9-1.9,5.1-3.1c3.1-1.6,6.4-2.8,8.8-2.9c0.7,0,1.6,0,1.6,0.4c0,0.2-14.7,17.7-13.5,17.7c2.3,0,6.6-2.9,9.9-6.5
					c0.1-1.1,0.5-2.7,1.9-4.5c1.2-1.6,2.7-2.5,3.4-2.8c0.3-0.7,0.3-1.9,0.3-2.5c0-1.2-0.4-1.5-0.1-1.7c0.4-0.2,1.1,0.2,1.5,0.6
					c0.9,0.9,1.5,2.1,1.3,3.7c-0.3,2.6-2.8,5.6-6.1,8.6c0.4,0.2,1.6,0.1,2,0c1-0.2,2.1-0.7,3.6-1.8c1.4-1,2.2-1.7,3.4-2.8
					c1-0.9,1.5-1.4,1.8-1.1c0.3,0.3-0.3,1-1.4,1.9c-1,0.9-2,1.8-3.4,2.8c-1.7,1.2-3,1.7-4,1.9c-1,0.2-2.2,0.2-2.9-0.2
					c-2.8,2.1-7.8,5.2-12.1,5.2c-3.3,0-5.3-1.6-5.2-4.7c0.1-2.1,1.4-4.7,3.4-6.8l-0.1-0.1C158.6,88.4,158.1,88.9,157.4,89.5z"/>
			</g>
			<g display="inline">
				<path fill="#FFFFFF" d="M66.1,98.4h-8.8v-0.2h1.9V87.3h-6.7v10.8h1.9v0.2H42.9v-0.2h2.8V77h-2.8v-0.2h11.5V77h-1.9v10h6.7V77
					h-1.9v-0.2h8.8V98.4z M68.8,76.8V77h-2.8v-0.2H68.8z M66.1,98.1h2.8v0.2h-2.8V98.1z"/>
				<path fill="#FFFFFF" d="M89.2,98.4c-1.1,0-2.1-0.2-2.9-0.5c-0.8-0.3-1.5-0.8-2.1-1.4s-1.1-1.4-1.5-2.2c-0.4-0.9-0.9-1.8-1.3-2.9
					h-6.8L73,96.9c0,0.1,0,0.1,0,0.2s0,0.1,0,0.2c0,0.2,0.1,0.4,0.2,0.6c0.1,0.2,0.3,0.2,0.6,0.2h1.6v0.2H69v-0.2h1.8
					c0.4,0,0.8-0.1,1.2-0.4c0.4-0.3,0.6-0.6,0.8-1l4.7-15.6c-0.2-0.4-0.5-0.8-0.8-1.3c-0.3-0.5-0.6-0.9-1-1.3
					c-0.3-0.4-0.7-0.8-1.1-1S73.8,77,73.4,77v-0.2H79c0.8,0,1.4,0.1,2,0.4s1.1,0.6,1.5,1c0.4,0.4,0.8,0.9,1.1,1.4
					c0.3,0.5,0.6,1,0.7,1.4c0.3,0.7,0.6,1.6,1,2.4c0.4,0.9,0.7,1.8,1.1,2.8c0.4,1,0.8,1.9,1.2,2.9s0.8,1.9,1.2,2.8
					c0.9,2.1,1.8,4.2,2.7,6.4L89.2,98.4L89.2,98.4L89.2,98.4z M74.7,91h6.6l-3.8-9.4L74.7,91z"/>
				<path fill="#FFFFFF" d="M110.8,89.5c0.6,0.7,1.2,1.5,1.8,2.4c0.6,1,1.3,1.9,1.9,2.9c0.6,0.9,1.2,1.7,1.7,2.4
					c0.5,0.7,0.9,1,1.2,1v0.2h-5.5c-1.1,0-2-0.3-2.8-0.9c-0.8-0.6-1.5-1.3-2.2-2.2c-0.6-0.9-1.2-1.8-1.8-2.8s-1.1-1.9-1.8-2.8
					c-0.7-0.9-1.1-1.6-1.3-2c-0.2-0.4-0.4-0.6-0.5-0.6v11h3.1v0.2h-13v-0.2h3.1V77h-3.1v-0.2h16.1c1.3,0.1,2.4,0.3,3.4,0.7
					c0.4,0.2,0.9,0.4,1.3,0.7c0.4,0.3,0.8,0.6,1.1,1c0.3,0.4,0.6,0.8,0.8,1.3c0.2,0.5,0.3,1.1,0.3,1.7c0,1.1-0.3,2-0.8,2.7
					c-0.5,0.6-1.2,1.1-1.9,1.4c-0.7,0.3-1.4,0.5-2.2,0.6c-0.7,0.1-1.3,0.1-1.7,0.1h-0.4l-4,0c1,0,1.9,0.1,2.8,0.3
					c0.8,0.2,1.6,0.4,2.4,0.7C109.7,88.4,110.3,88.9,110.8,89.5z M101.5,77.1v9.8h1.9c0.8,0,1.4-0.1,2-0.2c0.5-0.1,0.9-0.3,1.3-0.6
					c0.3-0.3,0.5-0.7,0.7-1.2s0.2-1.2,0.2-2v-0.7c0-1.1-0.3-2-0.8-2.7c-0.5-0.7-1.1-1.2-1.7-1.6c-0.7-0.4-1.5-0.7-2.4-0.9
					C102.6,77.1,101.5,77.1,101.5,77.1z"/>
				<path fill="#FFFFFF" d="M140.2,76.8V77h-1.4c-0.4,0-0.8,0.2-1.2,0.5c-0.4,0.3-0.6,0.6-0.7,1l-4.7,19.8h-3.1
					c-0.2-0.5-0.6-1.2-1-2.1c-0.4-0.9-0.9-2-1.5-3.1c-0.6-1.2-1.1-2.4-1.8-3.7c-0.6-1.3-1.2-2.6-1.8-3.8c-0.6-1.2-1.2-2.4-1.8-3.5
					c-0.6-1.1-1.1-2-1.5-2.7c-0.4-0.6-0.7-1.1-1-1.4s-0.6-0.6-0.8-0.7c-0.3-0.2-0.5-0.3-0.7-0.3v-0.2h5.3c0.3,0,0.6,0,0.9,0
					c0.3,0,0.6,0.1,1,0.3c0.3,0.2,0.7,0.4,1.1,0.7c0.4,0.3,0.8,0.7,1.3,1.3c0.4,0.5,0.8,1,1.2,1.8c0.4,0.7,0.9,1.5,1.3,2.4
					c0.5,0.8,0.9,1.7,1.3,2.6c0.4,0.9,0.9,1.7,1.2,2.4c0.4,0.8,0.7,1.4,1,2c0.3,0.6,0.6,0.9,0.8,1.1l3-12.8c0-0.1,0-0.2,0-0.4
					c0-0.3-0.1-0.6-0.3-0.8c-0.2-0.2-0.5-0.3-0.8-0.3h-1.6v-0.2L140.2,76.8L140.2,76.8z"/>
				<path fill="#FFFFFF" d="M157.8,95.5c0.4-0.6,0.7-1.1,1-1.6c0.2-0.5,0.4-1,0.5-1.4s0.2-0.8,0.2-1.2c0-0.4,0-0.8,0-1.1h0.3v8.2
					h-1.9h-5.1h-2.6H143h-2.7v-0.2h2.7V77h-2.7v-0.2h2.7h7.1h2.1h7V84h-0.3c0-0.5,0-0.9,0-1.2c0-0.4-0.1-0.7-0.2-1.1
					c-0.1-0.3-0.2-0.7-0.4-1.1s-0.4-0.8-0.8-1.3c-0.4-0.5-0.8-1-1.1-1.3c-0.4-0.3-0.8-0.5-1.2-0.7c-0.4-0.1-0.9-0.2-1.4-0.3
					s-1,0-1.6,0h-2.1v10.1h1.3c0.4,0,0.7,0,1,0c0.3,0,0.6-0.1,0.9-0.2c0.3-0.1,0.5-0.2,0.8-0.4s0.5-0.4,0.7-0.8
					c0.4-0.5,0.6-1,0.8-1.5s0.3-1.1,0.3-1.7h0.2h0.1V92H156h-0.2c0-0.6-0.1-1.2-0.3-1.7c-0.2-0.5-0.5-1-0.8-1.6
					c-0.4-0.6-0.9-1-1.4-1.1s-1.2-0.2-1.9-0.2h-1.3v10.7h2.6c0.6,0,1.1,0,1.5,0c0.4,0,0.8-0.1,1.2-0.3c0.4-0.2,0.8-0.4,1.1-0.8
					C156.9,96.7,157.3,96.2,157.8,95.5z"/>
				<path fill="#FFFFFF" d="M175.2,84.5c2,1,3.4,2,4.2,3.2s1.3,2.6,1.3,4.1c0,1-0.2,2-0.6,2.8c-0.4,0.8-1,1.6-1.7,2.2
					c-0.7,0.6-1.6,1.1-2.5,1.4c-1,0.3-2,0.5-3.1,0.5h-0.4c-1,0-2-0.2-2.9-0.5c-1-0.4-1.9-0.8-2.9-1.4c-0.1,0-0.2-0.1-0.3-0.1
					c-0.2,0-0.4,0.1-0.6,0.3c-0.2,0.2-0.4,0.4-0.6,0.6c-0.2,0.2-0.4,0.5-0.6,0.9h-0.2l-0.6-8.8h0.2c0.1,0.4,0.1,0.8,0.2,1.3
					c0.1,0.4,0.2,0.8,0.4,1.3s0.4,1,0.8,1.5c0.3,0.6,0.8,1.2,1.2,1.9c0.5,0.7,1,1.2,1.6,1.5c1,0.6,2,1,3,1.1c0.3,0.1,0.6,0.1,1,0.1
					c0.4,0,0.8,0,1.3-0.1c0.4,0,0.8-0.1,1.2-0.3c0.5-0.2,0.9-0.5,1.1-0.8c0.2-0.3,0.4-0.8,0.4-1.5c0-0.5-0.2-1-0.7-1.5
					c-0.5-0.5-1-1-1.8-1.6c-0.7-0.5-1.6-1.1-2.5-1.6c-0.9-0.6-1.9-1.1-2.9-1.7c-1.7-1-2.9-2.1-3.6-3.3c-0.8-1.2-1.1-2.6-1.1-4
					c0-1.7,0.7-3.1,2.1-3.9c1.4-0.9,3.4-1.3,6.1-1.3c0.9,0,1.8,0.2,2.8,0.5c0.9,0.3,1.9,0.8,2.8,1.2c0.1,0,0.2,0.1,0.2,0.1
					c0.2,0,0.4-0.1,0.7-0.2c0.2-0.2,0.4-0.4,0.6-0.6c0.2-0.2,0.4-0.5,0.6-0.9h0.2l0.7,6.7h-0.2c-0.1-0.1-0.2-0.3-0.3-0.5
					c-0.1-0.2-0.3-0.5-0.5-0.8c-0.2-0.3-0.5-0.8-0.8-1.3c-0.1-0.1-0.2-0.3-0.4-0.5c-0.2-0.2-0.3-0.4-0.5-0.6
					c-0.2-0.2-0.4-0.5-0.7-0.7c-0.2-0.2-0.5-0.4-0.7-0.6c-0.7-0.4-1.4-0.7-2.2-1c-0.8-0.3-1.6-0.5-2.5-0.5c-0.3,0-0.6,0-0.9,0.1
					c-0.3,0.1-0.6,0.2-0.9,0.4c-0.3,0.2-0.5,0.4-0.7,0.7c-0.2,0.3-0.3,0.7-0.3,1.1c0,0.7,0.5,1.5,1.5,2.3
					C171.2,82.4,172.9,83.4,175.2,84.5z"/>
				<path fill="#FFFFFF" d="M201.7,76.8v8h-0.3c0-0.9-0.2-1.8-0.5-2.6c-0.3-0.8-0.8-1.7-1.5-2.7c-0.4-0.5-0.7-1-1.1-1.3
					c-0.4-0.3-0.7-0.6-1-0.7c-0.3-0.2-0.6-0.3-1-0.3s-0.6-0.1-0.9-0.1v21h3.1v0.2h-12.9v-0.2h3.1v-21c-0.3,0-0.6,0-1,0.1
					s-0.7,0.2-1.1,0.3c-0.4,0.2-0.8,0.4-1.1,0.7c-0.4,0.3-0.8,0.7-1.1,1.3c-0.7,1-1.1,1.9-1.3,2.7c-0.2,0.8-0.4,1.7-0.4,2.6h-0.3v-8
					H201.7z"/>
			</g>
		</g>
	</g>
	<path id="Filled" fill="#AAAAAA" d="M111.9,42.6l-7.2-9.1L86.3,59h13.7l-3.2,4.4H77.4l27.2-37.6l10.2,12.8L111.9,42.6z M104.3,59
		l28.8-39.8l35.5,44.2h-23.5L125,38.4l-5,6.9l14,18h-32.7 M117.1,49.3l-7,9.7h14.6L117.1,49.3z M133.3,26.9l-5.5,7.6L147.6,59h11.6
		L133.3,26.9z"/>
</g>
<g id="Layer_3" display="none">
	<rect y="-10" display="inline" fill="#231F20" stroke="#000000" stroke-miterlimit="10" width="285" height="105.3"/>
</g>
<g id="Layer_2">
	<path fill="none" stroke="#CCCCCC" stroke-width="0.8894" stroke-miterlimit="10" d="M67.4,7.1c-3.8,0-7.5,2.6-10.4,5.4
		c-4.3,4.1-7.5,9.9-11,14.7c-1.6,2.2-5.4,7-3.9,10.3c2.7,5.9,17.4-10.4,19.8-12.9c5.1-5.2,10.5-12.8,12-20.1
		c-3.4,13.1-9.9,24.3-16.7,35.8c-5.4,9.2-10.6,18.3-17.2,26.8c-2.2,2.9-4.4,6.5-8.3,7.2c-1.7-4.4,2.4-10.7,4.4-14.2
		c4.3-7.7,9.6-15,15.3-21.8c3.9-4.6,8.1-7.5,13-10.7c3.3-2.2,6-5.7,9.7-7.3c-0.3,0.2-0.5,0.4-0.8,0.6"/>
	<path fill="none" stroke="#CCCCCC" stroke-width="0.8894" stroke-miterlimit="10" d="M67.2,28.3c-4.1,3-7.7,6.6-10.7,10.6
		c5.4-2.9,10.2-6.8,14.3-11.3c0.6-0.6,1.1-1.7,0.4-2.2c-3.8,2.6-7.1,5.9-9.7,9.7c4.3-1.1,8.1-4.2,10.1-8.2c-0.8,0.3-1.5,0.6-2.3,0.9
		c2.4-2.3,5.6-3.8,8.8-4.3c-2.6,3.3-5.2,6.7-7.8,10c3.9-2,7.4-4.8,10.1-8.2c-2.4,2.9-4.4,6.1-6.1,9.5c5.5-5.7,10.2-12.1,13.9-19.1
		c-2.9,5.1-5.9,10.2-8.8,15.4c-0.5,0.9-0.7,2.5,0.4,2.5c2-2.4,4.2-4.7,6.5-6.8c-0.7,1.7-1.4,3.4-2,5.1c0.6-0.9,1.4-1.6,2.4-2.1
		c-0.1,1.1,0,2.2,0.3,3.3c1.3-1,2.5-2,3.8-3c0.1,0.9,0.2,1.8,0.3,2.7c1.4-0.5,2.8-1,4.2-1.5c0,0.9,0,1.8,0,2.7
		c0.8-0.2,1.6-0.3,2.4,0c-0.1,0.8-0.2,1.5-0.2,2.3c17.1-6.6,33.5-15.1,48.7-25.4"/>
	<path fill="none" stroke="#CCCCCC" stroke-width="0.8894" stroke-miterlimit="10" d="M116.9,39.2c-0.4,1-0.7,1.9-1.1,2.9
		c1.2-3,3.1-5.7,5-8.3c4.7-6.9,8.9-14.2,12.4-21.9c2.3-5.1,7.9-7.4,13.5-6.4c-3,10.9-13.4,17.8-23,23.8c5.9-4.1,12.3-8.3,19.5-8.8
		c0.7-0.1,1.4,0,2,0.4c0.8,0.6,0.7,1.8,0.4,2.8c-2.9,12-14.9,21.2-27.3,20.9c2.7-6.2,9.4-10.5,16.2-10.4c3.6,0.1,7.4,1.2,10.9,0.1
		c2.9-1,5-3.4,7-5.7c-2.1,1.9-3.9,4.3-5,7c6.6-3.8,12.2-9.2,16.4-15.5c-3.3,3.8-6.2,7.9-8.5,12.4c5.6-3.7,10.6-8.5,14.4-14.1
		c-4.9,4.7-10,9.7-12.2,16.1c3.2-2.1,6.5-4.2,9.7-6.3c-3,2.7-6,5.3-8.9,8c6.1,1.4,11.4-5.2,17.6-5.2c-0.2,1.1-0.4,2.1-0.6,3.2
		c2,0.3,4-0.4,6-1c13.7-4.5,27.4-8.9,41-13.4"/>
</g>
</svg>
